<svg xmlns="http://www.w3.org/2000/svg" width="56" height="56" viewBox="0 0 56 56">
  <g id="Grupo_1131071" data-name="Grupo 1131071" transform="translate(-180 -766)">
    <g id="Grupo_1130963" data-name="Grupo 1130963" transform="translate(0 -789)">
      <g id="Elipse_12293" data-name="Elipse 12293" transform="translate(180 1555)" fill="#faf8f2" stroke="#d0b57a" stroke-width="2">
        <circle cx="28" cy="28" r="28" stroke="none"/>
        <circle cx="28" cy="28" r="27" fill="none"/>
      </g>
    </g>
    <g id="Fill_Outline" data-name="Fill Outline" transform="translate(191 774)">
      <g id="Color" transform="translate(2.497 9.497)">
        <path id="Trazado_913163" data-name="Trazado 913163" d="M3,14H31.839V33.889H3Z" transform="translate(-3 -12.011)" fill="#57b7eb"/>
        <path id="Trazado_913164" data-name="Trazado 913164" d="M18.7,14a1.967,1.967,0,0,0-.276.994A1.967,1.967,0,0,0,18.149,14H5V32.895H16.436a1.98,1.98,0,0,1,1.713.994H18.7a1.98,1.98,0,0,1,1.713-.994H30.856V14Z" transform="translate(-4.006 -12.011)" fill="#4891d3"/>
        <path id="Trazado_913165" data-name="Trazado 913165" d="M33.989,10A1.989,1.989,0,0,0,32,11.989V31.878a1.989,1.989,0,0,1,1.989-1.989H44.431V10Z" transform="translate(-17.58 -10)" fill="#e9f1f2"/>
        <path id="Trazado_913166" data-name="Trazado 913166" d="M17.442,10a1.989,1.989,0,0,1,1.989,1.989V31.878a1.989,1.989,0,0,0-1.989-1.989H7V10Z" transform="translate(-5.011 -10)" fill="#e9f1f2"/>
        <path id="Trazado_913167" data-name="Trazado 913167" d="M19.431,29.392v2.486a1.989,1.989,0,0,0-1.989-1.989H7V10h3.481V21.933A5.466,5.466,0,0,0,15.95,27.4h1.492A1.989,1.989,0,0,1,19.431,29.392Z" transform="translate(-5.011 -10)" fill="#d0d8da"/>
        <path id="Trazado_913168" data-name="Trazado 913168" d="M44.431,27.4v2.486H33.989A1.989,1.989,0,0,0,32,31.878V11.989A1.989,1.989,0,0,1,33.989,10h1.989V22.431A4.972,4.972,0,0,0,40.95,27.4Z" transform="translate(-17.58 -10)" fill="#d0d8da"/>
        <path id="Trazado_913169" data-name="Trazado 913169" d="M44.458,16.5a2.521,2.521,0,0,0-1.34.44.994.994,0,0,1-1.189-.088A3.12,3.12,0,0,0,39.983,16C38.336,16,37,17.989,37,17.989s1.336,1.989,2.983,1.989a3.12,3.12,0,0,0,1.946-.85.994.994,0,0,1,1.189-.088,2.521,2.521,0,0,0,1.34.44l-.041-.128a4.506,4.506,0,0,1,.041-2.855Z" transform="translate(-20.094 -13.017)" fill="#84d2f4"/>
        <g id="Grupo_1131067" data-name="Grupo 1131067" transform="translate(16.906 3.491)">
          <path id="Trazado_913170" data-name="Trazado 913170" d="M38.492,17.02v2.963A6.066,6.066,0,0,1,37,18.5,6.066,6.066,0,0,1,38.492,17.02Z" transform="translate(-37 -17.02)" fill="#57b7eb"/>
          <path id="Trazado_913171" data-name="Trazado 913171" d="M38.492,17.02v2.963A6.066,6.066,0,0,1,37,18.5,6.066,6.066,0,0,1,38.492,17.02Z" transform="translate(-37 -17.02)" fill="#57b7eb"/>
          <path id="Trazado_913172" data-name="Trazado 913172" d="M44.458,20.989a2.536,2.536,0,0,1-1.338-.438.994.994,0,0,0-1.193.085,3.1,3.1,0,0,1-1.944.85C38.338,21.486,37,19.5,37,19.5a5.537,5.537,0,0,1,.393-.5,3.835,3.835,0,0,0,2.591,1.492,3.1,3.1,0,0,0,1.944-.85.994.994,0,0,1,1.193-.085,2.613,2.613,0,0,0,1.114.423,4.139,4.139,0,0,0,.184.88Z" transform="translate(-37 -18.015)" fill="#57b7eb"/>
        </g>
        <circle id="Elipse_12454" data-name="Elipse 12454" cx="0.836" cy="0.836" r="0.836" transform="translate(16.789 6.194)" fill="#fcbc04"/>
        <ellipse id="Elipse_12455" data-name="Elipse 12455" cx="0.836" cy="1.255" rx="0.836" ry="1.255" transform="translate(19.299 6.194)" fill="#a1d51c"/>
        <rect id="Rectángulo_411656" data-name="Rectángulo 411656" width="3.346" height="1.673" rx="0.836" transform="translate(20.972 7.867)" fill="#f9e109"/>
        <path id="Trazado_913173" data-name="Trazado 913173" d="M48.983,26.125a1,1,0,0,1-.994.994h-.994A1,1,0,0,1,46,26.125a1.009,1.009,0,0,1,.507-.865,1,1,0,0,0,.985.865h.994A.952.952,0,0,0,48.973,26a1.049,1.049,0,0,1,.01.129Z" transform="translate(-24.619 -17.672)" fill="#fcbc04"/>
        <path id="Trazado_913174" data-name="Trazado 913174" d="M43.989,24.125a.994.994,0,1,1-1.482-.865,1,1,0,0,0,.985.865A.952.952,0,0,0,43.979,24a1.049,1.049,0,0,1,.01.129Z" transform="translate(-22.608 -16.667)" fill="#7ab92d"/>
        <path id="Trazado_913175" data-name="Trazado 913175" d="M37.989,23.125a.994.994,0,1,1-1.482-.865,1,1,0,0,0,.985.865A.952.952,0,0,0,37.979,23,1.049,1.049,0,0,1,37.989,23.125Z" transform="translate(-19.591 -16.164)" fill="#e59730"/>
        <path id="Trazado_913176" data-name="Trazado 913176" d="M38.492,19.985v.994A6.066,6.066,0,0,1,37,19.5a5.536,5.536,0,0,1,.393-.5A5.764,5.764,0,0,0,38.492,19.985Z" transform="translate(-20.094 -14.525)" fill="#4891d3"/>
        <path id="Trazado_913177" data-name="Trazado 913177" d="M38.492,19.985v.994A6.066,6.066,0,0,1,37,19.5a5.536,5.536,0,0,1,.393-.5A5.764,5.764,0,0,0,38.492,19.985Z" transform="translate(-20.094 -14.525)" fill="#4891d3"/>
        <path id="Trazado_913178" data-name="Trazado 913178" d="M14.218,19.653l-.961.258-.99-2.319a.863.863,0,1,1,1.65-.442Z" transform="translate(-7.625 -13.213)" fill="#f9e109"/>
        <path id="Trazado_913179" data-name="Trazado 913179" d="M13.094,16.395v3.133l-.149-.348-.676-1.586a.862.862,0,0,1,.791-1.2.085.085,0,0,1,.035,0Z" transform="translate(-7.625 -13.213)" fill="#fcbc04"/>
        <path id="Trazado_913180" data-name="Trazado 913180" d="M14.217,19.757l-.96.259L12.268,17.7a.859.859,0,0,1,.383-1.1l.219.517a1.977,1.977,0,0,0,.557.746,1.47,1.47,0,0,1,.512-.413Z" transform="translate(-7.624 -13.318)" fill="#fcbc04"/>
        <path id="Trazado_913181" data-name="Trazado 913181" d="M13.094,17.51v2.123L12.268,17.7a.859.859,0,0,1,.383-1.1l.219.517a1.911,1.911,0,0,0,.224.393Z" transform="translate(-7.624 -13.318)" fill="#e59730"/>
        <path id="Trazado_913182" data-name="Trazado 913182" d="M22.463,16.43a.994.994,0,1,0-1.722-.994.994.994,0,1,0-.994,1.722L19,18.449l1.722.994.746-1.293a.994.994,0,1,0,.994-1.722Z" transform="translate(-11.044 -12.483)" fill="#a1d51c"/>
        <path id="Trazado_913183" data-name="Trazado 913183" d="M22.739,17.964a1,1,0,0,1-1.273.229l-.746,1.293L19,18.491l.746-1.293a.994.994,0,0,1,.994-1.72.976.976,0,0,1,.6-.457,1.238,1.238,0,0,0,.706,1.646,1.044,1.044,0,0,0-.06.333A1,1,0,0,0,22.739,17.964Z" transform="translate(-11.044 -12.524)" fill="#7ab92d"/>
        <circle id="Elipse_12456" data-name="Elipse 12456" cx="1.673" cy="1.673" r="1.673" transform="translate(5.916 3.685)" fill="#f7f754"/>
        <path id="Trazado_913184" data-name="Trazado 913184" d="M17.983,19.582A1.492,1.492,0,1,1,16,18.18a1.485,1.485,0,0,0,1.487,1.4,1.351,1.351,0,0,0,.492-.09A.541.541,0,0,1,17.983,19.582Z" transform="translate(-9.033 -14.113)" fill="#f9e109"/>
        <path id="Trazado_913185" data-name="Trazado 913185" d="M12,22h6.961a1.989,1.989,0,0,1-1.989,1.989H13.989A1.989,1.989,0,0,1,12,22Z" transform="translate(-7.525 -16.033)" fill="#84d2f4"/>
        <path id="Trazado_913186" data-name="Trazado 913186" d="M14,30h5.469v1.989H14Z" transform="translate(-8.531 -20.056)" fill="#f9e109"/>
        <path id="Trazado_913187" data-name="Trazado 913187" d="M18.693,22.994a2.1,2.1,0,0,1-.313.413,2,2,0,0,1-1.407.582H13.989A1.989,1.989,0,0,1,12,22h1.263a1.979,1.979,0,0,0,1.72.994Z" transform="translate(-7.525 -16.033)" fill="#57b7eb"/>
        <path id="Trazado_913188" data-name="Trazado 913188" d="M12.994,22v1.72A1.979,1.979,0,0,1,12,22Z" transform="translate(-7.525 -16.033)" fill="#4891d3"/>
      </g>
      <g id="Outline_copy" data-name="Outline copy" transform="translate(2 9)">
        <path id="Trazado_913189" data-name="Trazado 913189" d="M31.336,22.425a.5.5,0,0,0,.5-.5V11.486a.5.5,0,0,0-.5-.5H29.845V9.5a.5.5,0,0,0-.5-.5H24.375a.5.5,0,0,0,0,.994H28.85V28.889H18.906a2.476,2.476,0,0,0-1.492.5V13.475a.5.5,0,0,0-.994,0V29.4a2.46,2.46,0,0,0-1.492-.51H4.983V26.9a.5.5,0,0,0-.994,0v2.486a.5.5,0,0,0,.5.5H14.928a1.492,1.492,0,0,1,1.4.994H2.994V17.453a.5.5,0,0,0-.994,0V31.375a.5.5,0,0,0,.5.5H31.336a.5.5,0,0,0,.5-.5V23.917a.5.5,0,1,0-.994,0v6.961H17.505a1.492,1.492,0,0,1,1.4-.994H29.347a.5.5,0,0,0,.5-.5v-17.4h.994v9.944A.5.5,0,0,0,31.336,22.425Z" transform="translate(-2 -9)"/>
        <path id="Trazado_913190" data-name="Trazado 913190" d="M2.5,15.961a.5.5,0,0,0,.5-.5V11.983h.994V24.911a.5.5,0,1,0,.994,0V9.994h9.944a1.492,1.492,0,0,1,1.492,1.492.5.5,0,1,0,.994,0,1.492,1.492,0,0,1,1.492-1.492h3.481a.5.5,0,1,0,0-.994H18.906a2.486,2.486,0,0,0-1.989.994A2.486,2.486,0,0,0,14.928,9H4.486a.5.5,0,0,0-.5.5v1.492H2.5a.5.5,0,0,0-.5.5v3.978A.5.5,0,0,0,2.5,15.961Z" transform="translate(-2 -9)"/>
        <ellipse id="Elipse_12457" data-name="Elipse 12457" cx="0.418" cy="0.836" rx="0.418" ry="0.836" transform="translate(18.96 4.182)"/>
        <path id="Trazado_913191" data-name="Trazado 913191" d="M43.856,15.707a.5.5,0,0,0-.405-.209,2.987,2.987,0,0,0-1.608.518.5.5,0,0,1-.6-.047A3.53,3.53,0,0,0,38.976,15c-1.889,0-3.335,2.119-3.4,2.209a.5.5,0,0,0,0,.555c.014.02.112.164.277.366a1.492,1.492,0,1,0,2.094,1.641l.05.016a1.442,1.442,0,0,0-.02.185,1.487,1.487,0,0,0,2.047,1.382,1.492,1.492,0,0,0,1.434,1.1h.994a1.492,1.492,0,1,0,0-2.983h-.994a1.484,1.484,0,0,0-.555.109,1.486,1.486,0,0,0-.093-.254,5.118,5.118,0,0,0,.43-.327.5.5,0,0,1,.6-.047,2.987,2.987,0,0,0,1.61.518.5.5,0,0,0,.474-.646l-.041-.128a4.034,4.034,0,0,1,.036-2.54.5.5,0,0,0-.064-.454ZM36.49,19.972a.5.5,0,1,1,.5-.5A.5.5,0,0,1,36.49,19.972Zm2.983.5a.5.5,0,1,1,.5-.5A.5.5,0,0,1,39.473,20.469Zm1.989,0h.994a.5.5,0,0,1,0,.994h-.994a.5.5,0,1,1,0-.994Zm.917-2.35a1.492,1.492,0,0,0-1.78.128,3.957,3.957,0,0,1-.516.367,1.469,1.469,0,0,0-1.627.273,4.308,4.308,0,0,1-1.84-1.4,3.581,3.581,0,0,1,2.36-1.492,2.586,2.586,0,0,1,1.623.731,1.492,1.492,0,0,0,1.78.128,2.7,2.7,0,0,1,.394-.211,5.049,5.049,0,0,0,0,1.688A2.739,2.739,0,0,1,42.379,18.119Z" transform="translate(-18.59 -12.017)"/>
        <path id="Trazado_913192" data-name="Trazado 913192" d="M45.967,33H40.5a.5.5,0,0,0,0,.994h5.469a.5.5,0,1,0,0-.994Z" transform="translate(-21.105 -21.067)"/>
        <path id="Trazado_913193" data-name="Trazado 913193" d="M43.956,37H36.5a.5.5,0,0,0,0,.994h7.458a.5.5,0,1,0,0-.994Z" transform="translate(-19.094 -23.078)"/>
        <path id="Trazado_913194" data-name="Trazado 913194" d="M42.464,41.5a.5.5,0,0,0-.5-.5H36.5a.5.5,0,0,0,0,.994h5.469A.5.5,0,0,0,42.464,41.5Z" transform="translate(-19.094 -25.089)"/>
        <path id="Trazado_913195" data-name="Trazado 913195" d="M40.5,45.994h5.469a.5.5,0,1,0,0-.994H40.5a.5.5,0,0,0,0,.994Z" transform="translate(-21.105 -27.1)"/>
        <path id="Trazado_913196" data-name="Trazado 913196" d="M11,17.475a2.489,2.489,0,0,0,2.486,2.486h2.983a2.489,2.489,0,0,0,2.486-2.486.516.516,0,0,0-.011-.055A1.477,1.477,0,0,0,19.03,15.3a1.492,1.492,0,0,0-2.474-1.429,1.459,1.459,0,0,0-1.787,1.148,1.767,1.767,0,0,0-1.02.114,1.347,1.347,0,0,0-.715-.809l.333-.577a.5.5,0,1,0-.862-.5l-.358.621-.28-.316a.5.5,0,1,0-.746.66l.355.4a1.343,1.343,0,0,0-.245.34,1.356,1.356,0,0,0-.024,1.132l.381.9H11.5A.5.5,0,0,0,11,17.475Zm5.469,1.492H13.484a1.5,1.5,0,0,1-1.407-.994h5.8A1.5,1.5,0,0,1,16.468,18.966Zm-4.34-3.58a.364.364,0,0,1,.689.119l.04.328a1.967,1.967,0,0,0-.332.8l-.4-.945a.361.361,0,0,1,.006-.306Zm3.663-.315a.5.5,0,0,1,.678-.178.5.5,0,0,0,.679-.184.492.492,0,0,1,.3-.232.5.5,0,0,1,.608.353.49.49,0,0,1-.05.376.5.5,0,0,0,.182.682.5.5,0,1,1-.5.857.5.5,0,0,0-.675.183l-.03.05h-.517a1.976,1.976,0,0,0-.72-1.519.481.481,0,0,1,.042-.387Zm-.317,1.906H13.484a.994.994,0,1,1,1.989,0Z" transform="translate(-6.523 -11.011)"/>
        <path id="Trazado_913197" data-name="Trazado 913197" d="M13.5,29a.5.5,0,0,0-.5.5v1.989a.5.5,0,0,0,.5.5h5.469a.5.5,0,0,0,.5-.5V29.5a.5.5,0,0,0-.5-.5Zm4.972,1.989H13.994v-.994h4.475Z" transform="translate(-7.531 -19.056)"/>
        <path id="Trazado_913198" data-name="Trazado 913198" d="M21.967,37H16.5a.5.5,0,1,0,0,.994h5.469a.5.5,0,1,0,0-.994Z" transform="translate(-9.039 -23.078)"/>
        <path id="Trazado_913199" data-name="Trazado 913199" d="M19.447,41.5a.5.5,0,0,0-.5-.5H10.5a.5.5,0,1,0,0,.994H18.95A.5.5,0,0,0,19.447,41.5Z" transform="translate(-6.022 -25.089)"/>
        <path id="Trazado_913200" data-name="Trazado 913200" d="M12.5,45a.5.5,0,1,0,0,.994h6.961a.5.5,0,1,0,0-.994Z" transform="translate(-7.028 -27.1)"/>
      </g>
    </g>
  </g>
</svg>
