<svg xmlns="http://www.w3.org/2000/svg" width="56" height="56" viewBox="0 0 56 56">
  <g id="Grupo_1130860" data-name="Grupo 1130860" transform="translate(-180 -764)">
    <g id="Grupo_1130732" data-name="Grupo 1130732" transform="translate(0 -3813)">
      <g id="Elipse_12284" data-name="Elipse 12284" transform="translate(180 4577)" fill="#faf8f2" stroke="#d0b57a" stroke-width="2">
        <circle cx="28" cy="28" r="28" stroke="none"/>
        <circle cx="28" cy="28" r="27" fill="none"/>
      </g>
    </g>
    <g id="_021-bacteria" data-name="021-bacteria" transform="translate(182.297 762.305)">
      <g id="Grupo_1130859" data-name="Grupo 1130859" transform="translate(9.506 13.005)">
        <g id="Grupo_1130856" data-name="Grupo 1130856" transform="translate(0 0)">
          <circle id="Elipse_12406" data-name="Elipse 12406" cx="4.682" cy="4.682" r="4.682" transform="translate(1.985 9.947) rotate(-58.28)" fill="#f76c82"/>
          <g id="Grupo_1130855" data-name="Grupo 1130855">
            <path id="Trazado_912690" data-name="Trazado 912690" d="M18.452,21.97c.664-.664,1.448-.956,1.752-.652s.012,1.088-.652,1.752-1.448.956-1.752.652S17.788,22.634,18.452,21.97ZM24.41,19.5c.939,0,1.7.348,1.7.778s-.761.778-1.7.778-1.7-.348-1.7-.778S23.471,19.5,24.41,19.5Zm5.958,2.468c.664.664.956,1.448.652,1.752s-1.088.012-1.752-.652-.956-1.448-.652-1.752,1.088-.012,1.752.652Zm2.468,5.958c0,.939-.348,1.7-.778,1.7s-.778-.761-.778-1.7.348-1.7.778-1.7S32.837,26.989,32.837,27.928Zm-2.468,5.958c-.664.664-1.448.956-1.752.652s-.012-1.088.652-1.752,1.448-.956,1.752-.652.012,1.088-.652,1.752ZM24.41,36.355c-.939,0-1.7-.348-1.7-.778s.761-.778,1.7-.778,1.7.348,1.7.778S25.349,36.355,24.41,36.355Zm-5.958-2.468c-.664-.664-.956-1.448-.652-1.752s1.088-.012,1.752.652.956,1.448.652,1.752S19.116,34.55,18.452,33.887Zm-2.468-5.958c0-.939.348-1.7.778-1.7s.778.761.778,1.7-.348,1.7-.778,1.7S15.984,28.867,15.984,27.928Z" transform="translate(-15.984 -19.502)" fill="#eb5463" fill-rule="evenodd"/>
            <path id="Trazado_912691" data-name="Trazado 912691" d="M99.323,108.462a.978.978,0,1,1-.978.978A.978.978,0,0,1,99.323,108.462Zm-2.577-1.5a.684.684,0,1,1-.684.684A.685.685,0,0,1,96.745,106.967Zm2.859-1.434a.775.775,0,1,1-.775.775A.775.775,0,0,1,99.6,105.533Z" transform="translate(-90.274 -99.315)" fill="#eb5463" fill-rule="evenodd"/>
          </g>
        </g>
        <g id="Grupo_1130857" data-name="Grupo 1130857" transform="translate(1.385 23.114)">
          <circle id="Elipse_12407" data-name="Elipse 12407" cx="3.602" cy="3.602" r="3.602" transform="translate(0 5.093) rotate(-45)" fill="#b3a4ee"/>
        </g>
        <g id="Grupo_1130858" data-name="Grupo 1130858" transform="translate(17.875 6.558)">
          <path id="Trazado_912692" data-name="Trazado 912692" d="M263.314,126.547a4.524,4.524,0,0,1,.887-2.392c2.466-3.56,2.421-4.555,2.343-6.251a17.254,17.254,0,0,1,.051-2.8h0q.028-.3.078-.579a4.942,4.942,0,0,1,2.244-3.4,6.345,6.345,0,0,1,3.955-.852q.354.032.7.094l.038.006a7.266,7.266,0,0,1,4.408,2.857,4.142,4.142,0,0,1,.751,3.164,3.848,3.848,0,0,1-.348,1,9.021,9.021,0,0,0-.8,5.88,19.861,19.861,0,0,1,.177,2.971c0,.043,0,.075,0,.094a4.984,4.984,0,0,1-2.756,4.282,9.655,9.655,0,0,1-4.8,1.066l-.155-.006a9.469,9.469,0,0,1-4.688-1.572,5.454,5.454,0,0,1-1.517-1.519A3.49,3.49,0,0,1,263.314,126.547Z" transform="translate(-263.311 -110.245)" fill="#c6ea94" fill-rule="evenodd"/>
          <path id="Trazado_912693" data-name="Trazado 912693" d="M310.939,172.9a2.432,2.432,0,1,1-.89,3.322A2.432,2.432,0,0,1,310.939,172.9Zm3.459-8.624a.761.761,0,1,1-.279,1.04A.761.761,0,0,1,314.4,164.277Zm-4.722-.9a.846.846,0,1,1-.31,1.155A.846.846,0,0,1,309.676,163.373Zm-3.035,12.107a.979.979,0,1,1-.358,1.337A.979.979,0,0,1,306.641,175.481Zm4.864-8.078a1.653,1.653,0,1,1-.605,2.259A1.653,1.653,0,0,1,311.505,167.4Z" transform="translate(-303.055 -159.428)" fill="#afe269" fill-rule="evenodd"/>
        </g>
      </g>
      <path id="Trazado_912694" data-name="Trazado 912694" d="M36.481,37.068a1.926,1.926,0,1,1,1.926-1.926A1.928,1.928,0,0,1,36.481,37.068Zm0-4.864a2.938,2.938,0,1,0,2.938,2.938A2.942,2.942,0,0,0,36.481,32.2Zm-5.024,4.733a.473.473,0,1,1,.473-.473A.474.474,0,0,1,31.457,36.937Zm0-1.958a1.485,1.485,0,1,0,1.485,1.484A1.486,1.486,0,0,0,31.457,34.979Zm5.2-7.157a1.148,1.148,0,1,1-1.148,1.148A1.149,1.149,0,0,1,36.658,27.822ZM34.5,28.97a2.159,2.159,0,1,0,2.159-2.159A2.162,2.162,0,0,0,34.5,28.97Zm4.606-3.643a.255.255,0,1,1,.255-.255A.256.256,0,0,1,39.105,25.327Zm0-1.523a1.267,1.267,0,1,0,1.267,1.268A1.269,1.269,0,0,0,39.105,23.8Zm-5.02.437a.34.34,0,1,1,.34.34A.34.34,0,0,1,34.085,24.24Zm1.692,0a1.352,1.352,0,1,0-1.352,1.352A1.353,1.353,0,0,0,35.777,24.24ZM15.988,44.309a3.1,3.1,0,1,1,3.1-3.1,3.1,3.1,0,0,1-3.1,3.1Zm5.883-4.4c-.248,0-.461.331-.552.8H20.063a4.083,4.083,0,0,0-.837-2.016l.89-.89c.4.269.782.352.957.176.234-.233.009-.837-.5-1.347s-1.114-.736-1.348-.5c-.175.175-.092.559.177.957l-.89.89a4.088,4.088,0,0,0-2.017-.838V35.883c.471-.09.8-.3.8-.551,0-.33-.585-.6-1.307-.6s-1.308.268-1.308.6c0,.248.331.461.8.551v1.256a4.089,4.089,0,0,0-2.017.838l-.89-.89c.269-.4.352-.781.177-.957-.234-.234-.837-.01-1.348.5s-.735,1.114-.5,1.347c.175.175.56.093.957-.176l.89.89a4.083,4.083,0,0,0-.837,2.016H10.657c-.09-.471-.3-.8-.552-.8-.33,0-.6.585-.6,1.307s.268,1.308.6,1.308c.248,0,.461-.33.552-.8h1.256a4.084,4.084,0,0,0,.837,2.016l-.89.89c-.4-.269-.782-.352-.957-.176-.234.233-.009.837.5,1.347s1.114.736,1.348.5c.175-.175.092-.559-.177-.957l.89-.89a4.085,4.085,0,0,0,2.017.838v1.256c-.471.09-.8.3-.8.551,0,.331.585.6,1.308.6s1.307-.267,1.307-.6c0-.248-.331-.461-.8-.551V45.29a4.085,4.085,0,0,0,2.017-.838l.89.89c-.269.4-.352.782-.177.957.234.234.837.01,1.348-.5s.735-1.114.5-1.347c-.176-.175-.56-.093-.957.176l-.89-.89a4.083,4.083,0,0,0,.837-2.016H21.32c.09.471.3.8.552.8.33,0,.6-.585.6-1.308S22.2,39.907,21.871,39.907Zm-6.86,1.238a.527.527,0,1,0-.526.527A.526.526,0,0,0,15.011,41.145Zm2.208,1.376a.752.752,0,1,0-.752.752A.752.752,0,0,0,17.219,42.521Zm.061-2.409a.6.6,0,1,0-.6.6A.6.6,0,0,0,17.28,40.111Zm23.943-4.293a20.147,20.147,0,0,0-.182-2.989,10.405,10.405,0,0,1,.948-6.764,3.055,3.055,0,0,0-.026-2.793,6.419,6.419,0,0,0-4.337-3.155,7.164,7.164,0,0,0-1.3-.121,5.313,5.313,0,0,0-3.226.989,4.4,4.4,0,0,0-1.672,3.22,17.26,17.26,0,0,0-.051,2.807c.091,1.98.145,3.174-2.648,7.206a3.087,3.087,0,0,0-.474,3.271c.892,1.789,3.751,2.99,5.889,3.076a8.266,8.266,0,0,0,5.739-1.742,4.119,4.119,0,0,0,1.336-3.006ZM44.7,26.9a.506.506,0,0,0-.535-.475L42.9,26.5a3.907,3.907,0,0,0,.32-2.687l1.1-.6a.506.506,0,0,0-.483-.889l-.965.524-.008-.017a6.439,6.439,0,0,0-1.723-2.113l.825-1a.506.506,0,0,0-.78-.644l-.87,1.054a7.7,7.7,0,0,0-2.05-.895l.176-1.4a.506.506,0,1,0-1-.127l-.168,1.336a7.645,7.645,0,0,0-2.25.058l-.195-1.309a.506.506,0,1,0-1,.149l.211,1.417a5.609,5.609,0,0,0-1.552.822c-.1.074-.191.152-.282.232l-.853-1.022a.506.506,0,0,0-.777.648l.934,1.119a5.467,5.467,0,0,0-1,2.3l-1.186-.475a.506.506,0,0,0-.376.94l1.436.575a17.966,17.966,0,0,0-.029,2.322l-1.489-.069a.506.506,0,0,0-.047,1.011l1.572.072a5.99,5.99,0,0,1-.82,3.114l-1.714-.64a.506.506,0,1,0-.354.947l1.567.585c-.314.523-.7,1.116-1.174,1.8a6.1,6.1,0,0,0-.5.866l-1.576-.235a.506.506,0,0,0-.149,1l1.387.207a3.642,3.642,0,0,0,.3,2.459c.036.073.075.145.116.215l-1.4,1.049a.506.506,0,1,0,.606.81l1.4-1.046A7.253,7.253,0,0,0,30,40.421l-.746,1.33a.506.506,0,0,0,.883.5l.781-1.393a10.006,10.006,0,0,0,2.68.687L33.526,42.9a.506.506,0,0,0,.479.531h.026a.506.506,0,0,0,.5-.48l.071-1.369a11.1,11.1,0,0,0,2.593-.316l.263,1.19a.506.506,0,1,0,.988-.217l-.279-1.265a7.115,7.115,0,0,0,2.3-1.318l.789.841A.506.506,0,0,0,42,39.808l-.831-.885a4.943,4.943,0,0,0,.917-1.913L43.3,37.4a.514.514,0,0,0,.154.024.506.506,0,0,0,.154-.988l-1.382-.44c0-.049.006-.1.008-.146a17.7,17.7,0,0,0-.107-2.4l1.294.283a.5.5,0,0,0,.108.012.506.506,0,0,0,.108-1l-1.627-.356a16.6,16.6,0,0,1-.128-1.863l1.724.039h.012a.506.506,0,0,0,.011-1.012l-1.688-.038a8.163,8.163,0,0,1,.5-1.974l1.79-.107A.507.507,0,0,0,44.7,26.9ZM18.556,23.6a.472.472,0,1,1,.472-.472A.472.472,0,0,1,18.556,23.6Zm0-1.956a1.484,1.484,0,1,0,1.484,1.484A1.486,1.486,0,0,0,18.556,21.646Zm-2.577-.126a.179.179,0,1,1,.179-.179A.179.179,0,0,1,15.979,21.52Zm0-1.369a1.191,1.191,0,1,1-1.19,1.19A1.192,1.192,0,0,1,15.979,20.151Zm2.859.116a.269.269,0,1,1,.269-.27A.269.269,0,0,1,18.838,20.267Zm0-1.55A1.281,1.281,0,1,0,20.119,20,1.282,1.282,0,0,0,18.838,18.717Zm4.7,8.316a2.093,2.093,0,0,1-1.006.621,2.573,2.573,0,0,1,1.627-1.627A2.1,2.1,0,0,1,23.534,27.032Zm-5.6-1.425a4.177,4.177,0,1,0-4.176-4.177A4.181,4.181,0,0,0,17.933,25.608Zm0,3.744a2.091,2.091,0,0,1-1.151-.272,2.1,2.1,0,0,1,1.151-.272,2.1,2.1,0,0,1,1.151.272A2.091,2.091,0,0,1,17.933,29.351Zm-5.6-2.319a2.1,2.1,0,0,1-.621-1.006,2.093,2.093,0,0,1,1.006.622,2.094,2.094,0,0,1,.621,1.005,2.094,2.094,0,0,1-1.006-.621Zm-.621-10.2a2.091,2.091,0,0,1,.621-1.006,2.1,2.1,0,0,1,1.006-.622,2.1,2.1,0,0,1-.621,1.006A2.1,2.1,0,0,1,11.711,16.837Zm6.222-3.326a2.1,2.1,0,0,1,1.151.272,2.1,2.1,0,0,1-1.151.272,2.1,2.1,0,0,1-1.151-.272A2.1,2.1,0,0,1,17.933,13.511Zm5.6,2.32a2.09,2.09,0,0,1,.621,1.006,2.1,2.1,0,0,1-1.006-.622,2.1,2.1,0,0,1-.621-1.006,2.1,2.1,0,0,1,1.006.622ZM10.285,22.582a2.092,2.092,0,0,1-.272-1.151,2.094,2.094,0,0,1,.272-1.15,2.1,2.1,0,0,1,.272,1.15A2.1,2.1,0,0,1,10.285,22.582Zm15.3-2.3a2.094,2.094,0,0,1,.272,1.15,2.092,2.092,0,0,1-.272,1.151,2.093,2.093,0,0,1-.272-1.151A2.1,2.1,0,0,1,25.582,20.281ZM22.813,25.6c.8-.627,1.635-.769,2.088-.316.526.526.252,1.564-.652,2.467a2.732,2.732,0,0,1-1.777.918.947.947,0,0,1-.691-.265c-.454-.454-.311-1.288.316-2.089l-.873-.872a5.163,5.163,0,0,1-2.786,1.156v1.232c1.01.123,1.7.612,1.7,1.253,0,.744-.928,1.283-2.206,1.283s-2.206-.539-2.206-1.283c0-.641.69-1.13,1.7-1.253V26.594a5.164,5.164,0,0,1-2.786-1.156l-.874.874a3.123,3.123,0,0,1,.47.812,1.126,1.126,0,0,1-.153,1.275.947.947,0,0,1-.691.265,2.728,2.728,0,0,1-1.776-.918c-.9-.9-1.178-1.941-.652-2.467.454-.453,1.288-.311,2.088.316l.873-.872a5.167,5.167,0,0,1-1.156-2.786H11.538c-.123,1.01-.612,1.7-1.253,1.7C9.541,23.637,9,22.71,9,21.431s.54-2.206,1.284-2.206c.641,0,1.131.69,1.253,1.7H12.77a5.162,5.162,0,0,1,1.156-2.786l-.874-.874a3.147,3.147,0,0,1-.812.471,1.672,1.672,0,0,1-.582.116.95.95,0,0,1-.693-.269,1.125,1.125,0,0,1-.153-1.275,3.482,3.482,0,0,1,.805-1.192c.9-.9,1.942-1.178,2.467-.652a1.125,1.125,0,0,1,.153,1.275,3.14,3.14,0,0,1-.47.812l.874.874a5.167,5.167,0,0,1,2.786-1.157V15.036c-1.01-.122-1.7-.611-1.7-1.253,0-.744.928-1.284,2.206-1.284s2.206.54,2.206,1.284c0,.642-.69,1.131-1.7,1.253v1.232a5.167,5.167,0,0,1,2.786,1.157l.873-.873c-.627-.8-.769-1.635-.316-2.088.526-.526,1.564-.252,2.467.652a3.482,3.482,0,0,1,.805,1.192,1.125,1.125,0,0,1-.153,1.275.946.946,0,0,1-.691.265,2.393,2.393,0,0,1-1.4-.581l-.873.873A5.164,5.164,0,0,1,23.1,20.925h1.232c.123-1.01.612-1.7,1.253-1.7.744,0,1.284.928,1.284,2.206s-.54,2.206-1.284,2.206c-.641,0-1.131-.69-1.253-1.7H23.1a5.167,5.167,0,0,1-1.156,2.786Z" fill-rule="evenodd"/>
    </g>
  </g>
</svg>
