<svg xmlns="http://www.w3.org/2000/svg" width="56" height="56" viewBox="0 0 56 56">
  <g id="Grupo_1130866" data-name="Grupo 1130866" transform="translate(-180 -1716)">
    <g id="Grupo_1130783" data-name="Grupo 1130783" transform="translate(0 -2861)">
      <g id="Elipse_12284" data-name="Elipse 12284" transform="translate(180 4577)" fill="#faf8f2" stroke="#d0b57a" stroke-width="2">
        <circle cx="28" cy="28" r="28" stroke="none"/>
        <circle cx="28" cy="28" r="27" fill="none"/>
      </g>
    </g>
    <g id="_013-biotechnology" data-name="013-biotechnology" transform="translate(184.002 1720)">
      <g id="Grupo_1130865" data-name="Grupo 1130865" transform="translate(9.241 9.435)">
        <g id="Grupo_1130862" data-name="Grupo 1130862" transform="translate(11.853 0.114)">
          <path id="Trazado_912695" data-name="Trazado 912695" d="M244.671,388.45h4.479v4.667h-4.479Z" transform="translate(-242.121 -365.418)" fill="#a9b0bb" fill-rule="evenodd"/>
          <path id="Trazado_912696" data-name="Trazado 912696" d="M203.943,367.034H212.9a.311.311,0,0,1,.311.311v1.772a.311.311,0,0,1-.311.311h-8.958a.311.311,0,0,1-.311-.311v-1.772A.311.311,0,0,1,203.943,367.034Z" transform="translate(-203.632 -345.332)" fill="#cad0d7" fill-rule="evenodd"/>
          <path id="Trazado_912697" data-name="Trazado 912697" d="M271.677,17.874l1.854,1.07a.311.311,0,0,1,.114.424l-7.273,12.6a.311.311,0,0,1-.424.114l-1.854-1.07a.311.311,0,0,1-.114-.424l7.273-12.6A.311.311,0,0,1,271.677,17.874Z" transform="translate(-260.191 -17.832)" fill="#cad0d7" fill-rule="evenodd"/>
          <path id="Trazado_912698" data-name="Trazado 912698" d="M273.033,55.476l3.342,1.929a.311.311,0,0,1,.114.424L271.8,65.948a.311.311,0,0,1-.424.114l-3.342-1.929a.311.311,0,0,1-.114-.424l4.686-8.117A.311.311,0,0,1,273.033,55.476Z" transform="translate(-263.888 -53.098)" fill="#66d4f1" fill-rule="evenodd"/>
          <path id="Trazado_912699" data-name="Trazado 912699" d="M358.124,159l-1.486-.137-.4,1.482c3.062,6.651,2.582,11.827-1.476,16.391l3.036,1.489,3.547-1.489C365.551,169.96,362.688,163.706,358.124,159Z" transform="translate(-345.368 -150.098)" fill="#4fc0e8" fill-rule="evenodd"/>
          <g id="Grupo_1130861" data-name="Grupo 1130861" transform="translate(0.906 5.324)">
            <circle id="Elipse_12408" data-name="Elipse 12408" cx="2.233" cy="2.233" r="2.233" transform="translate(7.106 1.027) rotate(-13.3)" fill="#38a8d2"/>
            <path id="Trazado_912700" data-name="Trazado 912700" d="M218.529,446.452H235.17a.311.311,0,0,1,.311.311v2.458a.311.311,0,0,1-.311.311H218.529a.311.311,0,0,1-.311-.311v-2.458A.311.311,0,0,1,218.529,446.452Z" transform="translate(-218.218 -425.139)" fill="#38a8d2" fill-rule="evenodd"/>
          </g>
        </g>
        <g id="Grupo_1130863" data-name="Grupo 1130863" transform="translate(0.192)">
          <path id="Trazado_912701" data-name="Trazado 912701" d="M25.465,21.705a1.084,1.084,0,0,0-.766,1.849.322.322,0,0,1,0,.455l-.692.692a.322.322,0,0,1-.455,0,1.084,1.084,0,0,0-1.849.766.321.321,0,0,1-.321.321H20.4a.321.321,0,0,1-.321-.321,1.083,1.083,0,0,0-1.849-.766.322.322,0,0,1-.455,0l-.692-.692a.322.322,0,0,1,0-.455,1.084,1.084,0,0,0-.766-1.849A.321.321,0,0,1,16,21.384v-.979a.321.321,0,0,1,.321-.321,1.084,1.084,0,0,0,.766-1.849.322.322,0,0,1,0-.455l.692-.692a.322.322,0,0,1,.455,0,1.084,1.084,0,0,0,1.849-.766A.321.321,0,0,1,20.4,16h.979a.321.321,0,0,1,.321.321,1.084,1.084,0,0,0,1.849.766.322.322,0,0,1,.455,0l.692.692a.322.322,0,0,1,0,.455,1.084,1.084,0,0,0,.766,1.849.321.321,0,0,1,.321.321v.979A.321.321,0,0,1,25.465,21.705Z" transform="translate(-16 -16.001)" fill="#fdcd56" fill-rule="evenodd"/>
          <circle id="Elipse_12409" data-name="Elipse 12409" cx="2.351" cy="2.351" r="2.351" transform="translate(2.065 6.643) rotate(-76.7)" fill="#f4f6f8"/>
        </g>
        <g id="Grupo_1130864" data-name="Grupo 1130864" transform="translate(0 10.47)">
          <circle id="Elipse_12410" data-name="Elipse 12410" cx="1.292" cy="1.292" r="1.292" transform="translate(5.5 9.74) rotate(-22.514)" fill="#fdcd56"/>
          <circle id="Elipse_12411" data-name="Elipse 12411" cx="1.292" cy="1.292" r="1.292" transform="translate(5.499 4.668) rotate(-22.514)" fill="#c6ea94"/>
          <circle id="Elipse_12412" data-name="Elipse 12412" cx="1.292" cy="1.292" r="1.292" transform="translate(9.906)" fill="#66d4f1"/>
          <circle id="Elipse_12413" data-name="Elipse 12413" cx="1.292" cy="1.292" r="1.292" transform="matrix(0.16, -0.987, 0.987, 0.16, 0, 13.806)" fill="#f76c82"/>
        </g>
      </g>
      <path id="Trazado_912702" data-name="Trazado 912702" d="M32.454,17.568a.657.657,0,1,1-.657-.657A.657.657,0,0,1,32.454,17.568ZM16.422,26.13a.857.857,0,1,1,.857-.857A.858.858,0,0,1,16.422,26.13Zm.857,4.214a.857.857,0,1,1-.857-.857A.858.858,0,0,1,17.279,30.344Zm3.16-10a.857.857,0,1,1-.857.857A.858.858,0,0,1,20.439,20.34ZM10.725,33.5a.857.857,0,1,1,.857-.857A.858.858,0,0,1,10.725,33.5Zm9.714-10.579a1.729,1.729,0,1,0-1.483-.843l-1.672,1.7a1.71,1.71,0,0,0-.862-.232,1.727,1.727,0,0,0-.435,3.4v1.728A1.73,1.73,0,0,0,14.7,30.344a1.752,1.752,0,0,0,.015.223l-2.6,1.05a1.726,1.726,0,1,0,.341,1.03,1.755,1.755,0,0,0-.014-.223l2.6-1.05a1.727,1.727,0,1,0,1.821-2.7V26.944A1.726,1.726,0,0,0,17.9,24.388l1.672-1.7a1.712,1.712,0,0,0,.863.232ZM14.327,12.412a1.916,1.916,0,1,1-1.917,1.916A1.918,1.918,0,0,1,14.327,12.412Zm0,4.7a2.786,2.786,0,1,0-2.787-2.786,2.789,2.789,0,0,0,2.787,2.786ZM9.868,13.949v.759a1.519,1.519,0,0,1,1.037,2.5l.538.537a1.519,1.519,0,0,1,2.5,1.037h.759a1.519,1.519,0,0,1,2.5-1.037l.538-.537a1.519,1.519,0,0,1,1.037-2.5v-.759a1.519,1.519,0,0,1-1.037-2.5l-.538-.537a1.519,1.519,0,0,1-2.5-1.037h-.76a1.519,1.519,0,0,1-2.5,1.037l-.538.537a1.519,1.519,0,0,1-1.037,2.5Zm-.113,1.626A.758.758,0,0,1,9,14.818v-.979a.757.757,0,0,1,.757-.756.649.649,0,0,0,.458-1.106.757.757,0,0,1,0-1.07l.692-.692a.757.757,0,0,1,1.069,0,.649.649,0,0,0,1.106-.458A.757.757,0,0,1,13.837,9h.979a.757.757,0,0,1,.756.757.649.649,0,0,0,1.106.458.758.758,0,0,1,1.07,0l.692.692a.757.757,0,0,1,0,1.07.649.649,0,0,0,.458,1.106.757.757,0,0,1,.757.756v.979a.758.758,0,0,1-.757.757.648.648,0,0,0-.458,1.106.757.757,0,0,1,0,1.07l-.692.692a.758.758,0,0,1-1.07,0,.649.649,0,0,0-1.106.458.757.757,0,0,1-.756.757h-.979a.757.757,0,0,1-.756-.757.648.648,0,0,0-1.106-.458.757.757,0,0,1-1.069,0l-.692-.692a.757.757,0,0,1,0-1.07.648.648,0,0,0-.458-1.106ZM38.828,38.83H22.435V36.621H38.828ZM23.964,34.079H27.8v1.672H23.964Zm-2.434-2.394h8.709v1.524H21.529ZM32.584,20.118a2.679,2.679,0,0,0,1.347-.95c3.661,3.941,6.914,9.883,2.892,16.583h-5.4c3.521-4.412,3.889-9.416,1.163-15.633Zm-3.891,1.955L30.1,19.63a2.667,2.667,0,0,1,2.632-4.559l.519-.9-3.127-1.805-4.562,7.9Zm-1.733,1.283-1.639-.946.554-.959,1.639.946Zm5.51-13.327,1.638.946-1.162,2.013-1.638-.946ZM31.8,19.366a1.8,1.8,0,1,0-1.8-1.8A1.8,1.8,0,0,0,31.8,19.366Zm7.466,16.385H37.83a12.354,12.354,0,0,0,1.341-9.315,18.6,18.6,0,0,0-4.821-8.092,2.665,2.665,0,0,0-.86-2.837l.737-1.277a.435.435,0,0,0-.159-.594l-.367-.212,1.38-2.389a.435.435,0,0,0-.159-.594L32.528,9.059a.435.435,0,0,0-.594.159l-1.38,2.39-.367-.212a.435.435,0,0,0-.594.159l-5,8.655a.435.435,0,0,0,.159.594l.367.212-.771,1.336a.436.436,0,0,0,.159.594L26.9,24.328a.435.435,0,0,0,.594-.159l.772-1.336.368.212a.434.434,0,0,0,.594-.159l1.628-2.82a2.639,2.639,0,0,0,.825.168c2.807,6.253,2.362,11.2-1.395,15.518H28.674V34.079h2a.435.435,0,0,0,.435-.435V31.25a.435.435,0,0,0-.435-.435H21.094a.435.435,0,0,0-.435.435v2.394a.435.435,0,0,0,.435.435h2v1.672H22a.436.436,0,0,0-.435.435v3.08A.435.435,0,0,0,22,39.7H39.263a.435.435,0,0,0,.435-.435v-3.08a.435.435,0,0,0-.435-.435Z" fill-rule="evenodd"/>
    </g>
  </g>
</svg>
