<svg xmlns="http://www.w3.org/2000/svg" width="56" height="56" viewBox="0 0 56 56">
  <g id="Grupo_1131053" data-name="Grupo 1131053" transform="translate(-180 -6039)">
    <g id="Grupo_1106422" data-name="Grupo 1106422" transform="translate(0 1392)">
      <g id="Elipse_12296" data-name="Elipse 12296" transform="translate(180 4647)" fill="#faf8f2" stroke="#d0b57a" stroke-width="2">
        <circle cx="28" cy="28" r="28" stroke="none"/>
        <circle cx="28" cy="28" r="27" fill="none"/>
      </g>
    </g>
    <g id="informe-de-datos" transform="translate(193 6048)">
      <g id="Icon" transform="translate(2.598 4.66)">
        <rect id="Rectángulo_411637" data-name="Rectángulo 411637" width="19" height="27" rx="2" transform="translate(0.402 0.69)" fill="#ffceaf"/>
        <rect id="Rectángulo_411638" data-name="Rectángulo 411638" width="15" height="23" rx="1" transform="translate(2.402 2.69)" fill="#f5f5f5"/>
        <rect id="Rectángulo_411639" data-name="Rectángulo 411639" width="9" height="4" rx="2" transform="translate(5.402 -0.31)" fill="#212121"/>
        <path id="Trazado_913050" data-name="Trazado 913050" d="M15.052,30.067A4.178,4.178,0,0,0,22.862,28h-4.18Z" transform="translate(-8.83 -17.075)" fill="#ff8636"/>
        <path id="Trazado_913051" data-name="Trazado 913051" d="M18.18,20a4.176,4.176,0,0,0-3.63,6.247l3.63-2.067Z" transform="translate(-8.328 -13.255)" fill="#fbc02d"/>
        <path id="Trazado_913052" data-name="Trazado 913052" d="M22,20v4.18h4.18A4.18,4.18,0,0,0,22,20Z" transform="translate(-12.148 -13.255)" fill="#7cb342"/>
        <path id="Trazado_913053" data-name="Trazado 913053" d="M46.675,37.148v-.62a.9.9,0,0,0-.9-.9h-1.03a5.989,5.989,0,0,0-.874-2.126l.724-.724a.9.9,0,0,0,0-1.267l-.438-.438a.9.9,0,0,0-1.267,0l-.718.718a5.993,5.993,0,0,0-2.132-.888V29.9a.9.9,0,0,0-.9-.9h-.62a.9.9,0,0,0-.9.9v1.01a5.993,5.993,0,0,0-2.132.888l-.718-.718a.9.9,0,0,0-1.267,0l-.438.438a.9.9,0,0,0,0,1.267l.724.724a5.99,5.99,0,0,0-.874,2.126H31.9a.9.9,0,0,0-.9.9v.62a.9.9,0,0,0,.9.9h1.039a5.993,5.993,0,0,0,.883,2.108l-.742.742a.9.9,0,0,0,0,1.267l.438.438a.9.9,0,0,0,1.267,0l.748-.748a5.99,5.99,0,0,0,2.1.871v1.058a.9.9,0,0,0,.9.9h.62a.9.9,0,0,0,.9-.9V42.722a5.99,5.99,0,0,0,2.1-.871l.748.748a.9.9,0,0,0,1.267,0l.438-.438a.9.9,0,0,0,0-1.267l-.742-.742a5.993,5.993,0,0,0,.883-2.108h1.039a.9.9,0,0,0,.9-.9Z" transform="translate(-16.445 -17.552)" fill="#1d98c6"/>
        <circle id="Elipse_12453" data-name="Elipse 12453" cx="3.658" cy="3.658" r="3.658" transform="translate(18.735 15.604)" fill="#f5f5f5"/>
      </g>
      <g id="Line" transform="translate(2 2)">
        <path id="Trazado_913054" data-name="Trazado 913054" d="M24.99,19.741a4.18,4.18,0,1,0,4.18,4.18,4.18,4.18,0,0,0-4.18-4.18Zm0,7.315a3.135,3.135,0,1,1,3.135-3.135,3.135,3.135,0,0,1-3.135,3.135Zm6.942-4.84h-.616a6.473,6.473,0,0,0-.628-1.525l.433-.433a1.42,1.42,0,0,0,0-2.006l-.438-.439a1.421,1.421,0,0,0-2.006,0l-.426.425a6.47,6.47,0,0,0-1.533-.639V17A1.42,1.42,0,0,0,25.3,15.585h-.62A1.42,1.42,0,0,0,23.262,17v.6c-.123.034-.241.083-.362.124V6.7a1.569,1.569,0,0,0-1.568-1.568H17.056A1.565,1.565,0,0,0,15.585,4.09H14.54a2.09,2.09,0,0,0-4.18,0H9.315A1.565,1.565,0,0,0,7.844,5.135H3.568A1.569,1.569,0,0,0,2,6.7v25.08A1.569,1.569,0,0,0,3.568,33.35H21.333A1.569,1.569,0,0,0,22.9,31.783V30.118c.121.041.239.09.362.124v.645a1.42,1.42,0,0,0,1.418,1.418h.62a1.42,1.42,0,0,0,1.418-1.418v-.645a6.48,6.48,0,0,0,1.5-.622l.457.457a1.421,1.421,0,0,0,2.006,0l.438-.439a1.42,1.42,0,0,0,0-2.006l-.449-.449a6.482,6.482,0,0,0,.632-1.509h.628a1.42,1.42,0,0,0,1.418-1.418v-.62a1.42,1.42,0,0,0-1.418-1.418ZM21.855,6.7V18.177c-.041.023-.085.039-.126.062l-.426-.425a1.345,1.345,0,0,0-.493-.31V8.27a1.046,1.046,0,0,0-1.045-1.045H17.153V6.18h4.18A.523.523,0,0,1,21.855,6.7Zm-3,13.556.433.433a6.473,6.473,0,0,0-.628,1.525,2.633,2.633,0,0,0-1.258.161H8.793a.523.523,0,0,0,0,1.045h7.859a5.23,5.23,0,0,0,0,1.045H8.793a.523.523,0,0,0,0,1.045h8.614a2.67,2.67,0,0,0,1.27.161,6.482,6.482,0,0,0,.632,1.509l-.449.449a1.421,1.421,0,0,0,0,2.006,6.735,6.735,0,0,0,.611.578H5.135V8.27h3.02a1.558,1.558,0,0,0,1.16.523h6.27a1.558,1.558,0,0,0,1.16-.523h3.02v9.242a2.953,2.953,0,0,0-.906.741A1.42,1.42,0,0,0,18.859,20.258ZM12.45,3.045A1.046,1.046,0,0,1,13.5,4.09h-2.09A1.046,1.046,0,0,1,12.45,3.045ZM8.793,5.658a.523.523,0,0,1,.523-.523h6.27a.523.523,0,0,1,.523.523V7.225a.523.523,0,0,1-.522.523H9.315a.523.523,0,0,1-.523-.523ZM21.855,31.783a.523.523,0,0,1-.523.523H3.568a.523.523,0,0,1-.523-.523V6.7a.523.523,0,0,1,.523-.523h4.18V7.225H5.135A1.046,1.046,0,0,0,4.09,8.27V30.215A1.046,1.046,0,0,0,5.135,31.26h14.63a1.044,1.044,0,0,0,1.027-.869c.358-.093.711-.523.968-.771.031.018.064.029.095.047Zm10.45-7.528a.374.374,0,0,1-.373.373H30.893a.523.523,0,0,0-.512.417,5.451,5.451,0,0,1-.806,1.925.522.522,0,0,0,.065.659l.742.742a.374.374,0,0,1,0,.528l-.438.438a.374.374,0,0,1-.528,0l-.748-.748a.524.524,0,0,0-.657-.067,5.453,5.453,0,0,1-1.92.795.523.523,0,0,0-.418.512v1.058a.374.374,0,0,1-.373.373h-.62a.374.374,0,0,1-.373-.373V29.829a.523.523,0,0,0-.418-.512,5.453,5.453,0,0,1-1.92-.795.523.523,0,0,0-.657.067l-.748.748a.382.382,0,0,1-.528,0L19.6,28.9a.374.374,0,0,1,0-.528l.742-.742a.522.522,0,0,0,.065-.659,5.451,5.451,0,0,1-.806-1.925.523.523,0,0,0-.512-.417H18.048a.374.374,0,0,1-.373-.373v-.62a.374.374,0,0,1,.373-.373h1.031a.522.522,0,0,0,.512-.421,5.446,5.446,0,0,1,.8-1.941.522.522,0,0,0-.067-.657L19.6,19.52a.374.374,0,0,1,0-.528l.439-.439a.382.382,0,0,1,.528,0l.718.718a.523.523,0,0,0,.659.065,5.442,5.442,0,0,1,1.946-.811.523.523,0,0,0,.418-.512V17a.374.374,0,0,1,.373-.373h.62a.374.374,0,0,1,.373.373v1.01a.523.523,0,0,0,.418.512,5.442,5.442,0,0,1,1.946.811.523.523,0,0,0,.659-.065l.718-.718a.373.373,0,0,1,.528,0l.438.439a.374.374,0,0,1,0,.528l-.724.724a.522.522,0,0,0-.067.657,5.446,5.446,0,0,1,.8,1.941.522.522,0,0,0,.512.421h1.031a.374.374,0,0,1,.373.373ZM12.45,10.883a4.7,4.7,0,1,0,4.7,4.7,4.7,4.7,0,0,0-4.7-4.7Zm3.616,4.18H12.973V11.969a3.66,3.66,0,0,1,3.093,3.093Zm-4.138-3.093v3.312L9.048,16.92a3.645,3.645,0,0,1,2.879-4.951Zm.523,7.273a3.65,3.65,0,0,1-2.883-1.415l3.021-1.72h3.477A3.66,3.66,0,0,1,12.45,19.243ZM8.27,27.08a.522.522,0,0,1,.523-.523h8.883a.523.523,0,1,1,0,1.045H8.793A.522.522,0,0,1,8.27,27.08ZM7.748,22.9a.523.523,0,1,1-.523-.523A.523.523,0,0,1,7.748,22.9Zm0,2.09a.523.523,0,1,1-.523-.523A.523.523,0,0,1,7.748,24.99Zm0,2.09a.523.523,0,1,1-.523-.523A.523.523,0,0,1,7.748,27.08Z" transform="translate(-2 -2)"/>
      </g>
    </g>
  </g>
</svg>
