<svg xmlns="http://www.w3.org/2000/svg" width="56" height="56" viewBox="0 0 56 56">
  <g id="Grupo_1130946" data-name="Grupo 1130946" transform="translate(-180 -3639)">
    <g id="Grupo_1106391" data-name="Grupo 1106391" transform="translate(0 -330)">
      <g id="Elipse_12294" data-name="Elipse 12294" transform="translate(180 3969)" fill="#faf8f2" stroke="#d0b57a" stroke-width="2">
        <circle cx="28" cy="28" r="28" stroke="none"/>
        <circle cx="28" cy="28" r="27" fill="none"/>
      </g>
    </g>
    <g id="advertencia" transform="translate(191.999 3651)">
      <path id="Trazado_912839" data-name="Trazado 912839" d="M229.614,21.912A2.06,2.06,0,0,1,227.6,23.5H213.92a2.064,2.064,0,0,1-1.787-3.1l6.842-11.851a2.058,2.058,0,0,1,2.326-.961,2.033,2.033,0,0,1,1.247.961l6.842,11.851a2.034,2.034,0,0,1,.223,1.506Zm0,0" transform="translate(-198.953 -7.065)" fill="#d63030"/>
      <path id="Trazado_912840" data-name="Trazado 912840" d="M271.085,23H258.08a2.063,2.063,0,0,1-1.787-3.1l6.48-11.223a2.033,2.033,0,0,1,1.247.961l6.842,11.851A2.034,2.034,0,0,1,271.085,23Zm0,0" transform="translate(-240.424 -8.152)" fill="#f44545"/>
      <path id="Trazado_912841" data-name="Trazado 912841" d="M333.546,55.973a1.6,1.6,0,0,0-1.591,1.71l.267,3.708a1.321,1.321,0,0,0,2.635,0l.281-3.707a1.6,1.6,0,0,0-1.591-1.716Zm0,0" transform="translate(-311.737 -52.564)" fill="#af2727"/>
      <path id="Trazado_912842" data-name="Trazado 912842" d="M335.734,193.274a1.555,1.555,0,1,1-1.555-1.555A1.555,1.555,0,0,1,335.734,193.274Zm0,0" transform="translate(-312.37 -180.045)" fill="#af2727"/>
      <path id="Trazado_912843" data-name="Trazado 912843" d="M24.105,377.7a1.45,1.45,0,0,1-1.45,1.45H8.231a1.45,1.45,0,0,1-1.45-1.45,6.626,6.626,0,0,1,6.626-6.627h4.072a6.627,6.627,0,0,1,6.626,6.627Zm0,0" transform="translate(-6.367 -348.479)" fill="#d2d2d7"/>
      <path id="Trazado_912844" data-name="Trazado 912844" d="M44.906,377.7a1.45,1.45,0,0,1-1.45,1.45H30.38a1.45,1.45,0,0,1-1.45-1.45,6.626,6.626,0,0,1,6.626-6.627h2.723a6.627,6.627,0,0,1,6.626,6.627Zm0,0" transform="translate(-27.168 -348.479)" fill="#ebebf0"/>
      <path id="Trazado_912845" data-name="Trazado 912845" d="M125.783,310.6l-1.612,2.736-1.612-2.736v-3.913h3.225Zm0,0" transform="translate(-115.095 -288.017)" fill="#f2bb88"/>
      <path id="Trazado_912846" data-name="Trazado 912846" d="M124.428,458.438h-1.62l-.854,2.757h3.356Zm0,0" transform="translate(-114.527 -430.524)" fill="#6990d7"/>
      <path id="Trazado_912847" data-name="Trazado 912847" d="M130.245,422.889h-1.7a.424.424,0,0,1-.423-.423v-1.532a.424.424,0,0,1,.423-.423h1.7a.424.424,0,0,1,.423.423v1.532A.424.424,0,0,1,130.245,422.889Zm0,0" transform="translate(-120.319 -394.906)" fill="#91aee2"/>
      <g id="Grupo_1130945" data-name="Grupo 1130945" transform="translate(2.557 7.085)">
        <path id="Trazado_912848" data-name="Trazado 912848" d="M45.752,235.689a1.884,1.884,0,1,1-1.884-1.884A1.884,1.884,0,0,1,45.752,235.689Zm0,0" transform="translate(-41.984 -226.653)" fill="#f2bb88"/>
        <path id="Trazado_912849" data-name="Trazado 912849" d="M200.687,235.693a1.884,1.884,0,1,1-1.884-1.884A1.884,1.884,0,0,1,200.687,235.693Zm0,0" transform="translate(-187.484 -226.657)" fill="#f2bb88"/>
        <path id="Trazado_912850" data-name="Trazado 912850" d="M76.69,117.969v8.761c0,2.278-2.666,4.193-4.247,4.741a2.442,2.442,0,0,1-.75.157,6.021,6.021,0,0,1-2.963-1.435A4.776,4.776,0,0,1,66.7,126.73v-8.761a1.617,1.617,0,0,1,1.617-1.617h6.761a1.617,1.617,0,0,1,1.617,1.617Zm0,0" transform="translate(-65.191 -116.351)" fill="#f2bb88"/>
      </g>
      <path id="Trazado_912851" data-name="Trazado 912851" d="M99.831,117.969v8.761c0,1.971-2,3.671-3.559,4.448a1.542,1.542,0,0,1-1.374,0,8.451,8.451,0,0,1-1.528-.986,4.776,4.776,0,0,1-2.035-3.464v-8.761a1.617,1.617,0,0,1,1.617-1.617h5.261a1.617,1.617,0,0,1,1.617,1.617Zm0,0" transform="translate(-85.774 -109.267)" fill="#f2d1a5"/>
      <path id="Trazado_912852" data-name="Trazado 912852" d="M82.093,351.9l-1.237,1.29a.393.393,0,0,0-.091.391l1.123,3.537a.654.654,0,0,0,.916.208l2.218-1.436-2.307-3.916A.393.393,0,0,0,82.093,351.9Zm0,0" transform="translate(-75.829 -330.358)" fill="#aec2e9"/>
      <path id="Trazado_912853" data-name="Trazado 912853" d="M150.05,351.9l1.237,1.29a.393.393,0,0,1,.091.391l-1.123,3.537a.654.654,0,0,1-.916.208l-2.217-1.436,2.307-3.916a.393.393,0,0,1,.622-.072Zm0,0" transform="translate(-138.162 -330.358)" fill="#aec2e9"/>
      <path id="Trazado_912854" data-name="Trazado 912854" d="M61.478,99.674v7.108c0,.051-.069.089-.142.079a7.285,7.285,0,0,1-3.537-1.794c-.077-.069-.236-.016-.206.068l.469,1.318c.026.072-.09.127-.179.086a13.012,13.012,0,0,1-4.273-3.873c-.059-.08-.236-.042-.22.047l.229,1.228c.013.069-.1.116-.181.077a6.775,6.775,0,0,1-3.732-5.622v-.509c0-.154.186-.277.415-.277h8.271c1.7,0,3.085.925,3.085,2.066Zm0,0" transform="translate(-46.68 -91.665)" fill="#f29500"/>
      <path id="Trazado_912855" data-name="Trazado 912855" d="M68.111,99.675v4.355c0,.051-.069.089-.142.078a7.291,7.291,0,0,1-3.537-1.794c-.077-.068-.236-.016-.205.068L64.7,103.7c.026.071-.09.126-.179.085a13.012,13.012,0,0,1-4.273-3.872c-.059-.08-.236-.043-.22.047l.229,1.228c.013.068-.1.115-.181.076a6.356,6.356,0,0,1-3.3-3.655h8.255c1.7,0,3.085.925,3.085,2.066Zm0,0" transform="translate(-53.312 -91.666)" fill="#ffa90b"/>
      <path id="Trazado_912856" data-name="Trazado 912856" d="M182.8,254.783a.593.593,0,1,0,.709.581A.593.593,0,0,0,182.8,254.783Zm0,0" transform="translate(-171.221 -239.257)"/>
      <path id="Trazado_912857" data-name="Trazado 912857" d="M98.668,254.781a.593.593,0,1,0,.593.593A.593.593,0,0,0,98.668,254.781Zm0,0" transform="translate(-92.102 -239.267)"/>
      <path id="Trazado_912858" data-name="Trazado 912858" d="M83.889,222.91a3.429,3.429,0,0,0-2.287.235.459.459,0,0,0,.245.846c.249,0,.237-.155.722-.225a3.7,3.7,0,0,1,1.134.042.458.458,0,0,0,.186-.9Zm0,0" transform="translate(-76.431 -209.251)"/>
      <path id="Trazado_912859" data-name="Trazado 912859" d="M130.928,281.6h-1.641a.458.458,0,1,0,0,.917h1.641a1.815,1.815,0,0,1,1.252.553.458.458,0,0,0,.547-.724A2.526,2.526,0,0,0,130.928,281.6Zm0,0" transform="translate(-120.983 -264.455)"/>
      <path id="Trazado_912860" data-name="Trazado 912860" d="M149.9,401.177h0Zm0,0" transform="translate(-140.774 -376.749)"/>
      <path id="Trazado_912861" data-name="Trazado 912861" d="M108.211,360.082Zm0,0" transform="translate(-101.546 -338.03)"/>
      <path id="Trazado_912862" data-name="Trazado 912862" d="M147.509,397.112Zm0,0" transform="translate(-138.487 -372.865)"/>
      <path id="Trazado_912863" data-name="Trazado 912863" d="M30.835,13.112,23.993,1.261a2.522,2.522,0,0,0-4.367,0l-4.3,7.452V8.032c0-1.414-1.555-2.522-3.541-2.522H3.517a.8.8,0,0,0-.872.736A6.789,6.789,0,0,0,3.187,9.1a7.282,7.282,0,0,0,.382.806v4a2.346,2.346,0,0,0,.118,4.42,5.944,5.944,0,0,0,2.184,3.012L4.714,22.545A7.1,7.1,0,0,0,0,29.225a1.912,1.912,0,0,0,1.91,1.91H16.348a1.912,1.912,0,0,0,1.91-1.91,7.1,7.1,0,0,0-4.714-6.681l-1.242-1.3a5.849,5.849,0,0,0,2.056-2.864,2.309,2.309,0,0,0,1.694-1.49h12.6a2.522,2.522,0,0,0,2.183-3.783ZM3.569,17.25a1.426,1.426,0,0,1,0-2.31Zm1.865,5.868a.022.022,0,0,1,.007-.007c0-.008,1.137-1.187,1.143-1.194.749,1.272-1.229-2.087,2.013,3.417a.5.5,0,0,0-.031.09c-1.954,1.266-1.811,1.19-1.9,1.19-.156,0-.151-.1-.157-.109L5.434,23.119h0Zm4.51,4.341a.084.084,0,0,1-.081.069H8.416c-.085-.008-.1-.03-.1-.083v-.765l.817-.529.816.529c0,.681,0,.755,0,.778Zm-.922-3.211-.979-1.661a2.481,2.481,0,0,0,2.177-.079c-.032.179-.579,1.029-1.091,1.922ZM7.14,30.218H4.475V27.826a.458.458,0,1,0-.916,0v2.393H1.911a.994.994,0,0,1-.993-.993,6.183,6.183,0,0,1,3.7-5.656c1.115,3.5,1.051,3.336,1.092,3.41a1.084,1.084,0,0,0,.959.551,1.234,1.234,0,0,0,.73-.257,1.092,1.092,0,0,0,.364.943Zm.959,0,.549-1.774h.993l.568,1.774Zm5.543-6.649a6.183,6.183,0,0,1,3.7,5.656.994.994,0,0,1-.993.993H14.7V27.826a.458.458,0,0,0-.917,0v2.393h-2.61l-.648-2.025a1.1,1.1,0,0,0,.337-.919,1.233,1.233,0,0,0,.73.257,1.085,1.085,0,0,0,.96-.551.436.436,0,0,0,.034-.081Zm-.827-.459s0,0,.007.007h0l-1.088,3.427h0a.011.011,0,0,0,0,0h0v.006a.014.014,0,0,1,0,0,.211.211,0,0,1-.25.021l-.03-.02.02.013L9.691,25.424a.492.492,0,0,0-.031-.09l2.013-3.417c.006.006,1.136,1.185,1.143,1.194Zm-1.338,3.47,0,0ZM13.395,18.4a6.56,6.56,0,0,1-4.359,3.489H9.03a6.56,6.56,0,0,1-4.354-3.46c-.253-.66-.191-.312-.191-7.228a6.717,6.717,0,0,0,2.152,1.59.577.577,0,0,0,.833-.447,11.748,11.748,0,0,0,3.608,2.967.571.571,0,0,0,.832-.526h0a1.167,1.167,0,0,0-.083-.282,7.7,7.7,0,0,0,1.745.9c0,2.044.061,2.354-.18,3Zm1.011-3.711a6.208,6.208,0,0,1-1.908-.84c-.955-.606-.992-.915-1.4-.915a.544.544,0,0,0-.545.712l.144.4a14.265,14.265,0,0,1-3.323-3.3.577.577,0,0,0-1.038.4l.09.48A5.688,5.688,0,0,1,4.486,9.663a6.92,6.92,0,0,1-.924-2.918V6.426h8.22c1.422,0,2.624.735,2.624,1.605Zm.085,2.687V15.639a.669.669,0,0,0,.664-.122A1.428,1.428,0,0,1,14.491,17.371Zm15.55-2.2a1.588,1.588,0,0,1-1.39.8H16.192a2.3,2.3,0,0,0-.869-1.705V10.546l5.1-8.827a1.605,1.605,0,0,1,2.78,0L30.041,13.57a1.588,1.588,0,0,1,0,1.6Zm0,0" transform="translate(0)"/>
      <path id="Trazado_912864" data-name="Trazado 912864" d="M188.017,436.232Zm0,0" transform="translate(-176.566 -409.669)"/>
      <path id="Trazado_912865" data-name="Trazado 912865" d="M326.469,56.006a1.787,1.787,0,0,0,1.774-1.645l.23-3.046a.458.458,0,1,0-.914-.069l-.23,3.046a.863.863,0,0,1-1.721,0c-.282-3.929-.27-3.714-.27-3.792a1.137,1.137,0,0,1,2.038-.693.458.458,0,0,0,.725-.561,2.054,2.054,0,0,0-3.674,1.4l.267,3.708a1.786,1.786,0,0,0,1.775,1.652Zm0,0" transform="translate(-304.666 -45.495)"/>
      <path id="Trazado_912866" data-name="Trazado 912866" d="M327.11,184.191a2.013,2.013,0,1,0,2.013,2.013A2.015,2.015,0,0,0,327.11,184.191Zm0,3.109a1.1,1.1,0,1,1,1.1-1.1A1.1,1.1,0,0,1,327.11,187.3Zm0,0" transform="translate(-305.301 -172.976)"/>
    </g>
  </g>
</svg>
