<svg xmlns="http://www.w3.org/2000/svg" width="56" height="56" viewBox="0 0 56 56">
  <g id="Grupo_1131070" data-name="Grupo 1131070" transform="translate(-180 -766)">
    <g id="Grupo_1131068" data-name="Grupo 1131068">
      <g id="Grupo_1130963" data-name="Grupo 1130963" transform="translate(0 -789)">
        <g id="Elipse_12293" data-name="Elipse 12293" transform="translate(180 1555)" fill="#faf8f2" stroke="#d0b57a" stroke-width="2">
          <circle cx="28" cy="28" r="28" stroke="none"/>
          <circle cx="28" cy="28" r="27" fill="none"/>
        </g>
      </g>
    </g>
    <g id="libro" transform="translate(193 781)">
      <path id="Trazado_913201" data-name="Trazado 913201" d="M7.574,7.574h6.408V32.29H7.574Zm0,0" transform="translate(-7.145 -7.145)" fill="#d2eaf3"/>
      <path id="Trazado_913202" data-name="Trazado 913202" d="M13.124,7.574V30.8a.572.572,0,0,1-.572.572H7.574v.916h6.408V7.574Zm0,0" transform="translate(-7.145 -7.145)" fill="#a5d6e8"/>
      <path id="Trazado_913203" data-name="Trazado 913203" d="M39.891,39.891h2.746V60.945H39.891Zm0,0" transform="translate(-37.631 -37.631)" fill="#ffd664"/>
      <path id="Trazado_913204" data-name="Trazado 913204" d="M41.836,39.891V59.514a.572.572,0,0,1-.572.572H39.891v.858h2.746V39.891Zm0,0" transform="translate(-37.631 -37.631)" fill="#f9c646"/>
      <path id="Trazado_913205" data-name="Trazado 913205" d="M120.68,118.66h5.263v18.422H120.68Zm0,0" transform="translate(-113.843 -111.938)" fill="#ff6969"/>
      <path id="Trazado_913206" data-name="Trazado 913206" d="M125.028,118.66v16.935a.572.572,0,0,1-.572.572H120.68v.916h5.263V118.66Zm0,0" transform="translate(-113.843 -111.938)" fill="#ea4747"/>
      <path id="Trazado_913207" data-name="Trazado 913207" d="M120.68,363.047h5.263v2.059H120.68Zm0,0" transform="translate(-113.843 -342.479)" fill="#ffd664"/>
      <path id="Trazado_913208" data-name="Trazado 913208" d="M197.43,363.047h.915v2.059h-.915Zm0,0" transform="translate(-186.245 -342.479)" fill="#f9c646"/>
      <path id="Trazado_913209" data-name="Trazado 913209" d="M120.68,163.094h5.263v2.06H120.68Zm0,0" transform="translate(-113.843 -153.854)" fill="#ffd664"/>
      <path id="Trazado_913210" data-name="Trazado 913210" d="M197.43,163.094h.915v2.06h-.915Zm0,0" transform="translate(-186.245 -153.854)" fill="#f9c646"/>
      <path id="Trazado_913211" data-name="Trazado 913211" d="M245.256,367.809a1.373,1.373,0,0,1,0-2.746H257.5v2.746H245.256Zm0,0" transform="translate(-230.066 -344.38)" fill="#ddf5ff"/>
      <path id="Trazado_913212" data-name="Trazado 913212" d="M257.892,365.066v1.259a.572.572,0,0,1-.572.572h-12.05a1.375,1.375,0,0,0,1.294.915h12.243v-2.746Zm0,0" transform="translate(-231.374 -344.384)" fill="#c1e9f4"/>
      <path id="Trazado_913213" data-name="Trazado 913213" d="M216.675,339.232a1.373,1.373,0,0,1,0-2.746h13.388v-1.716H216.675a3.089,3.089,0,0,0,0,6.179h13.388v-1.716Zm0,0" transform="translate(-201.485 -315.804)" fill="#7ae57d"/>
      <path id="Trazado_913214" data-name="Trazado 913214" d="M485.238,334.77h1.087v1.716h-1.087Zm0,0" transform="translate(-457.748 -315.804)" fill="#66d166"/>
      <path id="Trazado_913215" data-name="Trazado 913215" d="M485.238,413.539h1.087v1.716h-1.087Zm0,0" transform="translate(-457.748 -390.111)" fill="#66d166"/>
      <path id="Trazado_913216" data-name="Trazado 913216" d="M268.117,389.3v2.975l1.373-.572,1.316.572V389.3Zm0,0" transform="translate(-252.927 -367.246)" fill="#ffd664"/>
      <path id="Trazado_913217" data-name="Trazado 913217" d="M263.893,162.809a.391.391,0,0,0-.592,0,1.43,1.43,0,0,1-1.1.481c-2.207,0-4.336-3.3-4.336-6.93a3.161,3.161,0,0,1,3.252-3.368,3.125,3.125,0,0,1,1.953.756.776.776,0,0,0,1.05,0,3.126,3.126,0,0,1,1.953-.756,3.161,3.161,0,0,1,3.252,3.368c0,3.626-2.129,6.93-4.336,6.93A1.431,1.431,0,0,1,263.893,162.809Zm0,0" transform="translate(-243.258 -144.325)" fill="#ff6969"/>
      <path id="Trazado_913218" data-name="Trazado 913218" d="M371.534,152.992a3.072,3.072,0,0,0-.79.123,3.222,3.222,0,0,1,2.261,3.245c0,3.077-1.533,5.921-3.345,6.712a1.488,1.488,0,0,0,.79.218c2.207,0,4.336-3.3,4.336-6.93a3.161,3.161,0,0,0-3.252-3.368Zm0,0" transform="translate(-348.718 -144.324)" fill="#ea4747"/>
      <path id="Trazado_913219" data-name="Trazado 913219" d="M35.492,54.229a.429.429,0,0,0,.429-.429V32.746a.429.429,0,0,0-.429-.429H32.745a.429.429,0,0,0-.429.429V53.8a.429.429,0,0,0,.429.429ZM33.175,33.175h1.888v20.2H33.175Zm0,0" transform="translate(-30.486 -30.486)"/>
      <path id="Trazado_913220" data-name="Trazado 913220" d="M28.577,21.111a.429.429,0,0,0,.429-.429V18.966a.429.429,0,0,0-.429-.429h-4.72a8.733,8.733,0,0,0,2.641-6.5,4.161,4.161,0,0,0-.783-2.455,3.433,3.433,0,0,0-2.894-1.342h-.008A3.575,3.575,0,0,0,20.692,9a5.841,5.841,0,0,1,.263-2.424.429.429,0,0,0-.808-.289,6.57,6.57,0,0,0-.327,2.586,3.612,3.612,0,0,0-1.959-.639,3.436,3.436,0,0,0-2.9,1.342,4.161,4.161,0,0,0-.783,2.455,8.733,8.733,0,0,0,2.641,6.5H15.19a3.511,3.511,0,0,0-2.661,1.22V14.582a.429.429,0,1,0-.858,0v5.557H7.266v-8.41h4.405V12.6a.429.429,0,1,0,.858,0V6.722a.429.429,0,0,0-.429-.429H7.266V.429A.429.429,0,0,0,6.837,0H.429A.429.429,0,0,0,0,.429V2.291a.429.429,0,0,0,.858,0V.858h5.55V24.716H.858V4.3A.429.429,0,0,0,0,4.3V25.145a.429.429,0,0,0,.429.429H12.1a.429.429,0,0,0,.429-.429v-.788c.055.064.112.126.172.186a3.493,3.493,0,0,0,2.488,1.031h6.095a.429.429,0,1,0,0-.858H18.308v-.858h9.84v.858H23.291a.429.429,0,1,0,0,.858h5.287a.429.429,0,0,0,.429-.429V23.428A.429.429,0,0,0,28.577,23h-.715V21.111Zm-12.265-4.48a8.818,8.818,0,0,1-1.274-4.6A2.772,2.772,0,0,1,17.865,9.1a2.678,2.678,0,0,1,1.66.643,1.2,1.2,0,0,0,1.63,0A2.679,2.679,0,0,1,22.817,9.1a2.771,2.771,0,0,1,2.823,2.939,8.818,8.818,0,0,1-1.274,4.6,3.451,3.451,0,0,1-2.633,1.905,1,1,0,0,1-.775-.334.82.82,0,0,0-1.238,0,1,1,0,0,1-.775.334,3.45,3.45,0,0,1-2.633-1.905ZM11.671,21v1.2H7.266V21ZM7.266,10.87v-1.2h4.405v1.2Zm4.405-3.719V8.811H7.266V7.152ZM7.266,24.716V23.056h4.405v1.659Zm5.263-2.661a2.663,2.663,0,0,1,2.66-2.66H28.148v.858H15.19a1.8,1.8,0,0,0-.429,3.552v.875a2.661,2.661,0,0,1-2.231-2.626Zm4.92,2.321-.716-.311a.429.429,0,0,0-.336,0l-.779.324v-1.9H17.45ZM27,23h-8.7v-.944a.429.429,0,0,0-.429-.429H15.19a.429.429,0,0,0-.429.429v.84a.943.943,0,0,1,.429-1.784H27V23Zm0,0" transform="translate(0)"/>
    </g>
  </g>
</svg>
