<svg xmlns="http://www.w3.org/2000/svg" width="56" height="56" viewBox="0 0 56 56">
  <g id="Grupo_1130868" data-name="Grupo 1130868" transform="translate(-180 -2599)">
    <g id="Grupo_1130809" data-name="Grupo 1130809" transform="translate(0 -428)">
      <g id="Elipse_12227" data-name="Elipse 12227" transform="translate(180 3027)" fill="#faf8f2" stroke="#d0b57a" stroke-width="2">
        <circle cx="28" cy="28" r="28" stroke="none"/>
        <circle cx="28" cy="28" r="27" fill="none"/>
      </g>
    </g>
    <g id="Icons" transform="translate(190.143 2600.966)">
      <g id="Grupo_1130867" data-name="Grupo 1130867" transform="translate(2.857 12.034)">
        <path id="Trazado_912703" data-name="Trazado 912703" d="M186.21,34.336V55.3a3.273,3.273,0,0,0,6.546,0V34.336Z" transform="translate(-164.758 -31.727)" fill="#efefef"/>
        <path id="Trazado_912704" data-name="Trazado 912704" d="M186.208,34.341h6.546v1.334h-6.546Z" transform="translate(-164.756 -31.731)" fill="#afafaf"/>
        <path id="Trazado_912705" data-name="Trazado 912705" d="M192.757,65.45V82.77a3.273,3.273,0,1,1-6.545,0V65.45Z" transform="translate(-164.76 -59.2)" fill="#fc5d3d"/>
        <path id="Trazado_912706" data-name="Trazado 912706" d="M177.723,16.826V15.075a.54.54,0,0,1,.54-.54h7.451a.54.54,0,0,1,.54.54v1.751a.54.54,0,0,1-.54.54h-7.451A.54.54,0,0,1,177.723,16.826Z" transform="translate(-157.264 -14.242)" fill="#afafaf"/>
        <path id="Trazado_912707" data-name="Trazado 912707" d="M13.843,34.336V55.3a3.273,3.273,0,0,0,6.546,0V34.336Z" transform="translate(-12.558 -31.727)" fill="#efefef"/>
        <path id="Trazado_912708" data-name="Trazado 912708" d="M20.387,34.341V55.3a3.273,3.273,0,1,1-6.546,0V34.341Z" transform="translate(-12.556 -31.731)" fill="#efefef"/>
        <path id="Trazado_912709" data-name="Trazado 912709" d="M13.841,34.341h6.546v1.334H13.841Z" transform="translate(-12.556 -31.731)" fill="#afafaf"/>
        <path id="Trazado_912710" data-name="Trazado 912710" d="M20.391,65.45V82.77a3.273,3.273,0,1,1-6.545,0V65.45Z" transform="translate(-12.56 -59.2)" fill="#72c2e9"/>
        <path id="Trazado_912711" data-name="Trazado 912711" d="M5.357,16.826V15.075a.54.54,0,0,1,.54-.54h7.451a.54.54,0,0,1,.54.54v1.751a.54.54,0,0,1-.54.54H5.9a.54.54,0,0,1-.54-.54Z" transform="translate(-5.065 -14.242)" fill="#afafaf"/>
        <path id="Trazado_912712" data-name="Trazado 912712" d="M199.471,98.727l1.174,1.174a.823.823,0,1,0,1.163-1.163l-1.174-1.174a.823.823,0,0,0-1.163,1.163Z" transform="translate(-176.255 -87.344)" fill="#f0c020"/>
        <path id="Trazado_912713" data-name="Trazado 912713" d="M100.027,34.336V55.3a3.273,3.273,0,0,0,6.546,0V34.336Z" transform="translate(-88.658 -31.727)" fill="#efefef"/>
        <path id="Trazado_912714" data-name="Trazado 912714" d="M100.025,34.341h6.546v1.334h-6.546Z" transform="translate(-88.657 -31.731)" fill="#afafaf"/>
        <path id="Trazado_912715" data-name="Trazado 912715" d="M106.574,65.45V82.77a3.273,3.273,0,1,1-6.545,0V65.45Z" transform="translate(-88.66 -59.2)" fill="#f0c020"/>
        <path id="Trazado_912716" data-name="Trazado 912716" d="M91.54,16.826V15.075a.54.54,0,0,1,.54-.54h7.451a.54.54,0,0,1,.54.54v1.751a.54.54,0,0,1-.54.54H92.08A.54.54,0,0,1,91.54,16.826Z" transform="translate(-81.164 -14.242)" fill="#afafaf"/>
        <path id="Trazado_912717" data-name="Trazado 912717" d="M126.99,139.237v1.211a.823.823,0,1,0,1.645,0v-1.211a.823.823,0,1,0-1.645,0Z" transform="translate(-112.467 -123.628)" fill="#72c2e9"/>
        <path id="Trazado_912718" data-name="Trazado 912718" d="M35.821,182.028l.856.856a.823.823,0,0,0,1.163-1.163l-.856-.856a.823.823,0,0,0-1.163,1.163Z" transform="translate(-31.752 -160.899)" fill="#f0c020"/>
        <path id="Trazado_912719" data-name="Trazado 912719" d="M33.944,101.1l-1.174,1.174a.823.823,0,0,0,1.163,1.163l1.174-1.174a.823.823,0,0,0-1.163-1.163Z" transform="translate(-29.057 -90.463)" fill="#f0c020"/>
        <path id="Trazado_912720" data-name="Trazado 912720" d="M114.189,83.214a.848.848,0,1,0,.848.848A.848.848,0,0,0,114.189,83.214Z" transform="translate(-100.415 -74.886)" fill="#fc5d3d"/>
        <circle id="Elipse_12414" data-name="Elipse 12414" cx="0.996" cy="0.996" r="0.996" transform="translate(24.156 17.863)" fill="#72c2e9"/>
        <path id="Trazado_912721" data-name="Trazado 912721" d="M195.431,180.588a2.5,2.5,0,0,1-.4-.031.292.292,0,1,1,.093-.578,1.925,1.925,0,0,0,.3.024.292.292,0,1,1,0,.585Zm-1.588-.575a2.48,2.48,0,0,1-.9-1.91v-4.4a.292.292,0,1,1,.585,0v4.4a1.9,1.9,0,0,0,.686,1.461.293.293,0,0,1-.374.45Z" transform="translate(-170.706 -154.533)" fill="#ffcbc3"/>
        <path id="Trazado_912722" data-name="Trazado 912722" d="M23.064,180.588a2.5,2.5,0,0,1-.4-.031.292.292,0,1,1,.093-.578,1.925,1.925,0,0,0,.3.024.292.292,0,1,1,0,.585Zm-1.588-.575a2.48,2.48,0,0,1-.9-1.911v-4.4a.292.292,0,1,1,.585,0v4.4a1.9,1.9,0,0,0,.686,1.461.293.293,0,0,1-.374.45Z" transform="translate(-18.506 -154.533)" fill="#c5e5fe"/>
        <path id="Trazado_912723" data-name="Trazado 912723" d="M109.247,180.589a2.488,2.488,0,0,1-2.485-2.485v-2.875a.292.292,0,1,1,.585,0V178.1a1.9,1.9,0,0,0,1.9,1.9.292.292,0,0,1,0,.585Zm-2.193-6.238a.292.292,0,0,1-.292-.293v-.351a.292.292,0,1,1,.585,0v.351A.293.293,0,0,1,107.054,174.351Z" transform="translate(-94.605 -154.534)" fill="#f8e5b0"/>
        <circle id="Elipse_12415" data-name="Elipse 12415" cx="0.292" cy="0.292" r="0.292" transform="translate(21.159 11.578)"/>
        <path id="Trazado_912724" data-name="Trazado 912724" d="M175.223,12.867v1.751a.834.834,0,0,0,.833.833h.16v7.284a.292.292,0,0,0,.585,0V18.576h5.96V35.6a2.98,2.98,0,1,1-5.96,0V25.074a.292.292,0,0,0-.585,0V35.6a3.565,3.565,0,1,0,7.13,0V15.451h.161a.833.833,0,0,0,.833-.833V12.867a.834.834,0,0,0-.833-.833h-7.451A.834.834,0,0,0,175.223,12.867Zm7.538,5.124H176.8v-2.54h5.96v2.54Zm.993-5.124v1.751a.248.248,0,0,1-.248.248h-7.451a.248.248,0,0,1-.248-.248V12.867a.248.248,0,0,1,.248-.248h7.451A.248.248,0,0,1,183.754,12.867Z" transform="translate(-155.057 -12.034)"/>
        <path id="Trazado_912725" data-name="Trazado 912725" d="M11.641,111.576a.292.292,0,1,0-.291-.293A.293.293,0,0,0,11.641,111.576Z" transform="translate(-10.356 -99.413)"/>
        <path id="Trazado_912726" data-name="Trazado 912726" d="M3.851,35.6a3.565,3.565,0,1,0,7.13.006V15.451h.161a.833.833,0,0,0,.833-.833V12.867a.834.834,0,0,0-.833-.833H3.69a.833.833,0,0,0-.833.833v1.751a.834.834,0,0,0,.833.833h.161v7.284a.292.292,0,1,0,.584,0V18.576H10.4V35.6A2.98,2.98,0,1,1,4.434,35.6V25.074a.292.292,0,1,0-.584,0Zm-.409-20.98V12.867a.248.248,0,0,1,.248-.248h7.451a.248.248,0,0,1,.248.248v1.751a.248.248,0,0,1-.248.248H3.69a.248.248,0,0,1-.248-.248Zm.992,3.373v-2.54H10.4v2.54Z" transform="translate(-2.857 -12.034)"/>
        <path id="Trazado_912727" data-name="Trazado 912727" d="M25.157,138.162a.257.257,0,0,1,0,.364.292.292,0,1,0,.414.414.842.842,0,0,0,0-1.191.258.258,0,0,1,0-.364.292.292,0,1,0-.414-.414A.843.843,0,0,0,25.157,138.162Z" transform="translate(-22.33 -122.278)"/>
        <path id="Trazado_912728" data-name="Trazado 912728" d="M224.869,78.419a.292.292,0,0,0-.292.292v.537a.292.292,0,1,0,.585,0v-.537A.293.293,0,0,0,224.869,78.419Z" transform="translate(-198.636 -70.652)"/>
        <path id="Trazado_912729" data-name="Trazado 912729" d="M201.394,141.529v.537a.292.292,0,1,0,.585,0v-.537a.292.292,0,1,0-.585,0Z" transform="translate(-178.166 -126.12)"/>
        <path id="Trazado_912730" data-name="Trazado 912730" d="M225.517,200.4a.292.292,0,0,0,.293-.292v-.537a.293.293,0,1,0-.585,0v.537A.292.292,0,0,0,225.517,200.4Z" transform="translate(-199.208 -177.372)"/>
        <path id="Trazado_912731" data-name="Trazado 912731" d="M198.637,95.153a1.115,1.115,0,1,0-1.577,1.577l1.174,1.174a1.114,1.114,0,0,0,1.374.16.951.951,0,0,1,.342,1.01.293.293,0,0,0,.559.171,1.529,1.529,0,0,0-.5-1.609,1.117,1.117,0,0,0-.2-1.309Zm.011,2.338-1.174-1.174a.53.53,0,1,1,.75-.75l1.174,1.174a.53.53,0,0,1-.75.75Z" transform="translate(-174.051 -85.14)"/>
        <path id="Trazado_912732" data-name="Trazado 912732" d="M144.7,231.53a.292.292,0,1,0,.413.014A.3.3,0,0,0,144.7,231.53Z" transform="translate(-128.023 -205.783)"/>
        <path id="Trazado_912733" data-name="Trazado 912733" d="M98.157,14.618V12.867a.834.834,0,0,0-.833-.833H89.874a.833.833,0,0,0-.833.833v1.751a.834.834,0,0,0,.833.833h.161V35.6a.021.021,0,0,0,0,0A3.568,3.568,0,0,0,94.97,38.9a.292.292,0,0,0,.157-.383.3.3,0,0,0-.383-.157A2.981,2.981,0,0,1,90.619,35.6V18.576h5.96V35.6a2.961,2.961,0,0,1-.311,1.329.293.293,0,0,0,.524.261,3.539,3.539,0,0,0,.372-1.589V15.451h.161a.834.834,0,0,0,.832-.833Zm-1.578,3.373h-5.96v-2.54h5.96Zm.993-3.373a.248.248,0,0,1-.248.248H89.874a.248.248,0,0,1-.248-.248V12.867a.248.248,0,0,1,.248-.248h7.451a.248.248,0,0,1,.248.248v1.751Z" transform="translate(-78.958 -12.034)"/>
        <path id="Trazado_912734" data-name="Trazado 912734" d="M126.72,137.029a1.115,1.115,0,1,0-2.23,0v1.211a1.115,1.115,0,1,0,2.23,0Zm-.585,1.211a.53.53,0,1,1-1.06,0v-1.211a.53.53,0,1,1,1.06,0Z" transform="translate(-110.259 -121.42)"/>
        <path id="Trazado_912735" data-name="Trazado 912735" d="M122.828,194.915a.292.292,0,0,0,.414,0,.843.843,0,0,0,0-1.191.257.257,0,0,1,0-.364.292.292,0,0,0-.414-.414.842.842,0,0,0,0,1.191.258.258,0,0,1,0,.364A.292.292,0,0,0,122.828,194.915Z" transform="translate(-108.574 -171.704)"/>
        <path id="Trazado_912736" data-name="Trazado 912736" d="M116.425,125.449a.292.292,0,0,0-.292.292v.537a.292.292,0,1,0,.585,0v-.537A.292.292,0,0,0,116.425,125.449Z" transform="translate(-102.88 -112.18)"/>
        <path id="Trazado_912737" data-name="Trazado 912737" d="M132.107,110.626v-.537a.292.292,0,1,0-.585,0v.537a.292.292,0,1,0,.585,0Z" transform="translate(-116.469 -98.359)"/>
        <path id="Trazado_912738" data-name="Trazado 912738" d="M136.411,174.648a.292.292,0,0,0-.293.292v.537a.292.292,0,0,0,.585,0v-.537A.292.292,0,0,0,136.411,174.648Z" transform="translate(-120.527 -155.623)"/>
        <path id="Trazado_912739" data-name="Trazado 912739" d="M33.411,178.454a1.116,1.116,0,0,0,0,1.577l.856.856a1.115,1.115,0,0,0,1.577-1.577l-.856-.856A1.116,1.116,0,0,0,33.411,178.454Zm2.02,1.27a.53.53,0,1,1-.75.75l-.856-.856a.53.53,0,0,1,.75-.75Z" transform="translate(-29.549 -158.695)"/>
        <path id="Trazado_912740" data-name="Trazado 912740" d="M27.66,97.131l-.245-.079a.292.292,0,0,0-.181.556l.168.054a1.113,1.113,0,0,0,1.3,1.3l.054.168a.292.292,0,1,0,.556-.18l-.079-.245c.018-.016.037-.032.055-.049l.425-.425.2.2a.292.292,0,0,0,.414-.414l-.2-.2.336-.336a1.109,1.109,0,0,0,.124-.149l.148.048a.292.292,0,0,0,.181-.556l-.131-.042a1.112,1.112,0,0,0-1.2-1.2l-.055-.171a.292.292,0,1,0-.556.18l.061.188a1.123,1.123,0,0,0-.149.124l-.336.336-.2-.2a.292.292,0,0,0-.414.414l.2.2-.425.425C27.692,97.094,27.676,97.112,27.66,97.131Zm1.637-.815a.53.53,0,1,1,.75.75l-1.174,1.174a.53.53,0,1,1-.75-.75Z" transform="translate(-24.204 -85.476)"/>
        <path id="Trazado_912741" data-name="Trazado 912741" d="M34.59,80.011v-.537a.292.292,0,0,0-.585,0v.537a.292.292,0,1,0,.585,0Z" transform="translate(-30.361 -71.326)"/>
        <path id="Trazado_912742" data-name="Trazado 912742" d="M49.466,156.864a.292.292,0,0,0,.292-.292v-.537a.292.292,0,1,0-.585,0v.537A.293.293,0,0,0,49.466,156.864Z" transform="translate(-43.755 -138.929)"/>
        <path id="Trazado_912743" data-name="Trazado 912743" d="M113.122,81.853a1.14,1.14,0,1,0-1.14,1.14A1.142,1.142,0,0,0,113.122,81.853Zm-1.14.555a.555.555,0,1,1,.555-.555A.556.556,0,0,1,111.981,82.409Z" transform="translate(-98.207 -72.678)"/>
        <path id="Trazado_912744" data-name="Trazado 912744" d="M209.4,163.5a1.288,1.288,0,1,0-1.288,1.288A1.29,1.29,0,0,0,209.4,163.5Zm-1.288.7a.7.7,0,1,1,.7-.7A.7.7,0,0,1,208.113,164.207Z" transform="translate(-182.961 -144.645)"/>
      </g>
    </g>
  </g>
</svg>
