<svg id="Grupo_1130726" data-name="Grupo 1130726" xmlns="http://www.w3.org/2000/svg" xmlns:xlink="http://www.w3.org/1999/xlink" width="67.997" height="63.294" viewBox="0 0 67.997 63.294">
  <defs>
    <clipPath id="clip-path">
      <rect id="Rectángulo_411504" data-name="Rectángulo 411504" width="67.997" height="63.293" fill="none"/>
    </clipPath>
    <clipPath id="clip-path-3">
      <rect id="Rectángulo_411500" data-name="Rectángulo 411500" width="57.678" height="58.055" fill="none"/>
    </clipPath>
    <clipPath id="clip-path-4">
      <rect id="Rectángulo_411501" data-name="Rectángulo 411501" width="44.066" height="59.835" fill="none"/>
    </clipPath>
    <clipPath id="clip-path-5">
      <rect id="Rectángulo_411502" data-name="Rectángulo 411502" width="39.3" height="56.433" fill="none"/>
    </clipPath>
  </defs>
  <g id="Grupo_1130721" data-name="Grupo 1130721" clip-path="url(#clip-path)">
    <g id="Grupo_1130720" data-name="Grupo 1130720">
      <g id="Grupo_1130719" data-name="Grupo 1130719" clip-path="url(#clip-path)">
        <path id="Trazado_912307" data-name="Trazado 912307" d="M16.272,37.649c9.644-5.03,26.889-12.847,43.321-4.033S65.12,59.459,54.364,59.16s-24.8-2.988-32.864,4.034S4.62,69.766,1.184,66.33,1.5,45.352,16.272,37.649" transform="translate(0 -16.49)" fill="#314cec"/>
        <path id="Trazado_912308" data-name="Trazado 912308" d="M47.089,110.78s9.561-6.274,18.075-4.033,10.158,11.054-.9,10.158-12.1,5.229-17.328,5.527-5.975-7.618.149-11.652" transform="translate(-23.797 -59.147)" fill="#314cec"/>
        <path id="Trazado_912309" data-name="Trazado 912309" d="M46.27,6.67s-4.183,9.859-14.042,9.411-3.436-6.573,1.344-7.917S38.8-.949,43.432.1,46.27,6.67,46.27,6.67" transform="translate(-15.061 0)" fill="#314cec"/>
        <path id="Trazado_912310" data-name="Trazado 912310" d="M62.595,45.022s-14.64-9.262-36,.3S7.622,69.82,8.817,71.014s8.814,1.046,16.133-4.78S42.13,60.259,54.528,61.3s16.133-10.9,8.067-16.283" transform="translate(-4.497 -22.817)" fill="#113dc9"/>
        <path id="Trazado_912311" data-name="Trazado 912311" d="M70.942,113.081s-4.17-3.438-13.021-.732S47.459,120.1,48.629,122.3s6.877-4.17,11.193-4.462,11.245,1.269,12.363-1.171c.8-1.755-1.244-3.584-1.244-3.584" transform="translate(-26.88 -61.956)" fill="#113dc9"/>
        <path id="Trazado_912312" data-name="Trazado 912312" d="M47.179,10.457a12.578,12.578,0,0,1-8.013,6.712c-5.891,1.575-8.767-.411-5.137-2.329s7.534-3.972,9.041-7.054,5.959-2.192,4.109,2.671" transform="translate(-18.047 -3.336)" fill="#113dc9"/>
        <g id="Grupo_1130712" data-name="Grupo 1130712" transform="translate(4.392 2.577)" opacity="0.8" style="mix-blend-mode: color-dodge;isolation: isolate">
          <g id="Grupo_1130711" data-name="Grupo 1130711">
            <g id="Grupo_1130710" data-name="Grupo 1130710" clip-path="url(#clip-path-3)">
              <path id="Trazado_912313" data-name="Trazado 912313" d="M52.421,50.962a.961.961,0,0,0,.935-.935l-.033-.249a.936.936,0,0,0-.24-.413l-.189-.146a.93.93,0,0,0-.472-.128.96.96,0,0,0-.935.936l.033.248a.933.933,0,0,0,.24.413l.189.146a.93.93,0,0,0,.472.128" transform="translate(-33.049 -29.902)" fill="#0fbc7e"/>
              <path id="Trazado_912314" data-name="Trazado 912314" d="M74.862,58.383a1.773,1.773,0,0,0,1.725-1.725q-.031-.229-.062-.458a1.727,1.727,0,0,0-.444-.761l-.349-.27a1.717,1.717,0,0,0-.871-.235,1.772,1.772,0,0,0-1.725,1.725q.031.229.062.459a1.723,1.723,0,0,0,.444.761l.349.27a1.717,1.717,0,0,0,.871.235" transform="translate(-45.099 -33.153)" fill="#0fbc7e"/>
              <path id="Trazado_912315" data-name="Trazado 912315" d="M83.592,81.586a1.559,1.559,0,0,0,1.517-1.517q-.027-.2-.054-.4a1.52,1.52,0,0,0-.39-.67l-.307-.237a1.513,1.513,0,0,0-.766-.207,1.56,1.56,0,0,0-1.517,1.517c.018.134.036.269.054.4a1.52,1.52,0,0,0,.39.67l.307.237a1.513,1.513,0,0,0,.766.207" transform="translate(-50.074 -46.299)" fill="#0fbc7e"/>
              <path id="Trazado_912316" data-name="Trazado 912316" d="M104.223,69.112a1.773,1.773,0,0,0,1.725-1.725q-.031-.229-.062-.458a1.727,1.727,0,0,0-.444-.761l-.349-.27a1.717,1.717,0,0,0-.871-.235,1.772,1.772,0,0,0-1.725,1.725q.031.229.062.459a1.723,1.723,0,0,0,.444.761l.349.27a1.717,1.717,0,0,0,.871.235" transform="translate(-61.442 -39.124)" fill="#0fbc7e"/>
              <path id="Trazado_912317" data-name="Trazado 912317" d="M109.09,52.358a1.026,1.026,0,0,0,1-1c-.012-.088-.024-.177-.035-.265a1,1,0,0,0-.257-.44l-.2-.156a1,1,0,0,0-.5-.136,1.026,1.026,0,0,0-1,1c.012.088.024.177.035.265a1,1,0,0,0,.257.44l.2.156a1,1,0,0,0,.5.136" transform="translate(-64.556 -30.609)" fill="#0fbc7e"/>
              <path id="Trazado_912318" data-name="Trazado 912318" d="M130.544,49.467a1.269,1.269,0,0,0,0-2.536,1.269,1.269,0,0,0,0,2.536" transform="translate(-76.371 -28.699)" fill="#0fbc7e"/>
              <path id="Trazado_912319" data-name="Trazado 912319" d="M137.172,66.214a2.073,2.073,0,0,0,2.016-2.016q-.036-.268-.072-.536a2.011,2.011,0,0,0-.518-.889l-.408-.315a2.01,2.01,0,0,0-1.018-.275,2.073,2.073,0,0,0-2.016,2.016q.036.268.072.536a2.011,2.011,0,0,0,.518.889l.408.315a2.005,2.005,0,0,0,1.018.275" transform="translate(-79.619 -37.187)" fill="#0fbc7e"/>
              <path id="Trazado_912320" data-name="Trazado 912320" d="M130.149,84.97a1.581,1.581,0,0,0,1.538-1.538l-.055-.409a1.537,1.537,0,0,0-.4-.679l-.311-.24a1.526,1.526,0,0,0-.776-.21,1.581,1.581,0,0,0-1.538,1.538q.028.2.055.409a1.537,1.537,0,0,0,.4.679l.311.24a1.531,1.531,0,0,0,.776.21" transform="translate(-75.976 -48.159)" fill="#0fbc7e"/>
              <path id="Trazado_912321" data-name="Trazado 912321" d="M104.181,85.593a1.345,1.345,0,0,0,1.309-1.309c-.016-.116-.031-.232-.046-.348a1.316,1.316,0,0,0-.337-.578l-.265-.2a1.3,1.3,0,0,0-.661-.179,1.345,1.345,0,0,0-1.31,1.309l.047.348a1.311,1.311,0,0,0,.337.578l.265.2a1.3,1.3,0,0,0,.661.179" transform="translate(-61.65 -48.761)" fill="#0fbc7e"/>
              <path id="Trazado_912322" data-name="Trazado 912322" d="M84.909,38.769a1.1,1.1,0,0,0,1.045-.7.855.855,0,0,0,.1-.44c-.014-.1-.027-.2-.041-.3a1.139,1.139,0,0,0-.294-.5l-.231-.179a1.137,1.137,0,0,0-.577-.156,1.175,1.175,0,0,0-1.143,1.143c.014.1.027.2.041.3a1.139,1.139,0,0,0,.294.5l.231.179a1.137,1.137,0,0,0,.577.156" transform="translate(-51.016 -22.884)" fill="#0fbc7e"/>
              <path id="Trazado_912323" data-name="Trazado 912323" d="M122.266,67.679a1.809,1.809,0,0,0,0-3.616,1.809,1.809,0,0,0,0,3.616" transform="translate(-71.473 -38.235)" fill="#0fbc7e"/>
              <path id="Trazado_912324" data-name="Trazado 912324" d="M113.689,37.469a.728.728,0,0,0,.707-.707l-.025-.188a.711.711,0,0,0-.182-.312l-.143-.11a.7.7,0,0,0-.356-.1.533.533,0,0,0-.272.061.633.633,0,0,0-.373.373.533.533,0,0,0-.061.272l.025.188a.709.709,0,0,0,.182.312l.143.11a.7.7,0,0,0,.356.1" transform="translate(-67.278 -22.646)" fill="#0fbc7e"/>
              <path id="Trazado_912325" data-name="Trazado 912325" d="M90.292,58.241a.344.344,0,0,1-.078.023l.162-.022a.3.3,0,0,1-.077,0l.153.02c-.026,0-.051-.015-.076-.02a.554.554,0,0,0-.523.138.538.538,0,0,0-.138.523.769.769,0,0,0,.2.348.683.683,0,0,0,.225.167.646.646,0,0,0,.65,0,.648.648,0,0,0,.231-.231.477.477,0,0,0,.076-.24.486.486,0,0,0-.011-.257.645.645,0,0,0-.793-.45" transform="translate(-54.316 -34.982)" fill="#0fbc7e"/>
              <path id="Trazado_912326" data-name="Trazado 912326" d="M50.95,77.933a2.468,2.468,0,0,0,2.336-1.571,1.926,1.926,0,0,0,.22-.985q-.046-.34-.091-.679a2.559,2.559,0,0,0-.658-1.128l-.517-.4a2.541,2.541,0,0,0-1.29-.349,2.467,2.467,0,0,0-2.336,1.571,1.925,1.925,0,0,0-.22.985q.046.34.091.68a2.555,2.555,0,0,0,.658,1.128l.517.4a2.545,2.545,0,0,0,1.29.349" transform="translate(-31.326 -43.109)" fill="#0fbc7e"/>
              <path id="Trazado_912327" data-name="Trazado 912327" d="M67.248,86.217a1.081,1.081,0,0,0,0-2.162,1.081,1.081,0,0,0,0,2.162" transform="translate(-41.241 -49.363)" fill="#0fbc7e"/>
              <path id="Trazado_912328" data-name="Trazado 912328" d="M57.423,62.454a1.269,1.269,0,0,0,0-2.536,1.269,1.269,0,0,0,0,2.536" transform="translate(-35.671 -35.928)" fill="#0fbc7e"/>
              <path id="Trazado_912329" data-name="Trazado 912329" d="M63.869,45.9l-.359.06a.167.167,0,0,0,0,.321l.359.06a.229.229,0,1,0,0-.441" transform="translate(-39.675 -28.123)" fill="#0fbc7e"/>
              <path id="Trazado_912330" data-name="Trazado 912330" d="M29.022,67.114a2.013,2.013,0,0,0,1.279-.529,2.013,2.013,0,0,0,.529-1.279q-.032-.24-.065-.481a1.805,1.805,0,0,0-.465-.8l-.366-.282a1.8,1.8,0,0,0-.913-.247,2.013,2.013,0,0,0-1.279.529,2.013,2.013,0,0,0-.529,1.279q.032.24.065.481a1.805,1.805,0,0,0,.465.8l.366.282a1.8,1.8,0,0,0,.913.247" transform="translate(-19.538 -37.92)" fill="#0fbc7e"/>
              <path id="Trazado_912331" data-name="Trazado 912331" d="M38.535,56.034a1.089,1.089,0,0,0,.691-.286,1.089,1.089,0,0,0,.286-.691c-.012-.086-.023-.173-.035-.26a.973.973,0,0,0-.251-.431l-.2-.153a.968.968,0,0,0-.493-.133,1.083,1.083,0,0,0-.691.286,1.089,1.089,0,0,0-.286.691q.017.13.035.26a.973.973,0,0,0,.251.431l.2.153a.973.973,0,0,0,.493.133" transform="translate(-25.296 -32.678)" fill="#0fbc7e"/>
              <path id="Trazado_912332" data-name="Trazado 912332" d="M27.759,90.9a1.518,1.518,0,0,0,0-3.035,1.518,1.518,0,0,0,0,3.035" transform="translate(-19.027 -51.486)" fill="#0fbc7e"/>
              <path id="Trazado_912333" data-name="Trazado 912333" d="M47.533,92.325l-.144.1a.867.867,0,0,0-.309.309.861.861,0,0,0,.309,1.178l.144.1a.966.966,0,0,0,.986,0,.977.977,0,0,0,0-1.687.966.966,0,0,0-.986,0" transform="translate(-30.531 -53.89)" fill="#0fbc7e"/>
              <path id="Trazado_912334" data-name="Trazado 912334" d="M29.73,106.208a1.289,1.289,0,0,0,0-2.577,1.289,1.289,0,0,0,0,2.577" transform="translate(-20.247 -60.259)" fill="#0fbc7e"/>
              <path id="Trazado_912335" data-name="Trazado 912335" d="M14.167,80.9c2.594,0,2.6-4.032,0-4.032s-2.6,4.032,0,4.032" transform="translate(-11.193 -45.36)" fill="#0fbc7e"/>
              <path id="Trazado_912336" data-name="Trazado 912336" d="M37.119,79.766l-.313-.042.2.027-.092-.014a.767.767,0,0,0-.944.536l.059-.139.4-.31c-.019.007-.038.013-.058.018-.064.014-.037.012.08-.008-.034-.006-.074,0-.109-.006a.544.544,0,0,0-.481.276.576.576,0,0,0,0,.563.966.966,0,0,0,.407.388l-.309-.4.008.027a.787.787,0,0,0,.944.536c.069-.015.137-.032.205-.048a.733.733,0,0,0,.534-.7.858.858,0,0,0-.1-.367.717.717,0,0,0-.435-.334" transform="translate(-24.313 -46.948)" fill="#0fbc7e"/>
              <path id="Trazado_912337" data-name="Trazado 912337" d="M8.511,101.519a1.475,1.475,0,0,0,.753-.168,1.466,1.466,0,0,0,.629-.4,1.466,1.466,0,0,0,.4-.629,1.47,1.47,0,0,0,.168-.752q-.035-.26-.07-.52a1.952,1.952,0,0,0-.5-.862,2.031,2.031,0,0,0-1.382-.572,1.475,1.475,0,0,0-.753.168,1.465,1.465,0,0,0-.629.4,1.469,1.469,0,0,0-.4.629,1.47,1.47,0,0,0-.168.753l.07.519a1.947,1.947,0,0,0,.5.862,2.029,2.029,0,0,0,1.382.572" transform="translate(-8.041 -56.908)" fill="#0fbc7e"/>
              <path id="Trazado_912338" data-name="Trazado 912338" d="M63.761,46.116a1.158,1.158,0,0,0,.794-.329,1.251,1.251,0,0,0,.329-.794,1.133,1.133,0,0,0-.329-.794,1.123,1.123,0,0,0-1.587,0,1.251,1.251,0,0,0-.329.794,1.135,1.135,0,0,0,.329.794,1.167,1.167,0,0,0,.794.329" transform="translate(-39.256 -26.997)" fill="#0fbc7e"/>
              <path id="Trazado_912339" data-name="Trazado 912339" d="M74.8,40.53l-.188.108a.252.252,0,0,0,0,.431l.188.108a.374.374,0,1,0,0-.646" transform="translate(-45.855 -25.109)" fill="#0fbc7e"/>
              <path id="Trazado_912340" data-name="Trazado 912340" d="M96.382,44.981l-.135.072a.3.3,0,0,0-.128.149.341.341,0,0,0-.016.2c.01.062.02.124.03.186l.055.129a.4.4,0,0,0,.139.152.507.507,0,0,0,.255.106.539.539,0,0,0,.454-.913.556.556,0,0,0-.655-.085" transform="translate(-57.879 -27.575)" fill="#0fbc7e"/>
              <path id="Trazado_912341" data-name="Trazado 912341" d="M72.261,73a.9.9,0,0,0,.873-.873c-.011-.077-.021-.155-.031-.232a.87.87,0,0,0-.224-.385l-.176-.137a.874.874,0,0,0-.441-.119.661.661,0,0,0-.337.075.785.785,0,0,0-.461.462.658.658,0,0,0-.075.336l.031.232a.868.868,0,0,0,.224.385l.176.137a.87.87,0,0,0,.441.119" transform="translate(-44.126 -42.237)" fill="#0fbc7e"/>
              <path id="Trazado_912342" data-name="Trazado 912342" d="M60.8,119.035a.811.811,0,0,0,0-1.621.811.811,0,0,0,0,1.621" transform="translate(-37.797 -67.931)" fill="#0fbc7e"/>
              <path id="Trazado_912343" data-name="Trazado 912343" d="M74.609,119.03a.832.832,0,0,0,0-1.663.832.832,0,0,0,0,1.663" transform="translate(-45.472 -67.904)" fill="#0fbc7e"/>
              <path id="Trazado_912344" data-name="Trazado 912344" d="M64.243,126.609a1,1,0,0,0,0-2,1,1,0,0,0,0,2" transform="translate(-39.613 -71.938)" fill="#0fbc7e"/>
              <path id="Trazado_912345" data-name="Trazado 912345" d="M53.607,126.465a.458.458,0,0,0,0-.915.458.458,0,0,0,0,.915" transform="translate(-33.983 -72.459)" fill="#0fbc7e"/>
              <path id="Trazado_912346" data-name="Trazado 912346" d="M53.918,134.6a.665.665,0,0,0,0-1.33.665.665,0,0,0,0,1.33" transform="translate(-34.045 -76.755)" fill="#0fbc7e"/>
              <path id="Trazado_912347" data-name="Trazado 912347" d="M48.242,136.629a.458.458,0,0,0,0-.915.458.458,0,0,0,0,.915" transform="translate(-30.997 -78.116)" fill="#0fbc7e"/>
              <path id="Trazado_912348" data-name="Trazado 912348" d="M59.614,134.647l-.1.039-.094.04a.3.3,0,0,0-.111.1.2.2,0,0,0-.051.087.3.3,0,0,0-.034.153c0,.035.009.07.014.105l.04.095a.3.3,0,0,0,.1.111.3.3,0,0,0,.135.071l.1.039a.438.438,0,0,0,.232,0,.434.434,0,0,0,.193-.112.452.452,0,0,0,.128-.309.327.327,0,0,0-.038-.168.324.324,0,0,0-.09-.141.437.437,0,0,0-.425-.112" transform="translate(-37.353 -77.514)" fill="#0fbc7e"/>
              <path id="Trazado_912349" data-name="Trazado 912349" d="M52.045,120.686l.054.094a.273.273,0,0,0,.467,0l.054-.094a.333.333,0,1,0-.574,0" transform="translate(-33.335 -69.473)" fill="#0fbc7e"/>
              <path id="Trazado_912350" data-name="Trazado 912350" d="M67.208,114.336a.416.416,0,0,0,0-.831.416.416,0,0,0,0,.831" transform="translate(-41.576 -65.755)" fill="#0fbc7e"/>
              <path id="Trazado_912351" data-name="Trazado 912351" d="M79.172,124.18a.561.561,0,0,0,0-1.122.561.561,0,0,0,0,1.122" transform="translate(-48.157 -71.072)" fill="#0fbc7e"/>
              <path id="Trazado_912352" data-name="Trazado 912352" d="M83.674,114.177a1.04,1.04,0,0,0,0-2.078,1.04,1.04,0,0,0,0,2.078" transform="translate(-50.406 -64.972)" fill="#0fbc7e"/>
              <path id="Trazado_912353" data-name="Trazado 912353" d="M90.034,123.832a.837.837,0,0,0,.815-.815c-.01-.072-.019-.145-.029-.217a.817.817,0,0,0-.21-.36l-.165-.128a.813.813,0,0,0-.411-.111.616.616,0,0,0-.314.07.836.836,0,0,0-.5.745l.029.216a.818.818,0,0,0,.21.36l.165.127a.813.813,0,0,0,.411.111" transform="translate(-54.051 -70.595)" fill="#0fbc7e"/>
              <path id="Trazado_912354" data-name="Trazado 912354" d="M97.96,119.072a.665.665,0,0,0,0-1.33.665.665,0,0,0,0,1.33" transform="translate(-58.559 -68.113)" fill="#0fbc7e"/>
              <path id="Trazado_912355" data-name="Trazado 912355" d="M99.062,126.13a.683.683,0,0,0,.665-.665l-.024-.177a.662.662,0,0,0-.171-.294l-.135-.1a.661.661,0,0,0-.336-.091.683.683,0,0,0-.665.665l.024.177a.662.662,0,0,0,.171.294l.135.1a.661.661,0,0,0,.336.091" transform="translate(-59.159 -72.041)" fill="#0fbc7e"/>
              <path id="Trazado_912356" data-name="Trazado 912356" d="M94.2,111.965l-.114.076a.725.725,0,0,0-.351.588.736.736,0,0,0,.065.259.723.723,0,0,0,.275.322c.041.029.083.055.125.083a.764.764,0,0,0,.776,0,.769.769,0,0,0,0-1.328.764.764,0,0,0-.776,0" transform="translate(-56.565 -64.839)" fill="#0fbc7e"/>
              <path id="Trazado_912357" data-name="Trazado 912357" d="M84.839,123.863l-.06-.234a.274.274,0,0,0-.26-.2.277.277,0,0,0-.261.2l-.06.234a.333.333,0,1,0,.641,0" transform="translate(-51.25 -71.279)" fill="#0fbc7e"/>
              <path id="Trazado_912358" data-name="Trazado 912358" d="M89.57,118.462l-.065.019a.356.356,0,0,0-.249.245l-.009.033-.009.032a.235.235,0,0,0-.01.068.362.362,0,0,0,.008.191.482.482,0,0,0,.334.334.54.54,0,0,0,.368-.048.477.477,0,0,0,.237-.413l-.017-.127a.475.475,0,0,0-.123-.211.481.481,0,0,0-.465-.123" transform="translate(-54.051 -68.504)" fill="#0fbc7e"/>
              <path id="Trazado_912359" data-name="Trazado 912359" d="M53.55,20.472a.9.9,0,0,0,.855-.575.7.7,0,0,0,.08-.36l-.033-.249a.935.935,0,0,0-.24-.413l-.189-.146a.93.93,0,0,0-.472-.128.9.9,0,0,0-.855.575.7.7,0,0,0-.08.36l.033.248a.933.933,0,0,0,.24.413l.189.146a.93.93,0,0,0,.472.128" transform="translate(-33.677 -12.931)" fill="#0fbc7e"/>
              <path id="Trazado_912360" data-name="Trazado 912360" d="M55.967,11.232l-.12.02-.134.057a.419.419,0,0,0-.157.145.278.278,0,0,0-.072.124.422.422,0,0,0-.048.216l.02.149.057.134a.63.63,0,0,0,.335.258l.12.02a.582.582,0,0,0,.566-.149l.091-.118a.574.574,0,0,0,.079-.294.647.647,0,0,0-.17-.411.581.581,0,0,0-.566-.15" transform="translate(-35.247 -8.817)" fill="#0fbc7e"/>
              <path id="Trazado_912361" data-name="Trazado 912361" d="M60.947,16.36a.458.458,0,0,0,0-.915.458.458,0,0,0,0,.915" transform="translate(-38.069 -11.174)" fill="#0fbc7e"/>
              <path id="Trazado_912362" data-name="Trazado 912362" d="M61.844,9.877a.416.416,0,0,0,0-.831.416.416,0,0,0,0,.831" transform="translate(-38.591 -7.612)" fill="#0fbc7e"/>
              <path id="Trazado_912363" data-name="Trazado 912363" d="M58.867,5.529l-.11.02-.079.033a.25.25,0,0,0-.094.086.168.168,0,0,0-.043.074.253.253,0,0,0-.029.129.392.392,0,0,0,.046.168.252.252,0,0,0,.086.094.244.244,0,0,0,.114.059l.11.019a.347.347,0,0,0,.188,0,.343.343,0,0,0,.156-.091.353.353,0,0,0,0-.5.355.355,0,0,0-.156-.091.365.365,0,0,0-.188,0" transform="translate(-36.959 -5.648)" fill="#0fbc7e"/>
              <path id="Trazado_912364" data-name="Trazado 912364" d="M65.758,7.812l0,.032a.407.407,0,0,0,0,.2v.008c0,.006,0,.01,0,.016v.007a.553.553,0,0,0,.229.3.365.365,0,0,0,.185.059.371.371,0,0,0,.2-.009.523.523,0,0,0,.3-.229.5.5,0,0,0,.068-.251c-.006-.045-.012-.089-.018-.133a.5.5,0,0,0-.129-.219l-.1-.078a.5.5,0,0,0-.252-.068.554.554,0,0,0-.353.146.494.494,0,0,0-.128.219" transform="translate(-40.983 -6.722)" fill="#0fbc7e"/>
              <path id="Trazado_912365" data-name="Trazado 912365" d="M49.074,28.378a.936.936,0,0,0,0-1.871.936.936,0,0,0,0,1.871" transform="translate(-31.203 -17.331)" fill="#0fbc7e"/>
              <path id="Trazado_912366" data-name="Trazado 912366" d="M40.86,24.121l-.11.02-.114.048a.363.363,0,0,0-.134.123.24.24,0,0,0-.062.106.361.361,0,0,0-.041.184c.005.042.011.085.017.127l.048.114a.534.534,0,0,0,.286.22l.11.02a.507.507,0,0,0,.265,0,.5.5,0,0,0,.22-.129.517.517,0,0,0,.146-.353.557.557,0,0,0-.146-.353.5.5,0,0,0-.486-.128" transform="translate(-26.877 -15.994)" fill="#0fbc7e"/>
              <path id="Trazado_912367" data-name="Trazado 912367" d="M35.775,31.536a.728.728,0,0,0,0-1.455.728.728,0,0,0,0,1.455" transform="translate(-23.913 -19.321)" fill="#0fbc7e"/>
              <path id="Trazado_912368" data-name="Trazado 912368" d="M31.227,29.048a.52.52,0,0,0,0-1.039.52.52,0,0,0,0,1.039" transform="translate(-21.493 -18.167)" fill="#0fbc7e"/>
              <path id="Trazado_912369" data-name="Trazado 912369" d="M41.012,33.043a.365.365,0,0,0,.25-.1.4.4,0,0,0,.1-.25.355.355,0,0,0-.1-.25.352.352,0,0,0-.5,0,.262.262,0,0,0-.073.114.266.266,0,0,0-.031.136.357.357,0,0,0,.1.25.366.366,0,0,0,.25.1" transform="translate(-27.022 -20.576)" fill="#0fbc7e"/>
              <path id="Trazado_912370" data-name="Trazado 912370" d="M35.356,27.392a.374.374,0,0,0,0-.748.374.374,0,0,0,0,.748" transform="translate(-23.87 -17.408)" fill="#0fbc7e"/>
              <path id="Trazado_912371" data-name="Trazado 912371" d="M45.166,21.953a.665.665,0,0,0,0-1.33.665.665,0,0,0,0,1.33" transform="translate(-29.174 -14.056)" fill="#0fbc7e"/>
              <path id="Trazado_912372" data-name="Trazado 912372" d="M60.049,23.125a.5.5,0,0,0,0-1,.5.5,0,0,0,0,1" transform="translate(-37.547 -14.893)" fill="#0fbc7e"/>
            </g>
          </g>
        </g>
        <g id="Grupo_1130715" data-name="Grupo 1130715" transform="translate(3.148 2.043)" style="mix-blend-mode: hard-light;isolation: isolate">
          <g id="Grupo_1130714" data-name="Grupo 1130714">
            <g id="Grupo_1130713" data-name="Grupo 1130713" clip-path="url(#clip-path-4)">
              <path id="Trazado_912373" data-name="Trazado 912373" d="M43.084,38.669a25.589,25.589,0,0,1-4.317.95c-1.17.218-2.264.594-3.418.862a28.672,28.672,0,0,0-8.092,3.294,40.06,40.06,0,0,0-7.428,5.3c-1.015,1.009-1.844,2.281-2.769,3.388a10.264,10.264,0,0,0-2.213,3.661.546.546,0,0,0,.794.61c2.652-1.447,4.221-4.305,6.53-6.162A38.192,38.192,0,0,1,29.51,45.89c2.6-1.221,5.113-2.444,7.691-3.65,1.982-.927,4.6-1.524,6.106-3.189.139-.154.006-.47-.223-.382" transform="translate(-11.397 -23.558)" fill="#97abff"/>
              <path id="Trazado_912374" data-name="Trazado 912374" d="M11.284,84.318c-.068.162-.2.291-.259.456a2.425,2.425,0,0,0-.1.5c-.029.22.258.27.39.162a2.043,2.043,0,0,0,.448-.384,2.838,2.838,0,0,0,.282-.525.4.4,0,0,0-.276-.486.406.406,0,0,0-.486.276" transform="translate(-9.227 -48.813)" fill="#97abff"/>
              <path id="Trazado_912375" data-name="Trazado 912375" d="M7.295,89.773c-.29.4-.768.533-1.052.905A2.907,2.907,0,0,0,5.829,91.8a7.576,7.576,0,0,0-.177,1.322,3.763,3.763,0,0,0,.483,1.573.4.4,0,0,0,.761,0,7.728,7.728,0,0,0,.517-1.155c.113-.512.056-1.043.16-1.557a2.884,2.884,0,0,0,.164-1.011,11.451,11.451,0,0,0-.289-1.176.084.084,0,0,0-.152-.02" transform="translate(-6.293 -51.99)" fill="#97abff"/>
              <path id="Trazado_912376" data-name="Trazado 912376" d="M88.34,36.715c.576-.011,1.15-.027,1.726-.015a1.113,1.113,0,0,0,.963-.314c.132-.153-.036-.413-.227-.294a1.819,1.819,0,0,1-1.039.069c-.473-.023-.949-.02-1.422-.028a.291.291,0,0,0,0,.582" transform="translate(-52.162 -22.115)" fill="#97abff"/>
              <path id="Trazado_912377" data-name="Trazado 912377" d="M42.744,11.23c-1.444,1.981-3.343,4.52-5.885,5.037-1.134.23-4.136.912-4.131,2.46a.935.935,0,0,0,1.726.468,6.3,6.3,0,0,1,2.6-1.264,6.774,6.774,0,0,0,2.607-1.388,8.9,8.9,0,0,0,2.174-2.326c.476-.887.694-1.905,1.2-2.819a.167.167,0,0,0-.287-.168" transform="translate(-21.364 -8.252)" fill="#97abff"/>
              <path id="Trazado_912378" data-name="Trazado 912378" d="M62.028,110.3a9.81,9.81,0,0,0-3.972.815c-1.378.595-2.838.967-4.157,1.691-1.921,1.054-5.315,3.583-4.792,6.139a.508.508,0,0,0,.614.349,2.6,2.6,0,0,0,2.113-1.407,8.737,8.737,0,0,1,3.282-3.833c.925-.556,1.956-.876,2.894-1.392a12.38,12.38,0,0,1,4.106-1.709c.38-.054.274-.646-.088-.653" transform="translate(-30.451 -63.437)" fill="#97abff"/>
              <path id="Trazado_912379" data-name="Trazado 912379" d="M49.505,132.132a2.415,2.415,0,0,0-.459.805.964.964,0,0,0,.2.791.232.232,0,0,0,.359-.046c.112-.185.282-.306.391-.491s.228-.382.336-.576a.478.478,0,0,0-.826-.482" transform="translate(-30.44 -75.462)" fill="#97abff"/>
              <path id="Trazado_912380" data-name="Trazado 912380" d="M48.806,137.49c.082.227.211.423.31.64.149.328.666.154.659-.179,0-.2-.043-.391-.031-.588a.478.478,0,1,0-.939.127" transform="translate(-30.301 -78.237)" fill="#97abff"/>
              <path id="Trazado_912381" data-name="Trazado 912381" d="M58.846,4.918a3.763,3.763,0,0,0-.379.392c-.133.157-.309.18-.457.321a1.8,1.8,0,0,0-.267.406c-.035.058-.09.117-.12.176-.017.034-.1.317-.036.169a.217.217,0,0,0,.033.252.384.384,0,0,0,.483.059c.171-.1.205-.329.243-.509s.151-.335.176-.518a.87.87,0,0,1,.078-.381,2.2,2.2,0,0,1,.274-.338.021.021,0,0,0-.029-.029" transform="translate(-35.187 -4.777)" fill="#97abff"/>
              <path id="Trazado_912382" data-name="Trazado 912382" d="M103.537,36.7a4.359,4.359,0,0,0-.786-.314,3.154,3.154,0,0,0-.825-.02,1.07,1.07,0,0,0-.87.548c-.106.17.028.468.251.438.037,0,.129-.013.043-.039.087.026.182.117.28.149a1.8,1.8,0,0,0,.593.061,5.325,5.325,0,0,0,1.315-.1.378.378,0,0,0,0-.721" transform="translate(-59.375 -22.273)" fill="#97abff"/>
              <path id="Trazado_912383" data-name="Trazado 912383" d="M86.864,40.551a.089.089,0,0,1,0,.016l-.013-.1a.119.119,0,0,1,0,.022l.012-.09a.147.147,0,0,1-.005.02l.031-.073a.379.379,0,0,1-.04.062.184.184,0,0,0,0,.189.788.788,0,0,0,.085.118.46.46,0,0,0,.307.125l.105-.014a.3.3,0,0,0,.134-.07.379.379,0,0,0,.122-.158.388.388,0,0,0-.122-.462.4.4,0,0,0-.439-.031.4.4,0,0,0-.181.446" transform="translate(-51.476 -24.336)" fill="#97abff"/>
              <path id="Trazado_912384" data-name="Trazado 912384" d="M81.8,43.484a.208.208,0,0,0,0-.415.208.208,0,0,0,0,.415" transform="translate(-48.568 -26.016)" fill="#97abff"/>
              <path id="Trazado_912385" data-name="Trazado 912385" d="M44.67,56.1a13.484,13.484,0,0,1-1.377.656,9.118,9.118,0,0,0-1.063.82c-.509.441-1.432.676-1.516,1.437a.189.189,0,0,0,.237.18,5.592,5.592,0,0,0,1.035-.572A6.163,6.163,0,0,0,43,57.978a5.525,5.525,0,0,1,1.163-.9,2.981,2.981,0,0,0,.917-.56c.277-.264-.126-.641-.411-.411" transform="translate(-25.81 -33.23)" fill="#97abff"/>
              <path id="Trazado_912386" data-name="Trazado 912386" d="M38.25,64.862a.636.636,0,0,1-.151.158.1.1,0,0,0,.025.19.772.772,0,0,0,.308-.035.187.187,0,1,0-.182-.313" transform="translate(-24.327 -38.115)" fill="#97abff"/>
              <path id="Trazado_912387" data-name="Trazado 912387" d="M23.366,69.705c-1.145.982-1.742,2.335-2.835,3.361-1.036.973-2.71,1.955-2.6,3.566a.442.442,0,0,0,.745.309c2.243-1.912,2.855-5.013,4.833-7.089a.1.1,0,0,0-.147-.147" transform="translate(-13.128 -40.826)" fill="#97abff"/>
              <path id="Trazado_912388" data-name="Trazado 912388" d="M65.678,117.314c-.4.211-.79.522-1.2.691-.152.063-.324.035-.47.1-.129.059-.153.173-.255.262s.007.236.121.208c.131-.032.2-.127.318-.173.137-.054.288-.058.425-.124.411-.2.791-.521,1.187-.752a.125.125,0,0,0-.126-.215" transform="translate(-38.611 -67.332)" fill="#97abff"/>
              <path id="Trazado_912389" data-name="Trazado 912389" d="M75.485,113.85c.192-.161.488-.164.635-.381.047-.07-.033-.188-.117-.153-.123.051-.237.117-.36.168a1.237,1.237,0,0,0-.334.189c-.123.1.054.279.176.176" transform="translate(-45.042 -65.112)" fill="#97abff"/>
              <path id="Trazado_912390" data-name="Trazado 912390" d="M82.977,112.046l.1-.04a.232.232,0,0,0,.108-.074.2.2,0,0,0,.045-.126.248.248,0,0,0-.028-.105.219.219,0,0,0-.124-.1l-.1-.04a.243.243,0,0,0-.243.064.249.249,0,0,0,0,.353.249.249,0,0,0,.243.064" transform="translate(-49.157 -64.135)" fill="#97abff"/>
            </g>
          </g>
        </g>
        <g id="Grupo_1130718" data-name="Grupo 1130718" transform="translate(24.986 1.49)" opacity="0.6" style="mix-blend-mode: multiply;isolation: isolate">
          <g id="Grupo_1130717" data-name="Grupo 1130717">
            <g id="Grupo_1130716" data-name="Grupo 1130716" clip-path="url(#clip-path-5)">
              <path id="Trazado_912391" data-name="Trazado 912391" d="M118.473,63.311c.142,3.928-2.855,7.6-6.316,9.09-2.185.941-4.253.581-6.525.775a33.156,33.156,0,0,1-6.957-.4c-.707-.087-.9.844-.529,1.277,1.6,1.861,5.362.669,7.486.995a11.178,11.178,0,0,0,4.1.284,11.872,11.872,0,0,0,3.846-1.371,10.266,10.266,0,0,0,4.98-10.663.042.042,0,0,0-.082.011" transform="translate(-79.512 -36.706)" fill="#0a339b"/>
              <path id="Trazado_912392" data-name="Trazado 912392" d="M85.926,86.181a7.137,7.137,0,0,0-1.818-.816,1.846,1.846,0,0,0-1.833.648.129.129,0,0,0,0,.176,1.755,1.755,0,0,0,1.669.675,15.411,15.411,0,0,0,1.923-.228c.189-.049.264-.369.059-.456" transform="translate(-70.761 -48.988)" fill="#0a339b"/>
              <path id="Trazado_912393" data-name="Trazado 912393" d="M79.2,87.676c-.088.083-.2.013-.3-.025a.476.476,0,0,0-.337-.007c-.106.034-.131.221,0,.24a1.537,1.537,0,0,1,.2.063,1.5,1.5,0,0,0,.23.047.394.394,0,0,0,.38-.142c.1-.123-.056-.29-.176-.176" transform="translate(-68.666 -50.257)" fill="#0a339b"/>
              <path id="Trazado_912394" data-name="Trazado 912394" d="M72.814,88.615a5.094,5.094,0,0,1-1.05.122.458.458,0,0,0,0,.915,6.371,6.371,0,0,0,1.315-.074c.623-.109.367-1.119-.265-.962" transform="translate(-64.684 -50.804)" fill="#0a339b"/>
              <path id="Trazado_912395" data-name="Trazado 912395" d="M134.32,48.161c-.191,2.359,1.028,4.738.28,7.117-.379,1.205-1.2,1.74-1.922,2.7-.545.721-.366,1.6-.8,2.342a.44.44,0,0,0,.377.657c.947-.036,1.155-.847,1.677-1.527a9.723,9.723,0,0,0,2.044-3.145c.928-2.755-.477-5.558-1.083-8.217-.077-.338-.546-.234-.572.077" transform="translate(-98.358 -28.137)" fill="#0a339b"/>
              <path id="Trazado_912396" data-name="Trazado 912396" d="M118.662,73.751a9.428,9.428,0,0,0,.919-.545c.072-.049.556-.385.252-.524-.025-.012-.483.36-.547.4a4.432,4.432,0,0,1-1.15.5c-.2.058-.4.121-.6.188-.1.037-.2.07-.3.1q-.309.067.153.021l.49.377c.1.168.175-.118.243-.221.1-.159.228-.318.343-.47a1.872,1.872,0,0,1,.756-.667.2.2,0,0,1,.228,0c0-.045,0-.09,0-.135a3.955,3.955,0,0,1-.575.283,10.405,10.405,0,0,1-1.217.272l1.029.784c0,.508-.308.532-.015.305a1.849,1.849,0,0,0,.227-.226,1.888,1.888,0,0,0,.478-.649c.038-.129-.029-.479.014-.332a.647.647,0,0,0-.161-.341c-.66-.667-2.221.408-2.169,1.242a.823.823,0,0,0,1.029.784,4.615,4.615,0,0,0,2.466-1.361,1.349,1.349,0,0,0-.692-2.059c-1.644-.666-3.95,1.538-3.568,3.219.243,1.071,1.215.805,1.935.443a6.349,6.349,0,0,0,2.252-1.571c.4-.482.576-1.394-.29-1.5-.819-.1-1.31.915-1.729,1.423a.167.167,0,0,0,.2.261" transform="translate(-89.691 -41.208)" fill="#0a339b"/>
              <path id="Trazado_912397" data-name="Trazado 912397" d="M124.609,79.364l-.24.106a.377.377,0,0,0,0,.649l.24.106a.523.523,0,0,0,.5,0,.5.5,0,0,0,0-.862.523.523,0,0,0-.5,0" transform="translate(-94.107 -45.628)" fill="#0a339b"/>
              <path id="Trazado_912398" data-name="Trazado 912398" d="M106.58,80.787l-.786.063a.166.166,0,0,0,0,.333l.786.062c.294.023.294-.481,0-.457" transform="translate(-83.782 -46.456)" fill="#0a339b"/>
              <path id="Trazado_912399" data-name="Trazado 912399" d="M94.494,116.211c.353.778.818,1.934.384,2.8-.268.532-1.015.627-1.516.7-1.246.191-2.522.842-3.77.867a.188.188,0,0,0-.094.349,6.029,6.029,0,0,0,2.738.966,4.7,4.7,0,0,0,2.7-.815,2.5,2.5,0,0,0,.813-1.968,9.1,9.1,0,0,0-.235-1.751,4.661,4.661,0,0,0-.8-1.273.125.125,0,0,0-.215.126" transform="translate(-74.75 -66.07)" fill="#0a339b"/>
              <path id="Trazado_912400" data-name="Trazado 912400" d="M83.634,126.7l-1.133-.013a2.087,2.087,0,0,0-.9.074.146.146,0,0,0,0,.251,2.094,2.094,0,0,0,.9.074l1.133-.013a.187.187,0,0,0,0-.374" transform="translate(-70.363 -71.998)" fill="#0a339b"/>
              <path id="Trazado_912401" data-name="Trazado 912401" d="M79.789,127.91l-.186.116a.146.146,0,0,0-.06.182.145.145,0,0,0,.172.084l.2-.078a.166.166,0,1,0-.128-.3" transform="translate(-69.254 -72.672)" fill="#0a339b"/>
              <path id="Trazado_912402" data-name="Trazado 912402" d="M102.335,114.731a9.574,9.574,0,0,0,.78,1.512c.113.275.059,1.414.612,1.161a.278.278,0,0,0,.14-.244,2.935,2.935,0,0,0-.489-1.6,2.791,2.791,0,0,0-.346-.516,3.068,3.068,0,0,1-.424-.432c-.084-.157-.305-.044-.274.115" transform="translate(-81.944 -65.243)" fill="#0a339b"/>
              <path id="Trazado_912403" data-name="Trazado 912403" d="M105.049,122.4l.018.048a.1.1,0,0,0,.031.045.082.082,0,0,0,.053.019.1.1,0,0,0,.044-.012.092.092,0,0,0,.04-.052l.018-.048a.1.1,0,0,0-.027-.1.107.107,0,0,0-.15,0,.1.1,0,0,0-.027.1" transform="translate(-83.454 -69.542)" fill="#0a339b"/>
              <path id="Trazado_912404" data-name="Trazado 912404" d="M95.343,119.085a.743.743,0,0,1-.149.629,2.115,2.115,0,0,1-.721.371c-.479.239-.956.523-1.414.8a.114.114,0,0,0,.027.205,1.269,1.269,0,0,0,.554.009,2.135,2.135,0,0,0,.67-.078,4.249,4.249,0,0,0,1.024-.654,1.008,1.008,0,0,0,.185-1.418.113.113,0,0,0-.176.136" transform="translate(-76.753 -67.679)" fill="#0a339b"/>
              <path id="Trazado_912405" data-name="Trazado 912405" d="M86.4,123.6a1.122,1.122,0,0,0-.431-.07.722.722,0,0,0-.41.082.115.115,0,0,0,0,.194.622.622,0,0,0,.362.061.944.944,0,0,1,.389.057c.2.082.288-.244.09-.325" transform="translate(-72.577 -70.246)" fill="#0a339b"/>
              <path id="Trazado_912406" data-name="Trazado 912406" d="M72.9,128.27a4.215,4.215,0,0,0-2.694.885.107.107,0,0,0,.053.2,2.248,2.248,0,0,0,1.113-.345,3.442,3.442,0,0,1,1.528-.475.131.131,0,0,0,0-.262" transform="translate(-64.033 -72.88)" fill="#0a339b"/>
              <path id="Trazado_912407" data-name="Trazado 912407" d="M63.913,3.478c1.58.314,1.495,2.353,1.3,3.6-.112.709-.663,1.6-.417,2.311a.158.158,0,0,0,.285.037,5.882,5.882,0,0,0,1-1.637,5.918,5.918,0,0,0,.178-2.353A2.352,2.352,0,0,0,63.941,3.27c-.117,0-.148.185-.028.208" transform="translate(-60.518 -3.31)" fill="#0a339b"/>
              <path id="Trazado_912408" data-name="Trazado 912408" d="M65.149,18.74c-.06.063-.111.133-.172.195a.859.859,0,0,1-.18.17.063.063,0,0,0,.015.114.275.275,0,0,0,.3-.1,1.5,1.5,0,0,0,.15-.294c.035-.067-.052-.141-.108-.083" transform="translate(-61.035 -11.909)" fill="#0a339b"/>
              <path id="Trazado_912409" data-name="Trazado 912409" d="M62.658,20.92a6.549,6.549,0,0,1-.754.643.082.082,0,0,0-.016.128.331.331,0,0,0,.437-.057c.176-.169.33-.372.492-.555a.112.112,0,0,0-.159-.159" transform="translate(-59.42 -13.117)" fill="#0a339b"/>
              <path id="Trazado_912410" data-name="Trazado 912410" d="M63.37,11.161a6.533,6.533,0,0,1-.413,1.957,10.925,10.925,0,0,1-.546,1.366c-.14.223.162.414.343.264.394-.325.433-1.118.58-1.583a6.028,6.028,0,0,0,.185-2,.075.075,0,0,0-.149,0" transform="translate(-59.704 -7.662)" fill="#0a339b"/>
              <path id="Trazado_912411" data-name="Trazado 912411" d="M64.387,6.808c.01-.039.03-.059,0-.045l-.117.015c.037.013.035.008-.008-.016a.536.536,0,0,1,.033.055c.023.054,0-.031.006.064a.436.436,0,0,0,.125.3l-.071-.172a.242.242,0,0,1-.012.123l.258-.2c.032,0,.058.04.085.039a.19.19,0,0,1-.037-.036c.017.033-.02-.055-.014-.041-.018-.048-.015-.023-.011-.073,0-.02-.015,0,0-.005s-.009.02-.022.035h-.415c.038.031-.008-.033,0,0s-.007-.031,0,.02a.805.805,0,0,1,.022.123,1.067,1.067,0,0,1,0,.16c0,.035,0-.021-.005.029,0,.021-.036.1,0,.016l.365-.149c-.082-.012.19.108.149.206.014-.034-.012-.106-.016-.141a.606.606,0,0,0-.058-.22.366.366,0,0,0-.325-.193.314.314,0,0,0-.194.067c-.037.028-.137.164-.041.037a.408.408,0,0,0-.1.248A.413.413,0,0,0,64,7.166C64,7.106,63.993,7.1,64,7.137a.628.628,0,0,0,.066.3.448.448,0,0,0,.516.237.333.333,0,0,0,.237-.312,1.83,1.83,0,0,0-.022-.482.676.676,0,0,0-.192-.441.3.3,0,0,0-.415,0c-.327.36-.058,1.139.485,1.022a.272.272,0,0,0,.2-.258.658.658,0,0,0-.038-.259.285.285,0,0,0-.063-.107L64.72,6.8c.022.026.025.025.01,0a.59.59,0,0,0-.191-.285.238.238,0,0,0-.322-.017.281.281,0,0,0-.023.317.1.1,0,0,0,.192,0" transform="translate(-60.603 -5.025)" fill="#0a339b"/>
              <path id="Trazado_912412" data-name="Trazado 912412" d="M57.874,23.165a3.578,3.578,0,0,0-.94.45,2.1,2.1,0,0,0-.8.739.151.151,0,0,0,.169.219,5.11,5.11,0,0,0,1.672-1.231.107.107,0,0,0-.1-.177" transform="translate(-56.222 -14.381)" fill="#0a339b"/>
            </g>
          </g>
        </g>
      </g>
    </g>
  </g>
</svg>
