<svg id="Grupo_1130729" data-name="Grupo 1130729" xmlns="http://www.w3.org/2000/svg" xmlns:xlink="http://www.w3.org/1999/xlink" width="58.879" height="58.406" viewBox="0 0 58.879 58.406">
  <defs>
    <clipPath id="clip-path">
      <rect id="Rect치ngulo_411496" data-name="Rect치ngulo 411496" width="58.879" height="58.406" fill="none"/>
    </clipPath>
    <clipPath id="clip-path-2">
      <path id="Trazado_912107" data-name="Trazado 912107" d="M45.419,31.969c-2.428.634-4.482,2.282-6.88,3.022-.774.239-1.578.381-2.335.669a6.517,6.517,0,0,0-3.825,4.028c-.593,1.84-.34,3.888-1.048,5.687-.476,1.208-1.351,2.214-1.943,3.37a8.088,8.088,0,0,0,1.22,8.937,29.164,29.164,0,0,1,2.323,2.362,33.17,33.17,0,0,1,1.663,3.229c1.546,2.695,4.684,4.169,7.776,4.467a27.177,27.177,0,0,0,9.2-1.171,6.948,6.948,0,0,1,1.885-.3c.575.016,1.137.176,1.711.214a4.177,4.177,0,0,0,4.076-2.626,13.739,13.739,0,0,1,.545-1.588c.619-1.185,2.049-1.714,2.85-2.786a6.229,6.229,0,0,0,.784-4.094,10.324,10.324,0,0,0-1.459-5.61c-.671-.93-1.649-1.679-2.009-2.769a5.913,5.913,0,0,1-.09-2.385,14.5,14.5,0,0,0-.51-6.366,4.143,4.143,0,0,0-1.613-2.208,12.7,12.7,0,0,0-1.406-.785c-1.482-.754-2.567-2.1-4.131-2.743a11.575,11.575,0,0,0-4.329-.856,9.71,9.71,0,0,0-2.451.3" transform="translate(-28.559 -31.665)" fill="none"/>
    </clipPath>
    <linearGradient id="linear-gradient" x1="-0.289" y1="1.273" x2="-0.278" y2="1.273" gradientUnits="objectBoundingBox">
      <stop offset="0" stop-color="#e28e5a"/>
      <stop offset="1" stop-color="#e26e5a"/>
    </linearGradient>
  </defs>
  <g id="Grupo_1130702" data-name="Grupo 1130702">
    <g id="Grupo_1130701" data-name="Grupo 1130701" clip-path="url(#clip-path)">
      <path id="Trazado_912096" data-name="Trazado 912096" d="M59.6,31.4s-5.543-13.655-22.984-9.6S18.771,43.163,21.2,51.951s16.359,16.089,29.2,11.762S65.144,41.676,59.6,31.4" transform="translate(-12.436 -13.002)" fill="#d05840"/>
      <path id="Trazado_912097" data-name="Trazado 912097" d="M105.51,15.032s3.532-4.794,4.709-6.98c-2.86-3.027-3.2-5.3,1.261-2.355s6.98,6.643,0,3.111c-1.513,1.177-3.784,7.737-3.784,7.737" transform="translate(-65.174 -2.673)" fill="#d05840"/>
      <path id="Trazado_912098" data-name="Trazado 912098" d="M110.029,111.458s3.1,5.081,4.684,7c3.883-1.5,6.112-.958,1.7,2.057s-8.788,3.953-2.881-1.175c-.518-1.846-5.734-6.426-5.734-6.426" transform="translate(-66.59 -68.849)" fill="#d05840"/>
      <path id="Trazado_912099" data-name="Trazado 912099" d="M28.806,21.726s-3.827-4.561-5.676-6.219c-3.615,2.067-5.9,1.859-1.991-1.78s8.1-5.221,3.024.732c.788,1.748,6.629,5.5,6.629,5.5" transform="translate(-11.797 -6.479)" fill="#d05840"/>
      <path id="Trazado_912100" data-name="Trazado 912100" d="M121.568,44.253s6.307.5,8.493-.421c-.084-5.13.757-6.98,1.6-1.682s.925,11.6-1.6,3.532a67.246,67.246,0,0,0-7.736.841" transform="translate(-75.094 -24.073)" fill="#d05840"/>
      <path id="Trazado_912101" data-name="Trazado 912101" d="M36.448,120.526s-4.464,4.484-5.173,6.75c3.967,3.254,4.834,5.092.249,2.306s-9.449-6.8-1.66-3.5a67.208,67.208,0,0,0,4.363-6.445" transform="translate(-15.91 -73.899)" fill="#d05840"/>
      <path id="Trazado_912102" data-name="Trazado 912102" d="M63.756,10.3s1.327-6.187.7-8.475c-5.1-.589-6.82-1.665-1.458-1.8s11.626.6,3.292,2.047a67.252,67.252,0,0,0-.18,7.78" transform="translate(-36.885 0)" fill="#d05840"/>
      <path id="Trazado_912103" data-name="Trazado 912103" d="M125.372,86.837a49.042,49.042,0,0,0,8.068,1.412c1.614-4.639,3.631-5.446,1.916,1.008s-4.034,7.968-2.42,1.21c-1.815-.908-8.068-1.916-8.068-1.916" transform="translate(-77.132 -52.254)" fill="#d05840"/>
      <path id="Trazado_912104" data-name="Trazado 912104" d="M76.313,130.119a47.062,47.062,0,0,0,0,6.777s7.873.6.6,1.694c-4.285.5-7.973,0-2.093-1.2a16.368,16.368,0,0,0-.3-7.076" transform="translate(-44.331 -80.376)" fill="#d05840"/>
      <path id="Trazado_912105" data-name="Trazado 912105" d="M11.546,99.878A36.4,36.4,0,0,1,6.811,103.4s-4.735-3.854-1.432,1.431,3.634,3.193,2.2-.11l5.175-4.625" transform="translate(-2.6 -61.696)" fill="#d05840"/>
      <path id="Trazado_912106" data-name="Trazado 912106" d="M10.744,62.861a79.526,79.526,0,0,0-8.533-.406C1.534,67.33-.633,69.5.179,61.1s2.438-4.2,2.3-.813c2.98.542,8.939,1.084,8.939,1.084" transform="translate(0 -34.708)" fill="#d05840"/>
    </g>
  </g>
  <g id="Grupo_1130704" data-name="Grupo 1130704" transform="translate(10.918 12.105)">
    <g id="Grupo_1130703" data-name="Grupo 1130703" clip-path="url(#clip-path-2)">
      <rect id="Rect치ngulo_411497" data-name="Rect치ngulo 411497" width="35.561" height="36.373" transform="translate(-0.632 0)" fill="url(#linear-gradient)"/>
    </g>
  </g>
  <g id="Grupo_1130706" data-name="Grupo 1130706">
    <g id="Grupo_1130705" data-name="Grupo 1130705" clip-path="url(#clip-path)">
      <path id="Trazado_912108" data-name="Trazado 912108" d="M101.14,73.323c.523,2.953-.885,6.006-2.208,8.561a34.972,34.972,0,0,1-3.618,6.077A20.261,20.261,0,0,1,89.8,92.431c-.583.348-1.1.766-1.634,1.148-.5.357.392-.344-.036-.035a6.051,6.051,0,0,1-1.125.749c-.128.054-.195.25-.043.328,1.179.606,2.715.205,3.933-.315a14.876,14.876,0,0,0,6.513-4.928,29.636,29.636,0,0,0,3.1-7.349c.867-2.777,1.77-5.886.941-8.79a.161.161,0,0,0-.311.086" transform="translate(-53.664 -45.168)" fill="#b73e2a"/>
      <path id="Trazado_912109" data-name="Trazado 912109" d="M80.428,130.356l-.408-.038a.665.665,0,0,0-.371.058.144.144,0,0,0,0,.248.665.665,0,0,0,.371.058l.408-.038a.143.143,0,0,0,0-.287" transform="translate(-49.157 -80.496)" fill="#b73e2a"/>
      <path id="Trazado_912110" data-name="Trazado 912110" d="M72.03,129.605c-.153-.033-.309-.051-.463-.08-.284-.055-.524-.146-.789.037l.24-.065c-.114.008-.13-.019-.265,0a.366.366,0,0,0-.359.358.819.819,0,0,0,.8.685,4.73,4.73,0,0,0,.839-.2.379.379,0,0,0,0-.726" transform="translate(-43.484 -79.965)" fill="#b73e2a"/>
      <path id="Trazado_912111" data-name="Trazado 912111" d="M121.779,61.759c.028.23.059.459.082.689a2.927,2.927,0,0,0,.08.663.217.217,0,0,0,.414,0,3.573,3.573,0,0,0-.074-1.352c-.039-.316-.541-.32-.5,0" transform="translate(-75.223 -38.002)" fill="#b73e2a"/>
      <path id="Trazado_912112" data-name="Trazado 912112" d="M110.016,57.032c.988,1.689.558,3.875.346,5.736a13.909,13.909,0,0,1-1.465,4.8c-.3.6-1.756,3.664.133,3.3.874-.169,1.167-1.494,1.415-2.184a15.567,15.567,0,0,0,.968-3.928c.253-2.512.541-5.831-1.144-7.918-.117-.145-.344.041-.253.2" transform="translate(-66.761 -35.076)" fill="#b73e2a"/>
      <path id="Trazado_912113" data-name="Trazado 912113" d="M108.305,95.438c-.044.061-.087.123-.133.183l.058-.058-.025.019a.187.187,0,0,0-.089.154.179.179,0,1,0,.358,0q0-.029,0-.008l.006-.018c.008-.02.013-.041.019-.062l.036-.114a.125.125,0,0,0-.073-.148.128.128,0,0,0-.157.051" transform="translate(-66.785 -58.915)" fill="#b73e2a"/>
      <path id="Trazado_912114" data-name="Trazado 912114" d="M103.2,101.407l-.158.281a.126.126,0,0,0,.172.172l.281-.158a.215.215,0,1,0-.294-.294" transform="translate(-63.639 -62.575)" fill="#b73e2a"/>
      <path id="Trazado_912115" data-name="Trazado 912115" d="M51.039,122.771c1.971.536,3.4.252,5.4.274,1.361.015,3.462.057,4.218-1.266.123-.216-.029-.57-.309-.539-3,.329-6.052,1.136-9.052.6-.6-.108-.868.767-.257.933" transform="translate(-31.313 -74.89)" fill="#b73e2a"/>
      <path id="Trazado_912116" data-name="Trazado 912116" d="M80.943,120.218l.221-.052a.126.126,0,0,0,0-.242l-.221-.052a.179.179,0,1,0,0,.346" transform="translate(-49.859 -74.043)" fill="#b73e2a"/>
      <path id="Trazado_912117" data-name="Trazado 912117" d="M81.7,119.768l.105-.13a.09.09,0,0,0-.127-.127l-.13.105a.108.108,0,1,0,.152.152" transform="translate(-50.355 -73.807)" fill="#b73e2a"/>
      <path id="Trazado_912118" data-name="Trazado 912118" d="M149.493,86.691c-.209,2.729-1.85,5.16-2.132,7.875-.011.107.13.115.18.049.687-.913.815-2.62,1.134-3.736a15.656,15.656,0,0,0,.939-4.188.061.061,0,0,0-.122,0" transform="translate(-91.026 -53.514)" fill="#b73e2a"/>
      <path id="Trazado_912119" data-name="Trazado 912119" d="M123.4,131.751c-.4.25-.812.34-1.2.621a10.262,10.262,0,0,1-1.135.879,12.828,12.828,0,0,1-1.458.806,3.24,3.24,0,0,0-1.192.461l.348.092a.862.862,0,0,1,.185-.641.09.09,0,0,0-.123-.123,1.047,1.047,0,0,0-.47.819.209.209,0,0,0,.263.2,6.831,6.831,0,0,0,1.5-.322,14.249,14.249,0,0,0,1.323-.895,7.48,7.48,0,0,0,.909-.887c.361-.352.789-.548,1.158-.871.076-.067-.023-.195-.109-.141" transform="translate(-73.109 -81.376)" fill="#b73e2a"/>
      <path id="Trazado_912120" data-name="Trazado 912120" d="M119.1,124.607a1.366,1.366,0,0,0,.332.544,6.337,6.337,0,0,1,.622,1.032c.16.32.39.634.573.938.144.239.387.384.495.664a.054.054,0,0,0,.1-.029,1.311,1.311,0,0,0-.319-.593c-.189-.277-.375-.62-.539-.917a6.229,6.229,0,0,0-.534-.982c-.194-.241-.486-.437-.655-.691a.043.043,0,0,0-.079.033" transform="translate(-73.567 -76.937)" fill="#b73e2a"/>
      <path id="Trazado_912121" data-name="Trazado 912121" d="M80.4,150.7a4.182,4.182,0,0,0-.8-.005c-.549.053-1,.007-1.544.012-.239,0-1.19.359-1.319.232a.12.12,0,0,0-.2.084c-.038.488.719.37,1.011.311.4-.081.775-.129,1.187-.172.573-.061,1.09-.28,1.667-.325a.068.068,0,0,0,0-.136" transform="translate(-47.273 -93.075)" fill="#b73e2a"/>
      <path id="Trazado_912122" data-name="Trazado 912122" d="M81.057,137.4c.3.5.065,1.6.051,2.168a6.59,6.59,0,0,0-.078,1.889.08.08,0,0,0,.144.019,4.757,4.757,0,0,0,.178-2.159c-.014-.56.137-1.49-.2-1.974-.041-.06-.137-.007-.1.058" transform="translate(-50.016 -84.819)" fill="#b73e2a"/>
      <path id="Trazado_912123" data-name="Trazado 912123" d="M79.572,150.211l-.254,0a.011.011,0,0,0,0,.022l.254,0a.014.014,0,0,0,0-.029" transform="translate(-48.989 -92.787)" fill="#b73e2a"/>
      <path id="Trazado_912124" data-name="Trazado 912124" d="M76.006,151.077a0,0,0,0,0,0-.007,0,0,0,0,0,0,.007" transform="translate(-46.948 -93.317)" fill="#b73e2a"/>
      <path id="Trazado_912125" data-name="Trazado 912125" d="M39.108,140.529c.347.5.833.912,1.228,1.375.175.206.325.428.5.636.222.271.5.456.71.745a.126.126,0,0,0,.234-.063.69.69,0,0,0-.274-.591,8.5,8.5,0,0,1-.666-.732,7.342,7.342,0,0,0-1.625-1.473c-.061-.04-.146.041-.1.1" transform="translate(-24.15 -86.736)" fill="#b73e2a"/>
      <path id="Trazado_912126" data-name="Trazado 912126" d="M41.553,127.508a1.235,1.235,0,0,0-.523.581c-.261.422-.556.814-.822,1.23A12.262,12.262,0,0,0,39,131.4c-.038.1.088.177.169.13a3.879,3.879,0,0,0,1.224-1.471c.2-.36.452-.7.635-1.072a5.674,5.674,0,0,1,.6-1.387.061.061,0,0,0-.074-.1" transform="translate(-24.084 -78.759)" fill="#b73e2a"/>
      <path id="Trazado_912127" data-name="Trazado 912127" d="M146.464,46.33c.168,1.119.328,2.216.426,3.347a25.326,25.326,0,0,1,.1,2.913.145.145,0,0,0-.063.239l.068.075a.209.209,0,0,0,.326-.042,1.406,1.406,0,0,0,.1-.8c-.021-.68-.03-1.368-.062-2.048a10.265,10.265,0,0,0-.788-3.735c-.031-.068-.12-.015-.111.047" transform="translate(-90.472 -28.57)" fill="#b73e2a"/>
      <path id="Trazado_912128" data-name="Trazado 912128" d="M140.492,55.114c-.256-.049-.469-.211-.728-.254a4.211,4.211,0,0,0-.95.035c-.372.023-.845-.13-1.1.229-.055.078.035.173.117.153a2.385,2.385,0,0,1,.611.038,3.384,3.384,0,0,0,.593-.035c.266-.032.544-.065.812-.071.209,0,.416.047.624.031.068,0,.093-.112.017-.127" transform="translate(-85.059 -33.875)" fill="#b73e2a"/>
      <path id="Trazado_912129" data-name="Trazado 912129" d="M136.194,55.554l-.121.021a.043.043,0,0,0,0,.083l.121.021a.064.064,0,1,0,0-.124" transform="translate(-84.034 -34.316)" fill="#b73e2a"/>
      <path id="Trazado_912130" data-name="Trazado 912130" d="M114.2,38.693c.422.57.771,1.161,1.13,1.757.273.454.746.678,1.024,1.133a4.981,4.981,0,0,0,.357.658c.031.037.1-.012.067-.052-.448-.637-.5-1.444-.942-2.086a12,12,0,0,0-1.518-1.5c-.058-.058-.171.021-.118.091" transform="translate(-70.532 -23.832)" fill="#b73e2a"/>
      <path id="Trazado_912131" data-name="Trazado 912131" d="M121.766,51.523a1.247,1.247,0,0,1,.12.49,5.26,5.26,0,0,1,.072.633.032.032,0,0,0,.065,0,6.559,6.559,0,0,0-.074-.723,1.1,1.1,0,0,0-.115-.44.039.039,0,0,0-.068.04" transform="translate(-75.213 -31.79)" fill="#b73e2a"/>
      <path id="Trazado_912132" data-name="Trazado 912132" d="M54.733,28.287c-3.576-.935-7.771-.888-11,.925a45.786,45.786,0,0,0-4.654,3.164c-1.384,1.012-1.567,2.28-2.125,3.8-.221.6.626.829.95.4.432-.57,1.159-.776,1.7-1.207.459-.365.844-.741,1.335-1.073a43.438,43.438,0,0,0,3.666-2.756,10.257,10.257,0,0,1,4.212-2.572,14.331,14.331,0,0,1,5.847-.437c.155.024.226-.2.067-.242" transform="translate(-22.804 -17.102)" fill="#e56e5a"/>
      <path id="Trazado_912133" data-name="Trazado 912133" d="M26.048,58.091c-.451.676-1.12,1.115-1.6,1.768a18.414,18.414,0,0,1-1.452,2.128c-.923.932-1.511,2.242-.606,3.455a1.106,1.106,0,0,0,1.711.221c.821-.877.759-2.121,1.047-3.236.372-1.436,1.271-2.6,1.656-4.017a.414.414,0,0,0-.753-.318" transform="translate(-13.55 -35.765)" fill="#e56e5a"/>
      <path id="Trazado_912134" data-name="Trazado 912134" d="M24.494,80.921a12.792,12.792,0,0,0,.122,2.278c.067.785-.287,1.462-.162,2.218a.361.361,0,0,0,.692,0,1.5,1.5,0,0,0-.036-.834,4.538,4.538,0,0,1-.076-1.767,4.81,4.81,0,0,0-.116-1.954c-.057-.25-.4-.171-.422.057" transform="translate(-15.088 -49.855)" fill="#e56e5a"/>
      <path id="Trazado_912135" data-name="Trazado 912135" d="M50.606,57.566a3.623,3.623,0,0,0-1.289,3.3,1.312,1.312,0,0,0,1.108.955,1.371,1.371,0,0,0,1.328-.637,2.931,2.931,0,0,0,.352-1.152c.084-.366.239-.717.3-1.086.151-.944-.824-2.049-1.8-1.382" transform="translate(-30.444 -35.433)" fill="#e56e5a"/>
      <path id="Trazado_912136" data-name="Trazado 912136" d="M46.651,75.132a2.212,2.212,0,0,1-.16.679c-.088.382.5.544.588.162a2.663,2.663,0,0,0,.182-.841.313.313,0,0,0-.3-.3.307.307,0,0,0-.3.3" transform="translate(-28.712 -46.221)" fill="#e56e5a"/>
      <path id="Trazado_912137" data-name="Trazado 912137" d="M48,82.177a.375.375,0,0,0,.292.12.147.147,0,0,0,.138-.182c0,.009,0,.036,0,.013a.113.113,0,0,0,0-.02s-.011.052,0,.03l.007-.022-.023.055a.2.2,0,0,1,.023-.039l-.042.055.01-.011a.291.291,0,0,0,.059-.313.284.284,0,0,0-.262-.176.3.3,0,0,0-.247.142.293.293,0,0,0,.045.347" transform="translate(-29.597 -50.459)" fill="#e56e5a"/>
      <path id="Trazado_912138" data-name="Trazado 912138" d="M63.3,57.212a2.691,2.691,0,0,0-1.006,1.009,1.835,1.835,0,0,0-.273.68,2.208,2.208,0,0,0-.08.647c.021.146.175.212.3.228.485.063.7-.469.838-.823a3.9,3.9,0,0,1,.721-1.094.414.414,0,0,0-.5-.647" transform="translate(-38.255 -35.304)" fill="#e56e5a"/>
      <path id="Trazado_912139" data-name="Trazado 912139" d="M58.622,68.759a1.293,1.293,0,0,0,.031.236.366.366,0,0,0,.145.191l.038.028a.209.209,0,0,0,.217,0A.405.405,0,0,0,59.236,69a1.672,1.672,0,0,0,.031-.236.321.321,0,0,0-.094-.228.323.323,0,0,0-.456,0,.312.312,0,0,0-.094.228" transform="translate(-36.211 -42.274)" fill="#e56e5a"/>
      <path id="Trazado_912140" data-name="Trazado 912140" d="M48.826,50.368c-.009.013-.018.026-.028.039l.092-.119a.572.572,0,0,1-.092.091L48.9,50.3l-.042.029a.509.509,0,0,0,.121.925,1.225,1.225,0,0,0,.255.04,1.325,1.325,0,0,0,.274-.027.611.611,0,0,0,.425-.425.617.617,0,0,0-.588-.771.625.625,0,0,0-.526.3" transform="translate(-30.031 -30.926)" fill="#e56e5a"/>
      <path id="Trazado_912141" data-name="Trazado 912141" d="M75.444,40.428c-.547-.148-1.448-.312-1.892.133a.42.42,0,0,0,0,.583,1.224,1.224,0,0,0,1.013.286,5.615,5.615,0,0,0,.879-.331.351.351,0,0,0,0-.672" transform="translate(-45.361 -24.877)" fill="#e56e5a"/>
      <path id="Trazado_912142" data-name="Trazado 912142" d="M87.932,46.195c-.146-.018-.283-.1-.427-.134a1.2,1.2,0,0,0-.532.02,1.322,1.322,0,0,0-.861.5.343.343,0,0,0,.122.466,1.017,1.017,0,0,0,.923-.024.643.643,0,0,1,.325-.106,3.779,3.779,0,0,0,.451.032.377.377,0,0,0,0-.753" transform="translate(-53.162 -28.439)" fill="#e56e5a"/>
      <path id="Trazado_912143" data-name="Trazado 912143" d="M61.86,44.822l-.059.108a.2.2,0,0,0-.023.126.186.186,0,0,0,.054.113.231.231,0,0,0,.087.051.2.2,0,0,0,.152-.02l.108-.059a.231.231,0,0,0,.115-.2.243.243,0,0,0-.068-.165.24.24,0,0,0-.165-.068.233.233,0,0,0-.2.115" transform="translate(-38.159 -27.616)" fill="#e56e5a"/>
      <path id="Trazado_912144" data-name="Trazado 912144" d="M30.875,88.556c-.055.195-.274.278-.4.414a1.413,1.413,0,0,0-.269.674c-.136.567-.513,1.122-.144,1.673a.65.65,0,0,0,1,.129,2.549,2.549,0,0,0,.485-1.692c0-.231-.055-.267.013-.486a1.2,1.2,0,0,0,.034-.713.379.379,0,0,0-.726,0" transform="translate(-18.473 -54.536)" fill="#e56e5a"/>
      <path id="Trazado_912145" data-name="Trazado 912145" d="M30.336,104.034c.006.083.012.166.018.249a.455.455,0,0,0,.126.3.43.43,0,0,0,.609,0,.474.474,0,0,0,.126-.3c.006-.083.012-.166.018-.249a.448.448,0,0,0-.765-.317.445.445,0,0,0-.131.317" transform="translate(-18.738 -63.986)" fill="#e56e5a"/>
      <path id="Trazado_912146" data-name="Trazado 912146" d="M32.427,109.405a.466.466,0,0,0,0-.932.466.466,0,0,0,0,.932" transform="translate(-19.752 -67.005)" fill="#e56e5a"/>
      <path id="Trazado_912147" data-name="Trazado 912147" d="M38.493,64.073c-.322-.1-.624.22-.792.453a.71.71,0,0,0-.194.514.4.4,0,0,0,.037.089c.019.036.058.11.023.032.026.058.029.114.08.159a.109.109,0,0,0,.169-.022c.016-.024.05-.141-.015-.043a.223.223,0,0,0,.1-.056q-.115.062.01,0a1.216,1.216,0,0,0,.226-.341,1.23,1.23,0,0,1,.4-.443.192.192,0,0,0-.045-.347" transform="translate(-23.164 -39.567)" fill="#e56e5a"/>
      <path id="Trazado_912148" data-name="Trazado 912148" d="M37.569,73.018a.205.205,0,0,0-.128.094.332.332,0,0,0-.023.058.184.184,0,0,0,.047.18.282.282,0,0,0,.054.041l-.044-.044,0,0a.119.119,0,0,0,.162.042l.008-.006-.064.018a.148.148,0,0,0,.063-.008l-.18-.048a.236.236,0,0,0,.049.039.212.212,0,0,0,.162.019.2.2,0,0,0,.141-.249.206.206,0,0,0-.093-.121.217.217,0,0,0-.156-.02" transform="translate(-23.109 -45.1)" fill="#e56e5a"/>
      <path id="Trazado_912149" data-name="Trazado 912149" d="M38.736,82.963c0,.018,0,.037.006.055a.15.15,0,0,0,.018.065.127.127,0,0,0,.027.03.088.088,0,0,0,.122,0,.126.126,0,0,0,.026-.03.145.145,0,0,0,.018-.065c0-.019,0-.037.006-.055a.112.112,0,0,0-.032-.079.111.111,0,0,0-.157,0,.109.109,0,0,0-.032.079" transform="translate(-23.928 -51.178)" fill="#e56e5a"/>
      <path id="Trazado_912150" data-name="Trazado 912150" d="M42.615,94.9a2.082,2.082,0,0,0-.063.524,1.429,1.429,0,0,0,.168.464.116.116,0,0,0,.2,0,.567.567,0,0,0,0-.424,5.276,5.276,0,0,1-.07-.532c-.014-.118-.211-.176-.232-.031" transform="translate(-26.282 -58.57)" fill="#e56e5a"/>
      <path id="Trazado_912151" data-name="Trazado 912151" d="M65.259,74.654c-.127.127-.327.188-.432.344a.746.746,0,0,0,.046.7.127.127,0,0,0,.217,0c.056-.112.038-.235.087-.35a.6.6,0,0,1,.142-.191c.126-.127.237-.3.121-.478a.116.116,0,0,0-.18-.023" transform="translate(-40.001 -46.094)" fill="#e56e5a"/>
      <path id="Trazado_912152" data-name="Trazado 912152" d="M57.26,92.032c-.012.169-.024.335-.047.5a.548.548,0,0,0,.027.367.124.124,0,0,0,.192.025c.263-.219.2-.6.179-.895a.176.176,0,0,0-.351,0" transform="translate(-35.33 -56.745)" fill="#e56e5a"/>
      <path id="Trazado_912153" data-name="Trazado 912153" d="M96,28.586a.079.079,0,0,0,0-.158.079.079,0,0,0,0,.158" transform="translate(-59.251 -17.56)" fill="#e56e5a"/>
      <path id="Trazado_912154" data-name="Trazado 912154" d="M90.826,27.139c-.436-.124-.874-.239-1.309-.368a5.142,5.142,0,0,0-1.074-.278.1.1,0,0,0-.027.2c.369.086.733.292,1.1.411.4.132.812.254,1.216.383.219.07.317-.282.1-.346" transform="translate(-54.572 -16.365)" fill="#e56e5a"/>
      <path id="Trazado_912155" data-name="Trazado 912155" d="M28.615,12.2c-.919.031-1.836.911-2.545,1.411-.784.554-1.639.94-2,1.874a.158.158,0,0,0,.109.192c.228.072.368-.038.537-.187.389-.343.674-.792,1.089-1.132a14.6,14.6,0,0,1,2.834-2.064.051.051,0,0,0-.025-.094" transform="translate(-14.865 -7.535)" fill="#e56e5a"/>
      <path id="Trazado_912156" data-name="Trazado 912156" d="M22.734,22.1a.2.2,0,0,0-.145.07.154.154,0,0,0-.041.078.142.142,0,0,0,.019.08.047.047,0,0,0,.08,0c.007-.011.009-.01.02-.021a.179.179,0,0,0,.019-.026c.01-.014-.006,0,.007-.007s.018-.013.007-.006.021-.011.007-.005l.017,0h.01a.079.079,0,0,0,0-.158" transform="translate(-13.928 -13.65)" fill="#e56e5a"/>
      <path id="Trazado_912157" data-name="Trazado 912157" d="M22.475,22.658l-.061.107a.232.232,0,0,1-.059.086.074.074,0,0,0-.033.081l0,.013a.061.061,0,0,0,.089.036l.013-.007a.071.071,0,0,0,.036-.062A.214.214,0,0,1,22.5,22.8l.047-.1c.02-.045-.042-.085-.068-.04" transform="translate(-13.787 -13.984)" fill="#e56e5a"/>
      <path id="Trazado_912158" data-name="Trazado 912158" d="M2.169,57.713c-.716.929-.754,2.437-.883,3.56-.175,1.518.08,3.012-.088,4.511-.013.12.2.119.187,0a18.458,18.458,0,0,1,.453-4.489c.161-1.171.2-2.381.424-3.543a.05.05,0,0,0-.092-.039" transform="translate(-0.739 -35.636)" fill="#e56e5a"/>
      <path id="Trazado_912159" data-name="Trazado 912159" d="M1.362,79.266a.159.159,0,0,0-.013.132.086.086,0,0,0,.1.049.113.113,0,0,0,.046-.032.045.045,0,0,0,.007-.052l-.01-.022v.073a.094.094,0,0,0,.015-.047c0-.022-.01-.031-.016-.051.007.026,0-.006,0-.007s0,.011,0,0a.058.058,0,0,1,0-.011.069.069,0,0,0-.127-.034" transform="translate(-0.827 -48.943)" fill="#e56e5a"/>
      <path id="Trazado_912160" data-name="Trazado 912160" d="M7.148,68.913a8.033,8.033,0,0,1,2.2.246,2.137,2.137,0,0,0,1.3.221.105.105,0,0,0,.025-.19,2.13,2.13,0,0,0-.632-.2c-.321-.056-.572-.187-.884-.237a13.133,13.133,0,0,0-2.014-.115.136.136,0,0,0,0,.272" transform="translate(-4.334 -42.4)" fill="#e56e5a"/>
      <path id="Trazado_912161" data-name="Trazado 912161" d="M18.785,70.607l.073-.005a.13.13,0,0,0,.069-.021.032.032,0,0,0,0-.055.134.134,0,0,0-.069-.021l-.073,0c-.069,0-.069.112,0,.107" transform="translate(-11.572 -43.548)" fill="#e56e5a"/>
      <path id="Trazado_912162" data-name="Trazado 912162" d="M20.711,70.592a.454.454,0,0,0,.242.021c.056-.011.042-.1-.013-.1a.333.333,0,0,1-.174-.054.071.071,0,1,0-.055.131" transform="translate(-12.762 -43.518)" fill="#e56e5a"/>
      <path id="Trazado_912163" data-name="Trazado 912163" d="M69.7.668A6.178,6.178,0,0,0,67.631.2,5.6,5.6,0,0,0,65.805.07C65.3.134,64.793.247,64.275.3A2.7,2.7,0,0,0,63.227.5a.181.181,0,0,0-.063.242c.093.216.213.242.458.283A.1.1,0,0,0,63.7.838c.477.346,1.881-.124,2.591-.174C67.44.582,68.645.848,69.77.687c.079-.011.033-.153-.045-.107L69.7.594a.043.043,0,0,0,0,.074" transform="translate(-39.004 -0.024)" fill="#e56e5a"/>
      <path id="Trazado_912164" data-name="Trazado 912164" d="M73.222,6.826a17.639,17.639,0,0,0-.177,2c-.021.711-.23,1.414-.189,2.13a.058.058,0,0,0,.113.015,7.379,7.379,0,0,0,.485-2.047,12.51,12.51,0,0,0-.094-2.094.072.072,0,0,0-.138,0" transform="translate(-45.001 -4.185)" fill="#e56e5a"/>
      <path id="Trazado_912165" data-name="Trazado 912165" d="M72.5,21.989c.008.023.018.047.027.07a.044.044,0,0,0,.084,0l.028-.07a.072.072,0,1,0-.138,0" transform="translate(-44.781 -13.527)" fill="#e56e5a"/>
      <path id="Trazado_912166" data-name="Trazado 912166" d="M114.1,14.69a15.653,15.653,0,0,1-1.488,2.2c-.382.5-.718,1.051-1.06,1.577a3.168,3.168,0,0,0-.542,1.375c-.01.118.152.118.19.026a21.135,21.135,0,0,1,2.1-3.041,7.509,7.509,0,0,0,.936-2.077c.017-.08-.1-.138-.138-.058" transform="translate(-68.574 -9.051)" fill="#e56e5a"/>
      <path id="Trazado_912167" data-name="Trazado 912167" d="M114.042,6.275c.139-.416,1.4.589,1.6.726.244.169.514.3.765.456.157.1.322.263.521.243a.069.069,0,0,0,.059-.1A4.925,4.925,0,0,0,115.4,6.175c-.348-.2-1.5-1.028-1.683-.221a.249.249,0,0,0,.109.269l.041.076c.038.081.153.049.177-.023" transform="translate(-70.238 -3.464)" fill="#e56e5a"/>
      <path id="Trazado_912168" data-name="Trazado 912168" d="M123.459,11.859c.063.055.144.136.235.125a.025.025,0,0,0,.007-.049.508.508,0,0,1-.191-.127c-.034-.031-.086.021-.051.051" transform="translate(-76.255 -7.288)" fill="#e56e5a"/>
      <path id="Trazado_912169" data-name="Trazado 912169" d="M124.759,13.174a1.179,1.179,0,0,0,.119.037.137.137,0,0,1,.087.065.033.033,0,0,0,.059-.008c.029-.117-.146-.139-.217-.174-.054-.027-.1.057-.047.08" transform="translate(-77.05 -8.085)" fill="#e56e5a"/>
      <path id="Trazado_912170" data-name="Trazado 912170" d="M126.829,14.693c.047.054.116.08.159.136s.088.111.17.109a.073.073,0,0,0,.051-.122,1.458,1.458,0,0,0-.128-.12c-.058-.039-.132-.044-.19-.083s-.1.037-.061.079" transform="translate(-78.336 -9.022)" fill="#e56e5a"/>
      <path id="Trazado_912171" data-name="Trazado 912171" d="M144.786,40.861a8.749,8.749,0,0,0-.2,1.526c.01.521.138,1.035.154,1.559a.1.1,0,0,0,.19.026,3.149,3.149,0,0,0,.082-1.485c-.049-.554.063-1.069-.036-1.626a.1.1,0,0,0-.193,0" transform="translate(-89.314 -25.196)" fill="#e56e5a"/>
      <path id="Trazado_912172" data-name="Trazado 912172" d="M149.18,87.242a13.158,13.158,0,0,0-.788,1.535,4.746,4.746,0,0,1-.65,1.392.3.3,0,1,0,.473.365,3.951,3.951,0,0,0,.513-1.293,7.471,7.471,0,0,0,.15-.787,4.64,4.64,0,0,1,.438-1.132c.04-.091-.085-.17-.136-.08" transform="translate(-91.207 -53.865)" fill="#e56e5a"/>
      <path id="Trazado_912173" data-name="Trazado 912173" d="M145.337,96.11c-.331-.017-.663-.036-1-.049a1.188,1.188,0,0,1-.694-.136.058.058,0,0,0-.086.05c.011.187.209.253.374.265a11.783,11.783,0,0,0,1.4-.065.032.032,0,0,0,0-.065" transform="translate(-88.679 -59.248)" fill="#e56e5a"/>
      <path id="Trazado_912174" data-name="Trazado 912174" d="M129.487,128.427a2.007,2.007,0,0,0-1.657-.094c-.227.067-.475.163-.7.251a.991.991,0,0,0-.63.591.135.135,0,0,0,.114.2,2.437,2.437,0,0,0,1.239-.4,5.37,5.37,0,0,1,1-.318,2.674,2.674,0,0,0,.607-.1.086.086,0,0,0,.018-.135" transform="translate(-78.132 -79.191)" fill="#e56e5a"/>
      <path id="Trazado_912175" data-name="Trazado 912175" d="M84.723,148.9c-.394-.06-.785-.127-1.178-.192a.076.076,0,0,0-.058.138,2.924,2.924,0,0,0,1.211.238c.1.01.129-.167.025-.183" transform="translate(-51.548 -91.858)" fill="#e56e5a"/>
      <path id="Trazado_912176" data-name="Trazado 912176" d="M36.693,134.738c-.1.1-.167.227-.256.336a1.683,1.683,0,0,1-.216.249,1.084,1.084,0,0,0-.15.125c-.13.153-.392.451-.245.654a.131.131,0,0,0,.223,0c.129-.184.258-.369.375-.561.14-.229.2-.511.359-.732.037-.054-.045-.116-.09-.07" transform="translate(-22.103 -83.219)" fill="#e56e5a"/>
      <path id="Trazado_912177" data-name="Trazado 912177" d="M30.119,135.312c-.75-.368-2.436-1.945-3.315-1.058a.223.223,0,0,0,0,.309c.319.361.914.4,1.358.508.626.158,1.253.25,1.866.457.125.042.212-.157.091-.216" transform="translate(-16.519 -82.765)" fill="#e56e5a"/>
      <path id="Trazado_912178" data-name="Trazado 912178" d="M14.09,104.01a7.047,7.047,0,0,1-.965.607,12.021,12.021,0,0,0-1.073.775c-.333.239-.663.484-1,.713-.176.119-.325.2-.305.432a.132.132,0,0,0,.129.129,2.964,2.964,0,0,0,1.683-.976,16.086,16.086,0,0,0,1.638-1.573.075.075,0,0,0-.106-.106" transform="translate(-6.637 -64.236)" fill="#e56e5a"/>
      <path id="Trazado_912179" data-name="Trazado 912179" d="M10.209,110.339a.5.5,0,0,0-.328-.237.307.307,0,0,0-.3.078l-.008.008.115-.067a.4.4,0,0,0-.092.042l.149-.019a.314.314,0,0,0-.151-.009l.135.036c-.055-.044-.1-.129-.184-.084s-.068.148-.048.219c0-.036.009-.071.014-.107a.238.238,0,0,0,.015.23l-.019-.149c-.006.026,0,.058-.011.082s0,.005,0-.02,0-.033,0,.016a.325.325,0,0,0,.1.273l.02.023c.036.04-.01-.014-.019-.025a.59.59,0,0,0,.12.119c.021.015.058.05-.018-.016a.323.323,0,0,0,.507-.391" transform="translate(-5.859 -67.993)" fill="#e56e5a"/>
      <path id="Trazado_912180" data-name="Trazado 912180" d="M5.164,106.607c.279.255.59.452.864.715a5.467,5.467,0,0,1,.391.386c.1.112.145.2.291.24a.116.116,0,0,0,.141-.141c-.224-.708-1.028-.949-1.57-1.352-.088-.065-.2.079-.117.152" transform="translate(-3.172 -65.748)" fill="#e56e5a"/>
      <path id="Trazado_912181" data-name="Trazado 912181" d="M67.665,31.445c2.044,1,1.833,4.315,1.48,6.085-.317,1.595-.755,3.161-1.145,4.738-.917,3.707-1.66,7.554-4.358,10.44a34.41,34.41,0,0,1-7.994,6.783,26.067,26.067,0,0,1-10.823,3.625c-.149.014-.155.24,0,.237C52.709,63.2,60.223,58.2,64.8,51.968c2.471-3.365,3.02-7.734,4-11.689.413-1.666,1.091-3.62.826-5.344-.194-1.26-.674-3.032-1.9-3.6-.074-.035-.14.075-.065.111" transform="translate(-27.619 -19.351)" fill="#e56e5a"/>
      <path id="Trazado_912182" data-name="Trazado 912182" d="M37.752,116.2a3.945,3.945,0,0,0-.449-.076,2.042,2.042,0,0,1-.568-.219,1.5,1.5,0,0,0-.766-.238c-.109.008-.151.183-.028.2.359.062.6.358.922.5a1.351,1.351,0,0,0,.889.069.123.123,0,0,0,0-.235" transform="translate(-22.155 -71.445)" fill="#e56e5a"/>
      <path id="Trazado_912183" data-name="Trazado 912183" d="M30.758,22.319A11.075,11.075,0,0,0,32.765,24.5a15.018,15.018,0,0,0,2.183,1.558.054.054,0,0,0,.065-.084c-.3-.3-.677-.49-.969-.788-.361-.368-.631-.794-1.008-1.155a20.535,20.535,0,0,0-2.205-1.787c-.042-.031-.105.031-.073.073" transform="translate(-18.994 -13.736)" fill="#b73e2a"/>
      <path id="Trazado_912184" data-name="Trazado 912184" d="M42.509,32.418l.082-.011a.018.018,0,0,0,0-.036l-.082-.011c-.037,0-.037.062,0,.057" transform="translate(-26.241 -19.989)" fill="#b73e2a"/>
      <path id="Trazado_912185" data-name="Trazado 912185" d="M42.9,32.515a.327.327,0,0,0,.185.034c.039-.007.031-.074-.01-.07a.259.259,0,0,1-.142-.042.043.043,0,1,0-.033.079" transform="translate(-26.484 -20.032)" fill="#b73e2a"/>
      <path id="Trazado_912186" data-name="Trazado 912186" d="M74.316,11.086a12.569,12.569,0,0,0-.11,2.66c.032.365.028.943.331,1.207.053.046.161.02.153-.063-.114-1.258-.13-2.545-.3-3.8a.039.039,0,0,0-.079,0" transform="translate(-45.818 -6.824)" fill="#b73e2a"/>
      <path id="Trazado_912187" data-name="Trazado 912187" d="M16.292,69.694c.2.042.39.107.588.14a.77.77,0,0,0,.486-.075.112.112,0,0,0-.03-.218,6.162,6.162,0,0,0-1.022-.016c-.093,0-.122.148-.023.169" transform="translate(-10.025 -42.938)" fill="#b73e2a"/>
      <path id="Trazado_912188" data-name="Trazado 912188" d="M20.672,103.514c-.262.163-.523.33-.786.491a3.858,3.858,0,0,1-.7.443.025.025,0,0,0,.013.049,2.333,2.333,0,0,0,.658-.324c.3-.172.589-.361.883-.541.075-.046.006-.164-.069-.118" transform="translate(-11.84 -63.935)" fill="#b73e2a"/>
      <path id="Trazado_912189" data-name="Trazado 912189" d="M26.934,82.69c.042.888-.06,1.779-.089,2.668-.019.586-.154,1.127.247,1.595a.13.13,0,0,0,.216-.057,6.619,6.619,0,0,0-.037-1.6c-.067-.87-.078-1.745-.165-2.611-.011-.108-.177-.112-.172,0" transform="translate(-16.56 -51.027)" fill="#b73e2a"/>
      <path id="Trazado_912190" data-name="Trazado 912190" d="M28.168,96.884l.073.063c.011.01.023.02.035.029a.166.166,0,0,0,.051.023.043.043,0,0,0,.053-.053.194.194,0,0,0-.019-.045.429.429,0,0,0-.034-.041l-.063-.073a.068.068,0,1,0-.1.1" transform="translate(-17.388 -59.774)" fill="#b73e2a"/>
      <path id="Trazado_912191" data-name="Trazado 912191" d="M28.9,98.915a.587.587,0,0,1,.114.12.375.375,0,0,1,.044.107.117.117,0,0,0,.149.088c.036-.009.039-.07,0-.076s-.023-.02-.026-.051a.3.3,0,0,0-.026-.091.635.635,0,0,0-.153-.2c-.069-.063-.172.043-.1.1" transform="translate(-17.84 -61.026)" fill="#b73e2a"/>
      <path id="Trazado_912192" data-name="Trazado 912192" d="M32.453,46.6c-.6,1.26-2.033,2.015-1.723,3.591a.123.123,0,0,0,.235,0c.089-.374.089-.767.213-1.13a4.3,4.3,0,0,1,.519-.939A8.366,8.366,0,0,0,32.6,46.66c.034-.086-.111-.148-.151-.063" transform="translate(-18.956 -28.758)" fill="#b73e2a"/>
      <path id="Trazado_912193" data-name="Trazado 912193" d="M39.164,53.767a15.165,15.165,0,0,0-1.87,2.04,2.461,2.461,0,0,0-.659,1.932.166.166,0,0,0,.3.04c.266-.586.638-1.117.893-1.711a9.032,9.032,0,0,1,1.5-2.133c.094-.116-.059-.279-.167-.167" transform="translate(-22.612 -33.189)" fill="#b73e2a"/>
      <path id="Trazado_912194" data-name="Trazado 912194" d="M34.86,68.089a1.921,1.921,0,0,0,.056.631.065.065,0,0,0,.124,0,1.921,1.921,0,0,0,.056-.631.118.118,0,0,0-.237,0" transform="translate(-21.533 -41.989)" fill="#b73e2a"/>
      <path id="Trazado_912195" data-name="Trazado 912195" d="M42.149,68.6a6.964,6.964,0,0,0-.442.682c-.028.075.08.132.132.076.093-.1.167-.214.25-.321a2.3,2.3,0,0,0,.227-.34c.058-.11-.11-.209-.167-.1" transform="translate(-25.76 -42.346)" fill="#b73e2a"/>
    </g>
  </g>
</svg>
