<svg id="Grupo_1130724" data-name="Grupo 1130724" xmlns="http://www.w3.org/2000/svg" xmlns:xlink="http://www.w3.org/1999/xlink" width="58.7" height="59.962" viewBox="0 0 58.7 59.962">
  <defs>
    <clipPath id="clip-path">
      <rect id="Rectángulo_411499" data-name="Rectángulo 411499" width="58.7" height="59.962" fill="none"/>
    </clipPath>
  </defs>
  <g id="Grupo_1130708" data-name="Grupo 1130708" clip-path="url(#clip-path)">
    <path id="Trazado_912196" data-name="Trazado 912196" d="M49.513,5.72S35.42-.4,19.9,18.531s-4.982,29.75,10.249,36.156,30.035.712,30.889-17.224S55.918,7.713,49.513,5.72" transform="translate(-5.679 -2.21)" fill="#f6ae3c"/>
    <path id="Trazado_912197" data-name="Trazado 912197" d="M51.653,11.055c0-.036.006-.072.009-.108a.194.194,0,0,0-.139-.183,11.094,11.094,0,0,0-11.771,1.779,121.539,121.539,0,0,0-10.435,9.81A15.73,15.73,0,0,0,25.734,27.2c-.5,1.174-.758,2.437-1.259,3.611-.484,1.133-1.281,2.065-1.83,3.159a12.126,12.126,0,0,0-.983,6.441c.252,2.126,1.59,2.9,3.429,3.636,1.069.428,1.835-.779,1.68-1.68a19.7,19.7,0,0,1-.261-4.506c.129-1.913,1.452-3.272,2.183-4.985.708-1.661,1.035-3.47,1.965-5.024a43.221,43.221,0,0,1,3-3.607,57.341,57.341,0,0,1,7.274-8.489c1.133-1.012,1.988-2.469,3.283-3.286.88-.555,6.86-2.035,7.118-1.368a.166.166,0,0,0,.324-.044" transform="translate(-9.987 -4.546)" fill="#ffc166"/>
    <path id="Trazado_912198" data-name="Trazado 912198" d="M42.553,39.805C40.959,41.62,38.727,43,37.346,44.983c-1.127,1.619-.7,3.8-.258,5.569a.309.309,0,0,0,.59,0A12.267,12.267,0,0,1,40.025,44.8c1.187-1.409,2.485-2.7,3.563-4.2.435-.606-.543-1.36-1.036-.8" transform="translate(-16.951 -18.33)" fill="#ffc166"/>
    <path id="Trazado_912199" data-name="Trazado 912199" d="M34.77,63.773a2.178,2.178,0,0,1-.418,1.315c-.244.242-.561.407-.806.659a3.33,3.33,0,0,0-.893,1.383,1.782,1.782,0,0,0,.415,1.671,1.363,1.363,0,0,0,1.806.041.6.6,0,0,0,.211-.806l-.092-.158q.039.3.078.595a28.74,28.74,0,0,0,.671-4.567c0-.537-.893-.7-.971-.132" transform="translate(-15.084 -29.348)" fill="#ffc166"/>
    <path id="Trazado_912200" data-name="Trazado 912200" d="M62.615,21.3c-.481.446-.984.869-1.469,1.311-.457.416-1.022.829-1.1,1.471a.521.521,0,0,0,.656.5c.558-.172.924-.8,1.322-1.211.438-.449.89-.883,1.322-1.338a.518.518,0,0,0-.733-.733" transform="translate(-27.787 -9.789)" fill="#ffc166"/>
    <path id="Trazado_912201" data-name="Trazado 912201" d="M52.757,42.47a10.524,10.524,0,0,0-1.964,3.715.4.4,0,0,0,.732.309c.8-1.119,1.532-2.263,2.371-3.359.508-.663-.649-1.367-1.139-.666" transform="translate(-23.5 -19.52)" fill="#ffc166"/>
    <path id="Trazado_912202" data-name="Trazado 912202" d="M67.112,23.763c1.211,1.844,1.252,4.736,1.654,6.861.43,2.279.517,4.537.793,6.821a16.021,16.021,0,0,1-1.042,8.745c-.84,2.107-1.267,4.247-2.284,6.319a21.056,21.056,0,0,1-3.828,5.226,8.489,8.489,0,0,1-6.61,2.494,54.474,54.474,0,0,1-7.105-.339c-2.161-.3-4.078-1.4-6.291-.86a.571.571,0,0,0-.135,1.033c2.647,1.4,4.376,2.358,7.369,2.786a27.372,27.372,0,0,0,8.136.282c2.536-.423,4.475-2.011,6.594-3.278A12.671,12.671,0,0,0,69.5,54.878c1.123-2.216,2.537-4.628,2.483-7.15a14.353,14.353,0,0,0-.755-3.616c-.555-2.08-.181-3.961-.361-6.025a50.37,50.37,0,0,0-.933-7.3c-.543-2.277-.841-5.41-2.3-7.333-.231-.306-.75-.028-.529.309" transform="translate(-19.433 -10.793)" fill="#e29627"/>
    <path id="Trazado_912203" data-name="Trazado 912203" d="M66.505,85.825c-1.711,1.172-3.555.539-5.377.3a30.3,30.3,0,0,1-4.32-.494c-.928-.258-3.681-.761-3.03,1.166.744,2.2,4.924,1.212,6.434,1.081,2.226-.193,4.708-.189,6.549-1.716.184-.153-.058-.469-.257-.333" transform="translate(-24.842 -39.507)" fill="#e29627"/>
    <path id="Trazado_912204" data-name="Trazado 912204" d="M49.12,85.66a.467.467,0,0,1-.354-.131.784.784,0,0,1-.268-.456c-.038-.227-.344-.174-.409,0a1.107,1.107,0,0,0,1.144,1.42.424.424,0,1,0-.113-.833" transform="translate(-22.225 -39.3)" fill="#e29627"/>
    <path id="Trazado_912205" data-name="Trazado 912205" d="M86.623,55.826a3.289,3.289,0,0,1-.055.877.236.236,0,0,0,.454.125,3.877,3.877,0,0,0,.213-1c.025-.4-.646-.392-.612,0" transform="translate(-40.06 -25.698)" fill="#e29627"/>
    <path id="Trazado_912206" data-name="Trazado 912206" d="M95.676,39.225a4.257,4.257,0,0,1,.211,1.519c.074.662.246,1.311.32,1.976a17.953,17.953,0,0,0,.532,3.129.309.309,0,0,0,.59,0,9.236,9.236,0,0,0-.273-3.483,11.613,11.613,0,0,0-.811-3.475c-.209-.376-.749-.045-.569.333" transform="translate(-44.26 -17.922)" fill="#e29627"/>
    <path id="Trazado_912207" data-name="Trazado 912207" d="M71.533,82.7a.156.156,0,0,1,0-.111c-.021.068-.02.066,0-.008.048-.056.048-.056,0,0s-.055.051,0,.01a2.436,2.436,0,0,1-.421.218,4.4,4.4,0,0,0-.429.189,1.33,1.33,0,0,0-.333.316.428.428,0,0,0,.086.666,1.22,1.22,0,0,0,.78.13,2.363,2.363,0,0,0,.761-.269,1.335,1.335,0,0,0,.74-1.463.62.62,0,0,0-.753-.428.628.628,0,0,0-.428.753" transform="translate(-32.5 -37.912)" fill="#e29627"/>
    <path id="Trazado_912208" data-name="Trazado 912208" d="M81.431,74.166c-.33.269-.667.528-1,.79-.319.248-.713.351-1.022.59-.231.178-.343.48-.535.692a4.941,4.941,0,0,0-.523.562c-.3.454.317,1.117.776.776a6.6,6.6,0,0,1,.678-.333,1.636,1.636,0,0,0,.6-.705,4.412,4.412,0,0,1,.566-1.044c.279-.319.56-.637.832-.962a.259.259,0,0,0-.366-.366" transform="translate(-36.22 -34.291)" fill="#e29627"/>
    <path id="Trazado_912209" data-name="Trazado 912209" d="M35.926,84.146a7.471,7.471,0,0,1-2.831-.759,7.615,7.615,0,0,1-1.482-1.38.36.36,0,0,0-.5,0c-.743.748.4,1.632,1.01,1.924a4.792,4.792,0,0,0,1.489.444,16.328,16.328,0,0,0,2.313.288.259.259,0,0,0,0-.518" transform="translate(-14.286 -37.905)" fill="#e29627"/>
    <path id="Trazado_912210" data-name="Trazado 912210" d="M62.982,76.811c-.245-.044-.493-.056-.74-.088a3.177,3.177,0,0,1-.64-.178c-.247-.085-.426.211-.319.415.257.49,1.005.512,1.473.669.524.175.76-.722.226-.818" transform="translate(-28.346 -35.416)" fill="#e29627"/>
    <path id="Trazado_912211" data-name="Trazado 912211" d="M81.323,41.7c.33,1.963.674,3.924,1.008,5.886.031.185.326.138.323-.044a39.012,39.012,0,0,0-.877-5.967c-.05-.3-.5-.172-.454.125" transform="translate(-37.633 -19.163)" fill="#e29627"/>
    <path id="Trazado_912212" data-name="Trazado 912212" d="M38.051,18.224a2.7,2.7,0,0,0,1.379-.308,2.683,2.683,0,0,0,1.152-.74,2.682,2.682,0,0,0,.74-1.152,2.7,2.7,0,0,0,.308-1.38q-.064-.475-.128-.951a3.58,3.58,0,0,0-.921-1.58l-.725-.56a3.562,3.562,0,0,0-1.807-.489,2.7,2.7,0,0,0-1.379.308,2.683,2.683,0,0,0-1.152.74,2.686,2.686,0,0,0-.74,1.152,2.7,2.7,0,0,0-.308,1.379l.128.952a3.576,3.576,0,0,0,.921,1.579l.725.56a3.562,3.562,0,0,0,1.807.489" transform="translate(-15.952 -5.119)" fill="#d05840"/>
    <path id="Trazado_912213" data-name="Trazado 912213" d="M51.414,33.264l.01.01.24.185a.885.885,0,0,0,.44.141.6.6,0,0,0,.314,0,.59.59,0,0,0,.3-.081.888.888,0,0,0,.381-.244l.185-.24.119-.283a.9.9,0,0,0,.021-.472,1.17,1.17,0,0,0-.233-.56.894.894,0,0,0-.332-.305l-.283-.119-.315-.042-.314.042a1.326,1.326,0,0,0-.707.544.137.137,0,0,0-.007.016l-.118.278a.878.878,0,0,0-.02.464.575.575,0,0,0,.08.293.87.87,0,0,0,.24.374" transform="translate(-23.635 -14.464)" fill="#d05840"/>
    <path id="Trazado_912214" data-name="Trazado 912214" d="M90.074,46.378a3.184,3.184,0,0,0,3.013-2.027,2.484,2.484,0,0,0,.284-1.271l-.118-.876a3.3,3.3,0,0,0-.848-1.455l-.667-.516a3.286,3.286,0,0,0-1.664-.45A3.184,3.184,0,0,0,87.06,41.81a2.486,2.486,0,0,0-.284,1.271l.118.877a3.294,3.294,0,0,0,.848,1.455l.667.516a3.281,3.281,0,0,0,1.664.45" transform="translate(-40.157 -18.41)" fill="#d05840"/>
    <path id="Trazado_912215" data-name="Trazado 912215" d="M85.76,80.272a.364.364,0,0,1,.024.033q-.128-.982-.257-1.962a.164.164,0,0,1-.009.027l.258-.612a.13.13,0,0,1-.018.03l.4-.522-.006.008-.4.523a1.924,1.924,0,0,0-.307.962,1.3,1.3,0,0,0,0,.688,1.925,1.925,0,0,0,.307.962l0,.005.4.522a1.933,1.933,0,0,0,.829.533,1.281,1.281,0,0,0,.651.176,1.949,1.949,0,0,0,1.027-.046h.007a2.9,2.9,0,0,0,1.546-1.188q.13-.309.261-.618a2.608,2.608,0,0,0,0-1.375.091.091,0,0,0-.007-.02l-.259-.615c-.067-.105-.126-.169-.22-.291q-.1-.139-.208-.269a2.831,2.831,0,0,0-1.8-.746l-.044,0a2.523,2.523,0,0,0-2.178,3.795" transform="translate(-39.52 -35.39)" fill="#d05840"/>
    <path id="Trazado_912216" data-name="Trazado 912216" d="M44.991,94.025a3.85,3.85,0,0,0,2.448-1.014,3.85,3.85,0,0,0,1.014-2.448l-.124-.92a3.455,3.455,0,0,0-.89-1.528l-.7-.541a3.444,3.444,0,0,0-1.748-.473,3.853,3.853,0,0,0-2.448,1.014,3.85,3.85,0,0,0-1.014,2.448l.124.921a3.457,3.457,0,0,0,.89,1.527l.7.542a3.449,3.449,0,0,0,1.748.473" transform="translate(-19.217 -40.307)" fill="#d05840"/>
    <path id="Trazado_912217" data-name="Trazado 912217" d="M56.425,69.8a2.82,2.82,0,0,0,2.668-1.794,2.2,2.2,0,0,0,.251-1.125q-.052-.388-.1-.776a2.915,2.915,0,0,0-.751-1.288l-.59-.456a2.9,2.9,0,0,0-1.474-.4,2.818,2.818,0,0,0-2.668,1.794,2.2,2.2,0,0,0-.251,1.125l.1.776a2.912,2.912,0,0,0,.751,1.288l.59.457a2.9,2.9,0,0,0,1.474.4" transform="translate(-24.76 -29.601)" fill="#d05840"/>
    <path id="Trazado_912218" data-name="Trazado 912218" d="M20.653,80.222a2.344,2.344,0,0,0,1.2-.269A2.8,2.8,0,0,0,23.5,78.307a2.348,2.348,0,0,0,.269-1.2l-.111-.828a3.117,3.117,0,0,0-.8-1.375l-.631-.487a3.107,3.107,0,0,0-1.572-.425,2.349,2.349,0,0,0-1.2.269,2.8,2.8,0,0,0-1.647,1.647,2.347,2.347,0,0,0-.269,1.2l.111.828a3.111,3.111,0,0,0,.8,1.375l.631.487a3.1,3.1,0,0,0,1.572.425" transform="translate(-8.115 -34.24)" fill="#d05840"/>
    <path id="Trazado_912219" data-name="Trazado 912219" d="M9.933,54.667c3.334,0,3.339-5.182,0-5.182s-3.339,5.182,0,5.182" transform="translate(-3.439 -22.901)" fill="#d05840"/>
    <path id="Trazado_912220" data-name="Trazado 912220" d="M99.577,64.189A3.433,3.433,0,0,0,102.827,62a2.682,2.682,0,0,0,.306-1.371q-.064-.473-.127-.946a3.553,3.553,0,0,0-.914-1.569l-.72-.556a3.538,3.538,0,0,0-1.794-.486,3.434,3.434,0,0,0-3.251,2.186,2.684,2.684,0,0,0-.306,1.37q.064.473.127.946a3.559,3.559,0,0,0,.915,1.569l.72.556a3.535,3.535,0,0,0,1.8.486" transform="translate(-44.435 -26.413)" fill="#d05840"/>
    <path id="Trazado_912221" data-name="Trazado 912221" d="M95.978,21.421a2.54,2.54,0,0,0,1.615-.669,1.707,1.707,0,0,0,.472-.735,1.718,1.718,0,0,0,.2-.881q-.041-.3-.082-.607a2.283,2.283,0,0,0-.588-1.008l-.463-.357a2.274,2.274,0,0,0-1.153-.312,2.543,2.543,0,0,0-1.615.669,1.712,1.712,0,0,0-.472.735,1.717,1.717,0,0,0-.2.88q.041.3.082.608a2.281,2.281,0,0,0,.588,1.008l.463.357a2.269,2.269,0,0,0,1.153.312" transform="translate(-43.358 -7.798)" fill="#d05840"/>
    <path id="Trazado_912222" data-name="Trazado 912222" d="M35.468,53.412a2.426,2.426,0,0,0,1.243-.277,2.9,2.9,0,0,0,1.706-1.706,2.431,2.431,0,0,0,.278-1.243q-.057-.429-.115-.858a3.229,3.229,0,0,0-.83-1.424l-.653-.5a3.2,3.2,0,0,0-1.628-.441,2.426,2.426,0,0,0-1.243.278,2.9,2.9,0,0,0-1.706,1.706,2.429,2.429,0,0,0-.278,1.243q.057.429.115.857a3.231,3.231,0,0,0,.83,1.424l.653.5a3.2,3.2,0,0,0,1.628.44" transform="translate(-14.92 -21.731)" fill="#d05840"/>
    <path id="Trazado_912223" data-name="Trazado 912223" d="M23.505,33.552a2.043,2.043,0,0,0,1.043-.233,2.439,2.439,0,0,0,1.432-1.432,2.046,2.046,0,0,0,.233-1.044l-.1-.72a2.709,2.709,0,0,0-.7-1.2l-.548-.423a2.693,2.693,0,0,0-1.367-.37,2.032,2.032,0,0,0-1.043.233A2.435,2.435,0,0,0,21.03,29.8a2.044,2.044,0,0,0-.233,1.043l.1.72a2.707,2.707,0,0,0,.7,1.195l.548.424a2.7,2.7,0,0,0,1.367.37" transform="translate(-9.623 -13.02)" fill="#d05840"/>
    <path id="Trazado_912224" data-name="Trazado 912224" d="M62.684,46.713c7.335,0,7.347-11.4,0-11.4s-7.347,11.4,0,11.4" transform="translate(-26.461 -16.343)" fill="#d05840"/>
    <path id="Trazado_912225" data-name="Trazado 912225" d="M71.021,102.029a6.185,6.185,0,0,0,3.93-1.628,6.189,6.189,0,0,0,1.628-3.931q-.1-.738-.2-1.477a5.557,5.557,0,0,0-1.43-2.453l-1.125-.869a5.533,5.533,0,0,0-2.805-.759,6.185,6.185,0,0,0-3.93,1.628,6.19,6.19,0,0,0-1.628,3.93q.1.739.2,1.478a5.557,5.557,0,0,0,1.43,2.453l1.125.869a5.533,5.533,0,0,0,2.805.759" transform="translate(-30.293 -42.07)" fill="#d05840"/>
    <path id="Trazado_912226" data-name="Trazado 912226" d="M92.33,22.6a3.654,3.654,0,0,0,1.87-.418,3.634,3.634,0,0,0,1.562-1,3.641,3.641,0,0,0,1-1.562,3.661,3.661,0,0,0,.418-1.871q-.087-.645-.174-1.29a4.845,4.845,0,0,0-1.249-2.142l-.982-.759a4.836,4.836,0,0,0-2.45-.663,3.654,3.654,0,0,0-1.87.418,3.633,3.633,0,0,0-1.562,1,3.642,3.642,0,0,0-1,1.562,3.659,3.659,0,0,0-.418,1.87l.174,1.29A4.845,4.845,0,0,0,88.9,21.179l.982.759a4.83,4.83,0,0,0,2.45.663" transform="translate(-40.48 -5.965)" fill="#d05840"/>
    <path id="Trazado_912227" data-name="Trazado 912227" d="M6.28,58.464a4.726,4.726,0,0,0,2.418-.54,4.7,4.7,0,0,0,2.02-1.3,4.7,4.7,0,0,0,1.3-2.02,4.727,4.727,0,0,0,.54-2.418l-.224-1.669a6.268,6.268,0,0,0-1.614-2.769l-1.27-.982a6.245,6.245,0,0,0-3.168-.857,4.721,4.721,0,0,0-2.418.54,4.7,4.7,0,0,0-2.02,1.3,4.7,4.7,0,0,0-1.3,2.02A4.726,4.726,0,0,0,0,52.188l.224,1.669a6.271,6.271,0,0,0,1.614,2.769l1.27.982a6.25,6.25,0,0,0,3.168.857" transform="translate(0 -21.245)" fill="#d05840"/>
    <path id="Trazado_912228" data-name="Trazado 912228" d="M58.478,7.54a2.842,2.842,0,0,0,1.452-.324,2.821,2.821,0,0,0,1.213-.78,2.817,2.817,0,0,0,.779-1.213,2.837,2.837,0,0,0,.325-1.452q-.068-.5-.135-1a3.767,3.767,0,0,0-.969-1.663L60.379.518A3.748,3.748,0,0,0,58.478,0a2.837,2.837,0,0,0-1.452.324,2.825,2.825,0,0,0-1.213.779,2.822,2.822,0,0,0-.779,1.213,2.836,2.836,0,0,0-.325,1.452q.068.5.135,1a3.765,3.765,0,0,0,.969,1.663l.763.589a3.748,3.748,0,0,0,1.9.515" transform="translate(-25.317 0)" fill="#d05840"/>
    <path id="Trazado_912229" data-name="Trazado 912229" d="M78.144,7.112a2.338,2.338,0,0,0,1.2-.267,2.332,2.332,0,0,0,1-.644,2.329,2.329,0,0,0,.643-1A2.342,2.342,0,0,0,81.253,4l-.111-.826a3.1,3.1,0,0,0-.8-1.373l-.629-.486A3.091,3.091,0,0,0,78.144.895a2.35,2.35,0,0,0-1.2.268,2.339,2.339,0,0,0-1,.643,2.342,2.342,0,0,0-.643,1A2.346,2.346,0,0,0,75.035,4l.111.826a3.107,3.107,0,0,0,.8,1.372l.629.487a3.1,3.1,0,0,0,1.569.424" transform="translate(-34.724 -0.413)" fill="#d05840"/>
    <path id="Trazado_912230" data-name="Trazado 912230" d="M69.48,23.113a1.082,1.082,0,0,0,1.024-.689.842.842,0,0,0,.1-.432q-.02-.149-.04-.3a1.122,1.122,0,0,0-.288-.494l-.227-.175a1.114,1.114,0,0,0-.566-.153,1.082,1.082,0,0,0-1.024.689.842.842,0,0,0-.1.432q.02.149.04.3a1.122,1.122,0,0,0,.288.494l.227.175a1.112,1.112,0,0,0,.566.153" transform="translate(-31.635 -9.658)" fill="#d05840"/>
    <path id="Trazado_912231" data-name="Trazado 912231" d="M75.928,69.57a1.271,1.271,0,0,0,1.237-1.237c-.015-.11-.03-.22-.044-.329a1.235,1.235,0,0,0-.318-.546l-.25-.193a1.234,1.234,0,0,0-.625-.169,1.271,1.271,0,0,0-1.237,1.238q.022.164.044.329a1.235,1.235,0,0,0,.318.546l.25.194a1.233,1.233,0,0,0,.625.169" transform="translate(-34.565 -31.05)" fill="#d05840"/>
    <path id="Trazado_912232" data-name="Trazado 912232" d="M68.293,82.382a1.766,1.766,0,0,0,1.719-1.719l-.061-.457a1.715,1.715,0,0,0-.442-.759l-.348-.269a1.714,1.714,0,0,0-.868-.235,1.766,1.766,0,0,0-1.719,1.72l.061.457a1.716,1.716,0,0,0,.442.759l.348.269a1.708,1.708,0,0,0,.868.235" transform="translate(-30.808 -36.533)" fill="#d05840"/>
    <path id="Trazado_912233" data-name="Trazado 912233" d="M34.633,65.3a1.8,1.8,0,0,0,1.7-1.144,1.4,1.4,0,0,0,.16-.717l-.066-.495a1.861,1.861,0,0,0-.479-.821l-.377-.291a1.854,1.854,0,0,0-.939-.254,1.8,1.8,0,0,0-1.7,1.144,1.4,1.4,0,0,0-.16.717l.066.494a1.866,1.866,0,0,0,.479.821l.377.291a1.854,1.854,0,0,0,.939.254" transform="translate(-15.166 -28.495)" fill="#d05840"/>
    <path id="Trazado_912234" data-name="Trazado 912234" d="M93.7,93.168a2.6,2.6,0,0,0,2.528-2.528l-.09-.672a2.528,2.528,0,0,0-.65-1.115l-.511-.4a2.522,2.522,0,0,0-1.276-.345,2.6,2.6,0,0,0-2.528,2.528l.09.672a2.528,2.528,0,0,0,.65,1.115l.511.4a2.522,2.522,0,0,0,1.276.345" transform="translate(-42.192 -40.776)" fill="#d05840"/>
    <path id="Trazado_912235" data-name="Trazado 912235" d="M37.276,37.673a.74.74,0,0,0,.377-.084.721.721,0,0,0,.315-.2.739.739,0,0,0,.2-.314.746.746,0,0,0,.084-.378c-.012-.086-.024-.174-.035-.26A.985.985,0,0,0,37.968,36l-.2-.153a.969.969,0,0,0-.494-.134.74.74,0,0,0-.377.084.751.751,0,0,0-.315.2,1.094,1.094,0,0,0-.287.692c.012.088.024.174.035.261a.975.975,0,0,0,.252.432l.2.154a.979.979,0,0,0,.494.133" transform="translate(-16.797 -16.528)" fill="#d05840"/>
    <path id="Trazado_912236" data-name="Trazado 912236" d="M38.257,77.685l.048.121.023.057c.027.068.055.135.085.2l.128.166.166.128a.777.777,0,0,0,.208.086.814.814,0,0,0,1-1,.413.413,0,0,0-.045-.11.618.618,0,0,0-.17-.264l-.166-.128-.2-.083-.063-.025-.121-.048a.73.73,0,0,0-.9.9" transform="translate(-17.693 -35.523)" fill="#d05840"/>
    <path id="Trazado_912237" data-name="Trazado 912237" d="M85.559,58.436a.57.57,0,0,0,.291-.065.678.678,0,0,0,.4-.4.57.57,0,0,0,.065-.291c-.009-.067-.018-.134-.027-.2a.753.753,0,0,0-.194-.333l-.153-.118a.752.752,0,0,0-.38-.1.838.838,0,0,0-.533.221.561.561,0,0,0-.156.243.567.567,0,0,0-.065.29c.009.067.018.134.027.2a.753.753,0,0,0,.194.333l.153.118a.752.752,0,0,0,.38.1" transform="translate(-39.246 -26.345)" fill="#d05840"/>
    <path id="Trazado_912238" data-name="Trazado 912238" d="M79.194,31.919,79.1,32a.519.519,0,0,0-.138.333.466.466,0,0,0,.138.333l.1.083.119.092.141.06a.442.442,0,0,0,.235.01.574.574,0,0,0,.278-.116.3.3,0,0,0,.106-.106.292.292,0,0,0,.076-.13.444.444,0,0,0,.05-.227l-.021-.156-.06-.141-.092-.119-.119-.092-.141-.06a.442.442,0,0,0-.235-.01.292.292,0,0,0-.148.04.444.444,0,0,0-.19.122" transform="translate(-36.541 -14.691)" fill="#d05840"/>
    <path id="Trazado_912239" data-name="Trazado 912239" d="M49.66,54.208l.021.091.071.169a.533.533,0,0,0,.182.2.365.365,0,0,0,.156.091.538.538,0,0,0,.273.061l.188-.025.169-.072a.539.539,0,0,0,.2-.182.531.531,0,0,0,.127-.242l.021-.091a.73.73,0,0,0-.187-.71.759.759,0,0,0-.516-.213.545.545,0,0,0-.282.063.533.533,0,0,0-.235.15.728.728,0,0,0-.188.71" transform="translate(-22.97 -24.659)" fill="#d05840"/>
    <path id="Trazado_912240" data-name="Trazado 912240" d="M81.24,22.545a.726.726,0,0,0,.706-.706c-.008-.063-.017-.125-.025-.188a.7.7,0,0,0-.182-.312.735.735,0,0,0-.5-.207.682.682,0,0,0-.646.434.534.534,0,0,0-.061.272c.008.062.017.125.025.187a.7.7,0,0,0,.182.312.735.735,0,0,0,.5.207" transform="translate(-37.269 -9.779)" fill="#d05840"/>
    <path id="Trazado_912241" data-name="Trazado 912241" d="M74.079,70.952a3.819,3.819,0,0,0,3.616-2.433A2.974,2.974,0,0,0,78.035,67q-.07-.526-.141-1.052A3.951,3.951,0,0,0,76.876,64.2l-.8-.619a3.938,3.938,0,0,0-2-.54,3.821,3.821,0,0,0-3.616,2.433A2.977,2.977,0,0,0,70.122,67l.141,1.052a3.954,3.954,0,0,0,1.018,1.746l.8.618a3.933,3.933,0,0,0,2,.54" transform="translate(-32.45 -29.171)" fill="#d05840"/>
    <path id="Trazado_912242" data-name="Trazado 912242" d="M40.33,79.079a3.37,3.37,0,0,0,1.723-.385,4.023,4.023,0,0,0,2.364-2.364,3.364,3.364,0,0,0,.385-1.723l-.16-1.189a4.464,4.464,0,0,0-1.15-1.974l-.9-.7a4.455,4.455,0,0,0-2.257-.611,3.37,3.37,0,0,0-1.723.385,4.023,4.023,0,0,0-2.364,2.364,3.365,3.365,0,0,0-.385,1.723l.16,1.189a4.465,4.465,0,0,0,1.15,1.973l.9.7a4.455,4.455,0,0,0,2.257.611" transform="translate(-16.593 -32.456)" fill="#d05840"/>
    <path id="Trazado_912243" data-name="Trazado 912243" d="M23.839,44.406a1.283,1.283,0,0,0,.816-.338,1.287,1.287,0,0,0,.338-.816q-.02-.154-.041-.307a1.153,1.153,0,0,0-.3-.509l-.234-.181a1.148,1.148,0,0,0-.582-.157,1.114,1.114,0,0,0-1.055.709.868.868,0,0,0-.1.445q.02.153.041.307a1.153,1.153,0,0,0,.3.509l.234.181a1.148,1.148,0,0,0,.582.157" transform="translate(-10.498 -19.482)" fill="#d05840"/>
    <path id="Trazado_912244" data-name="Trazado 912244" d="M38.355,37.053a2.842,2.842,0,0,0,1.452-.324A3.39,3.39,0,0,0,41.8,34.736a2.837,2.837,0,0,0,.325-1.452q-.068-.5-.135-1a3.767,3.767,0,0,0-.969-1.663l-.763-.589a3.748,3.748,0,0,0-1.9-.515,2.837,2.837,0,0,0-1.452.324,3.387,3.387,0,0,0-1.991,1.992,2.836,2.836,0,0,0-.325,1.452q.068.5.135,1a3.765,3.765,0,0,0,.969,1.663l.763.589a3.748,3.748,0,0,0,1.9.515" transform="translate(-16.005 -13.658)" fill="#d05840"/>
    <path id="Trazado_912245" data-name="Trazado 912245" d="M55.936,25.184a3.143,3.143,0,0,0,2-.828,2.117,2.117,0,0,0,.584-.91,2.133,2.133,0,0,0,.243-1.089q-.051-.376-.1-.752a2.823,2.823,0,0,0-.727-1.247l-.572-.442a2.811,2.811,0,0,0-1.426-.386,3.143,3.143,0,0,0-2,.828,2.12,2.12,0,0,0-.584.91,2.133,2.133,0,0,0-.243,1.089q.051.376.1.752a2.823,2.823,0,0,0,.727,1.247l.572.442a2.811,2.811,0,0,0,1.426.386" transform="translate(-24.577 -9.038)" fill="#d05840"/>
    <path id="Trazado_912246" data-name="Trazado 912246" d="M78.923,33.957a3.1,3.1,0,0,0,2.932-1.972,2.418,2.418,0,0,0,.277-1.237q-.057-.426-.115-.853a3.2,3.2,0,0,0-.825-1.416l-.65-.5a3.192,3.192,0,0,0-1.619-.438,3.1,3.1,0,0,0-2.932,1.972,2.417,2.417,0,0,0-.277,1.236q.057.427.115.853a3.2,3.2,0,0,0,.825,1.416l.65.5a3.192,3.192,0,0,0,1.619.438" transform="translate(-35.038 -12.744)" fill="#d05840"/>
    <path id="Trazado_912247" data-name="Trazado 912247" d="M11.018,49.006a.005.005,0,0,0,0-.01.005.005,0,0,0,0,.01" transform="translate(-5.097 -22.674)" fill="#ed8170"/>
    <path id="Trazado_912248" data-name="Trazado 912248" d="M6.905,48.8c-1.568.128-3.212,1.634-4.069,2.853a3.576,3.576,0,0,0-.486,2.552c.106.72.435.82,1.05,1.053.107.04.207-.08.179-.18a3.706,3.706,0,0,1,.324-3.5c.745-1.055,1.662-2.307,3.031-2.57a.109.109,0,0,0-.029-.213" transform="translate(-1.064 -22.585)" fill="#ed8170"/>
    <path id="Trazado_912249" data-name="Trazado 912249" d="M5.144,63.1a1.2,1.2,0,0,0,.239.263c.076.049.244.132.309.027s-.089-.147-.146-.2c-.08-.083-.155-.17-.242-.246a.113.113,0,0,0-.16.16" transform="translate(-2.366 -29.111)" fill="#ed8170"/>
    <path id="Trazado_912250" data-name="Trazado 912250" d="M6.723,65.314a1.33,1.33,0,0,0,.246.218c.086.077.134.187.227.265a.49.49,0,0,0,.582.087.091.091,0,0,0-.021-.164c-.13-.038-.249-.251-.342-.351a.621.621,0,0,0-.206-.147,1.794,1.794,0,0,1-.291-.1c-.114-.075-.276.078-.193.193" transform="translate(-3.101 -30.127)" fill="#ed8170"/>
    <path id="Trazado_912251" data-name="Trazado 912251" d="M64.277,37.4c-1.373.08-3.21.118-4.372.932a3.5,3.5,0,0,0-1.158,3.417.64.64,0,0,0,1.224,0A4.775,4.775,0,0,1,61,39.027a5.728,5.728,0,0,1,3.305-1.418c.12-.019.092-.22-.029-.213" transform="translate(-27.151 -17.306)" fill="#ed8170"/>
    <path id="Trazado_912252" data-name="Trazado 912252" d="M60.564,48.077a.338.338,0,0,1,.029.026c.019.018-.009-.015-.011-.016s.009.015.012.019-.013-.038-.008-.019a.275.275,0,0,0,.013.035c.008.018.018.034.027.052a.168.168,0,0,0,.169.081.17.17,0,0,0,.141-.121.274.274,0,0,0-.025-.208.342.342,0,0,0-.089-.109.2.2,0,0,0-.13-.054.183.183,0,0,0-.184.184.177.177,0,0,0,.054.13" transform="translate(-28.003 -22.104)" fill="#ed8170"/>
    <path id="Trazado_912253" data-name="Trazado 912253" d="M61.044,50.931c.12.127.24.254.352.387a.154.154,0,0,0,.186.024.5.5,0,0,0,.139-.161.09.09,0,0,0-.077-.134.474.474,0,0,0-.18.013l.19.107a.762.762,0,0,0-.163-.265c-.068-.071-.142-.137-.213-.205a.165.165,0,0,0-.233.233" transform="translate(-28.228 -23.44)" fill="#ed8170"/>
    <path id="Trazado_912254" data-name="Trazado 912254" d="M65.365,40.021c0,.064,0,.13.007.194a.515.515,0,0,0,.071.174.09.09,0,0,0,.155,0,.505.505,0,0,0,.071-.174c.007-.064.005-.129.007-.194a.156.156,0,0,0-.311,0" transform="translate(-30.249 -18.451)" fill="#ed8170"/>
    <path id="Trazado_912255" data-name="Trazado 912255" d="M40.347,13.414a3.283,3.283,0,0,0-1.929.255,2.231,2.231,0,0,0-.669.683,1.431,1.431,0,0,0-.268.445c-.039.15.048.324-.013.466-.044.1,0,.251.138.241.523-.041.727-.5.893-.938.312-.818,1.072-.9,1.849-1a.076.076,0,0,0,0-.151" transform="translate(-17.332 -6.192)" fill="#ed8170"/>
    <path id="Trazado_912256" data-name="Trazado 912256" d="M37.745,19.41c-.074.041-.1.114-.141.183a.888.888,0,0,0-.044.095.254.254,0,0,0-.042.135.12.12,0,0,0,.118.118.329.329,0,0,0,.252-.216.264.264,0,0,0-.018-.3.106.106,0,0,0-.126-.016" transform="translate(-17.362 -8.976)" fill="#ed8170"/>
    <path id="Trazado_912257" data-name="Trazado 912257" d="M24.449,30.314a2.234,2.234,0,0,0-2.971,1.127c-.237.627.825,1.084,1.093.46a2.48,2.48,0,0,1,.607-.922,1.643,1.643,0,0,1,.739-.323,1.418,1.418,0,0,0,.533-.146.114.114,0,0,0,0-.2" transform="translate(-9.923 -13.922)" fill="#ed8170"/>
    <path id="Trazado_912258" data-name="Trazado 912258" d="M22.93,34.946l0,.037.06-.1a.154.154,0,0,0,.061.3.159.159,0,0,0,.149-.113.157.157,0,0,0-.016-.119.176.176,0,0,0-.073-.063l.06.1c0-.012,0-.025,0-.037a.124.124,0,0,0-.034-.083.118.118,0,0,0-.167,0,.132.132,0,0,0-.034.083" transform="translate(-10.595 -16.118)" fill="#ed8170"/>
    <path id="Trazado_912259" data-name="Trazado 912259" d="M23.156,35.591c.03.092.061.183.088.275a.631.631,0,0,0,.091.257.1.1,0,0,0,.173-.046.443.443,0,0,0-.06-.285c-.038-.092-.08-.183-.119-.274s-.2-.028-.172.073" transform="translate(-10.714 -16.415)" fill="#ed8170"/>
    <path id="Trazado_912260" data-name="Trazado 912260" d="M37.59,32.577l.042.032.094-.223c-.964-.147-2.305.015-2.756,1.024-.186.417-.583,2.357.336,2.307a.571.571,0,0,0,.522-.4c.216-.521-.118-1.058,0-1.61.183-.825,1.213-.972,1.893-1.089.179-.031.05-.333-.094-.223l-.042.032a.087.087,0,0,0,0,.147" transform="translate(-16.069 -14.966)" fill="#ed8170"/>
    <path id="Trazado_912261" data-name="Trazado 912261" d="M42.2,30.876a.8.8,0,0,1-.454-.09.124.124,0,0,0-.168.168.761.761,0,0,0,.67.283.183.183,0,1,0-.049-.361" transform="translate(-19.235 -14.241)" fill="#ed8170"/>
    <path id="Trazado_912262" data-name="Trazado 912262" d="M35.947,49.213c-.364.122-.7.343-1.071.43a1.015,1.015,0,0,0-.684.348,8.508,8.508,0,0,0-.472.814.492.492,0,0,0-.029.617.136.136,0,0,0,.181.047,1.448,1.448,0,0,0,.745-1.074c.094-.305.255-.3.515-.425.315-.157.594-.372.917-.517.136-.061.04-.288-.1-.241" transform="translate(-15.547 -22.772)" fill="#ed8170"/>
    <path id="Trazado_912263" data-name="Trazado 912263" d="M33.725,54.868c-.012.038-.022.077-.032.116a.161.161,0,0,0,.041.156l.013.012a.145.145,0,0,0,.2,0l.013-.012A.162.162,0,0,0,34,54.983c-.01-.039-.02-.077-.032-.116a.128.128,0,0,0-.246,0" transform="translate(-15.59 -25.35)" fill="#ed8170"/>
    <path id="Trazado_912264" data-name="Trazado 912264" d="M24.131,43.771a1.019,1.019,0,0,0-.192.236c-.052.086-.078.185-.131.272a.071.071,0,0,0,.111.085,1,1,0,0,0,.175-.216,1.471,1.471,0,0,1,.157-.258.085.085,0,0,0-.12-.12" transform="translate(-11.013 -20.245)" fill="#ed8170"/>
    <path id="Trazado_912265" data-name="Trazado 912265" d="M35.05,62.973a1.445,1.445,0,0,0-.683.586,5.851,5.851,0,0,0-.33,1.056.138.138,0,0,0,.2.154,1.059,1.059,0,0,0,.43-.762,1.108,1.108,0,0,1,.554-.742.17.17,0,0,0-.171-.293" transform="translate(-15.748 -29.133)" fill="#ed8170"/>
    <path id="Trazado_912266" data-name="Trazado 912266" d="M21.867,75.4a2.563,2.563,0,0,0-1.988.875,3.02,3.02,0,0,0-.4,1.565c-.073.469-.144.842.271,1.149a.345.345,0,0,0,.468-.122,6.679,6.679,0,0,0,.312-1.9,2.1,2.1,0,0,1,1.337-1.4c.071-.026.089-.145,0-.163" transform="translate(-8.989 -34.886)" fill="#ed8170"/>
    <path id="Trazado_912267" data-name="Trazado 912267" d="M20.725,82.714a.615.615,0,0,0-.016.177.4.4,0,0,0,.073.188.168.168,0,0,0,.181.074l.047-.008A.146.146,0,0,0,21.117,83a.156.156,0,0,0-.107-.141l-.047-.019.118.155c0-.017,0-.033,0-.049s0-.022,0,0a.155.155,0,0,0,.006-.059c0-.017,0-.033,0-.05l0-.025q0,.032,0,0a.188.188,0,1,0-.363-.1" transform="translate(-9.583 -38.215)" fill="#ed8170"/>
    <path id="Trazado_912268" data-name="Trazado 912268" d="M42.186,73.151c-1.644-.236-2.842.095-3.685,1.594a3.3,3.3,0,0,0,.27,3.6.109.109,0,0,0,.187,0L39,78.261a.168.168,0,0,0-.026-.2c-.361-.354.033-1.077.123-1.474a6.394,6.394,0,0,1,.547-1.662c.534-1.018,1.541-1.262,2.538-1.657.048-.019.067-.109,0-.118" transform="translate(-17.623 -33.82)" fill="#ed8170"/>
    <path id="Trazado_912269" data-name="Trazado 912269" d="M40.088,83.883a.3.3,0,0,0,.045.15c.022.034.052.061.073.1.046.079.092.207.181.247a.105.105,0,0,0,.152-.062A.465.465,0,0,0,40.482,84a.365.365,0,0,0-.115-.1c-.037-.023-.06-.029-.077-.07-.044-.1-.208-.048-.2.055" transform="translate(-18.552 -38.769)" fill="#ed8170"/>
    <path id="Trazado_912270" data-name="Trazado 912270" d="M45.127,90.714c-.469.182-.98.579-.953,1.135,0,.1.156.128.176.024a1.471,1.471,0,0,1,.846-.995c.09-.044.026-.2-.068-.163" transform="translate(-20.442 -41.978)" fill="#ed8170"/>
    <path id="Trazado_912271" data-name="Trazado 912271" d="M57.714,66.3c-.384.084-.634-.223-1.016-.09-.288.1-.4.346-.557.587a2.813,2.813,0,0,0-.564,1.1,1.782,1.782,0,0,0,.378,1.255.224.224,0,0,0,.382,0,2.409,2.409,0,0,0,.382-.9,9.177,9.177,0,0,1,.3-1.031c.045-.154.067-.435.117-.463a1.876,1.876,0,0,1,.311,0,1.446,1.446,0,0,0,.4-.151c.18-.088.049-.349-.131-.31" transform="translate(-25.713 -30.627)" fill="#ed8170"/>
    <path id="Trazado_912272" data-name="Trazado 912272" d="M74.837,64.94a2.9,2.9,0,0,0-3.015,1.23c-.627,1.053-1.543,2.467-.052,3.149.185.084.464-.059.381-.293a4.586,4.586,0,0,1,.185-2.133,2.148,2.148,0,0,1,2.467-1.7c.142.015.175-.222.034-.25" transform="translate(-32.84 -30.028)" fill="#ed8170"/>
    <path id="Trazado_912273" data-name="Trazado 912273" d="M73.762,74.057l.045.046-.027-.1,0,.008a.134.134,0,0,0,.092.163.226.226,0,0,1,.149.093.062.062,0,0,0,.114-.031A.424.424,0,0,0,74,73.949a.134.134,0,0,0-.186,0l0,0,.128-.017-.059-.027a.1.1,0,0,0-.114.148" transform="translate(-34.123 -34.198)" fill="#ed8170"/>
    <path id="Trazado_912274" data-name="Trazado 912274" d="M75.306,75.562a.909.909,0,0,0,.139.114.243.243,0,0,0,.166.06.061.061,0,0,0,.037-.09c-.031-.045-.082-.057-.127-.084a.685.685,0,0,1-.121-.093c-.062-.057-.154.033-.093.093" transform="translate(-34.841 -34.916)" fill="#ed8170"/>
    <path id="Trazado_912275" data-name="Trazado 912275" d="M57.679,21.725l.048-.02a.1.1,0,0,0,.023-.174c-.446-.261-2.426-.457-1.971.538a.132.132,0,0,0,.149.061.866.866,0,0,0,.338-.121c.134-.107.117-.118.3-.145.118-.017,1.056-.157,1.053-.171a.047.047,0,0,0,.058.033" transform="translate(-25.782 -9.866)" fill="#ed8170"/>
    <path id="Trazado_912276" data-name="Trazado 912276" d="M55.385,23.814l-.006.01.147-.084a.179.179,0,0,0-.041,0l-.049.006a.135.135,0,0,0-.062.033.181.181,0,0,0-.066.095.176.176,0,0,0,0,.1.222.222,0,0,0,.049.081.178.178,0,0,0,.178.047.387.387,0,0,0,.079-.039A.17.17,0,0,0,55.672,24a.165.165,0,0,0,.023-.085V23.9l-.006-.044a.13.13,0,0,0-.03-.056.161.161,0,0,0-.086-.06.2.2,0,0,0-.088,0,.173.173,0,0,0-.1.076" transform="translate(-25.591 -10.983)" fill="#ed8170"/>
    <path id="Trazado_912277" data-name="Trazado 912277" d="M55.142,24.478a2.359,2.359,0,0,0-.264.46c-.024.066.057.111.11.084a.3.3,0,0,0,.084-.067.071.071,0,0,0-.086-.111.305.305,0,0,0-.088.061l.127.053c-.005-.151.13-.305.2-.432a.047.047,0,0,0-.081-.048" transform="translate(-25.394 -11.317)" fill="#ed8170"/>
    <path id="Trazado_912278" data-name="Trazado 912278" d="M61.791,2.075a1.938,1.938,0,0,0-2.364-.949c-.636.157-2.168.583-1.986,1.531a.137.137,0,0,0,.2.082A8.985,8.985,0,0,1,59.63,1.86a2.546,2.546,0,0,1,1.994.383.124.124,0,0,0,.168-.168" transform="translate(-26.576 -0.483)" fill="#ed8170"/>
    <path id="Trazado_912279" data-name="Trazado 912279" d="M56.674,5.182a.751.751,0,0,0-.132.1.542.542,0,0,0-.089.167.111.111,0,0,0,.066.134.113.113,0,0,0,.141-.047c.022-.043.052-.083.071-.126A1,1,0,0,1,56.79,5.3c.044-.07-.045-.164-.116-.117" transform="translate(-26.122 -2.392)" fill="#ed8170"/>
    <path id="Trazado_912280" data-name="Trazado 912280" d="M60.391,3.835a2.98,2.98,0,0,0-1.651.1,1.157,1.157,0,0,0-.625.912c-.008.117.16.126.194.026.309-.888,1.343-.773,2.082-.786a.127.127,0,0,0,0-.254" transform="translate(-26.894 -1.744)" fill="#ed8170"/>
    <path id="Trazado_912281" data-name="Trazado 912281" d="M52.942,32.209a1.36,1.36,0,0,0-.6.316.576.576,0,0,0-.1.584.1.1,0,0,0,.182,0,.649.649,0,0,1,.161-.4,1.173,1.173,0,0,1,.435-.2c.189-.063.106-.365-.083-.3" transform="translate(-24.163 -14.901)" fill="#ed8170"/>
    <path id="Trazado_912282" data-name="Trazado 912282" d="M70.112,22.007c-.226-.093-.492.074-.665.209s-.39.413-.251.631a.11.11,0,0,0,.2-.026.993.993,0,0,1,.7-.693.062.062,0,0,0,.016-.12" transform="translate(-32.002 -10.172)" fill="#ed8170"/>
    <path id="Trazado_912283" data-name="Trazado 912283" d="M80.637,2.733a2.026,2.026,0,0,0-2.04-.5,2.319,2.319,0,0,0-.91.518c-.327.3-.3.661-.372,1.074a.11.11,0,0,0,.133.133c.609-.095.746-.628,1.262-.885a2.412,2.412,0,0,1,1.826-.168c.1.037.168-.1.1-.173" transform="translate(-35.779 -0.992)" fill="#ed8170"/>
    <path id="Trazado_912284" data-name="Trazado 912284" d="M77.021,6.186c0,.055-.043.069-.054.122l.044-.057-.059.027a.081.081,0,0,0-.037.091.082.082,0,0,0,.077.059.332.332,0,0,0,.092,0,.119.119,0,0,0,.08-.113.257.257,0,0,0-.046-.154.052.052,0,0,0-.1.026" transform="translate(-35.594 -2.839)" fill="#ed8170"/>
    <path id="Trazado_912285" data-name="Trazado 912285" d="M76.845,6.747a2.6,2.6,0,0,0-.093.409c-.009.168.09.3.268.252a.081.081,0,0,0,.019-.147c-.16-.1-.059-.344-.046-.5a.076.076,0,0,0-.148-.02" transform="translate(-35.519 -3.098)" fill="#ed8170"/>
    <path id="Trazado_912286" data-name="Trazado 912286" d="M79.542,5.287a1.129,1.129,0,0,0-.663.175.75.75,0,0,0-.29.574c-.008.076.11.086.129.017a.774.774,0,0,1,.824-.559.1.1,0,0,0,0-.207" transform="translate(-36.369 -2.447)" fill="#ed8170"/>
    <path id="Trazado_912287" data-name="Trazado 912287" d="M90.618,20.709a4.22,4.22,0,0,1,.213-2.419,4.378,4.378,0,0,1,1.152-1.455c.35-.272.844-.448,1.17-.738.161-.143.331-.284.237-.519a.2.2,0,0,0-.331-.088l-.04.04.37.048c-.495-1.04-2.116.447-2.544.9a4.461,4.461,0,0,0-.974,1.682c-.257.813.323,1.753.427,2.551.025.2.327.213.32,0" transform="translate(-41.56 -7.042)" fill="#ed8170"/>
    <path id="Trazado_912288" data-name="Trazado 912288" d="M97.949,15.973a.346.346,0,0,0,.222.113.89.89,0,0,0,.255-.025.066.066,0,0,0,0-.127,1.459,1.459,0,0,0-.187-.02.229.229,0,0,1-.176-.054c-.074-.073-.182.037-.113.113" transform="translate(-45.319 -7.328)" fill="#ed8170"/>
    <path id="Trazado_912289" data-name="Trazado 912289" d="M100.188,16.589a1.96,1.96,0,0,1,.344.2.347.347,0,0,0,.27.1.066.066,0,0,0,.017-.129c-.051-.018-.074-.062-.112-.1a1.026,1.026,0,0,0-.121-.089,2.408,2.408,0,0,0-.3-.159c-.114-.054-.215.114-.1.171" transform="translate(-46.341 -7.593)" fill="#ed8170"/>
    <path id="Trazado_912290" data-name="Trazado 912290" d="M78.746,32.346a6.393,6.393,0,0,0,.14-.889,1.512,1.512,0,0,1,.7-.957c.464-.256.993-.035,1.348-.5a.2.2,0,0,0-.031-.24c-.463-.576-1.452-.051-1.859.362a2.05,2.05,0,0,0-.459,2.219.085.085,0,0,0,.163,0" transform="translate(-36.298 -13.657)" fill="#ed8170"/>
    <path id="Trazado_912291" data-name="Trazado 912291" d="M91.769,42.029c-.867-.485-2.156-.99-3.007-.21a2.229,2.229,0,0,0-.39,2.86.148.148,0,0,0,.252,0c.4-.569.426-1.316.808-1.886.541-.807,1.481-.533,2.291-.6a.09.09,0,0,0,.046-.167" transform="translate(-40.73 -19.166)" fill="#ed8170"/>
    <path id="Trazado_912292" data-name="Trazado 912292" d="M89.464,48.461a.254.254,0,0,0,.008.117.524.524,0,0,0,.048.075.062.062,0,0,0,.106,0,.444.444,0,0,0,.048-.075.247.247,0,0,0,.008-.117.108.108,0,1,0-.216,0" transform="translate(-41.401 -22.377)" fill="#ed8170"/>
    <path id="Trazado_912293" data-name="Trazado 912293" d="M74.018,93.135A5.386,5.386,0,0,0,73,92.847c-.367-.013-.854,0-1.232.016a3.762,3.762,0,0,0-2.517,1.279c-.51.6-2.368,3.938-.525,4.156a.223.223,0,0,0,.213-.28c-.113-.408.41-1.051.62-1.327a15.3,15.3,0,0,1,1.281-1.823A4.912,4.912,0,0,1,74.028,93.3a.07.07,0,0,0,.067-.088l-.021-.062a.034.034,0,0,0-.055-.015" transform="translate(-31.433 -42.965)" fill="#ed8170"/>
    <path id="Trazado_912294" data-name="Trazado 912294" d="M69.244,105.572c.066.067.109.156.191.2s.119.092.2.1a.052.052,0,0,0,.026-.1.187.187,0,0,1-.069-.061c-.026-.034-.033-.072-.056-.106a1.336,1.336,0,0,0-.15-.184.1.1,0,0,0-.147.147" transform="translate(-32.03 -48.774)" fill="#ed8170"/>
    <path id="Trazado_912295" data-name="Trazado 912295" d="M46.13,89.4c0,.022,0,.045-.005.067l.163-.125c-.732-.307-1.437-.7-2.195-.21a2.774,2.774,0,0,0-1.136,1.989.689.689,0,0,0,.347.6.707.707,0,0,0,.353.1.722.722,0,0,0,.676-.514,3.582,3.582,0,0,1,.838-1.289.794.794,0,0,1,.616-.257.819.819,0,0,0,.557-.2.13.13,0,0,0-.057-.216l-.069-.01a.072.072,0,0,0-.089.068" transform="translate(-19.88 -41.142)" fill="#ed8170"/>
    <path id="Trazado_912296" data-name="Trazado 912296" d="M43.7,95.319a.149.149,0,0,1-.024.06c-.016.02-.036.024-.055.049a.087.087,0,0,0-.007.113.086.086,0,0,0,.111.022.235.235,0,0,0,.084-.244.057.057,0,0,0-.109,0" transform="translate(-20.176 -44.093)" fill="#ed8170"/>
    <path id="Trazado_912297" data-name="Trazado 912297" d="M69.142,80.29a.661.661,0,0,0-.269-.065.949.949,0,0,0-.3.043.416.416,0,0,0-.269.582.188.188,0,0,0,.339-.044.811.811,0,0,0,.027-.1c.012-.052-.018.012.011-.027a.22.22,0,0,1,.11-.078,1.317,1.317,0,0,1,.176-.046,1.286,1.286,0,0,0,.174-.07.1.1,0,0,0,0-.191" transform="translate(-31.587 -37.126)" fill="#ed8170"/>
    <path id="Trazado_912298" data-name="Trazado 912298" d="M46.758,74.495a1.683,1.683,0,0,0-.607.155c-.194.083-.328.233-.542.27-.076.013-.067.126,0,.146a.613.613,0,0,0,.474-.11,1.831,1.831,0,0,1,.675-.271c.117-.013.124-.193,0-.189" transform="translate(-21.082 -34.475)" fill="#ed8170"/>
    <path id="Trazado_912299" data-name="Trazado 912299" d="M88.922,78.146a2.1,2.1,0,0,0-1.968.268c-.452.4-.985,1.325-.513,1.879a.166.166,0,0,0,.233,0,1.293,1.293,0,0,0,.231-.539,2.628,2.628,0,0,1,.435-.848A1.768,1.768,0,0,1,88.9,78.34c.108,0,.139-.172.026-.194" transform="translate(-39.918 -36.111)" fill="#ed8170"/>
    <path id="Trazado_912300" data-name="Trazado 912300" d="M87.253,81.161a.169.169,0,0,1-.092.058c-.039.008-.078,0-.118.009a.066.066,0,0,0-.016.12.275.275,0,0,0,.325-.088c.057-.069-.038-.168-.1-.1" transform="translate(-40.26 -37.549)" fill="#ed8170"/>
    <path id="Trazado_912301" data-name="Trazado 912301" d="M86.672,82.878a.261.261,0,0,0,.129.189.057.057,0,0,0,.068-.089.134.134,0,0,1-.04-.121.08.08,0,0,0-.091-.078.081.081,0,0,0-.067.1" transform="translate(-40.109 -38.308)" fill="#ed8170"/>
    <path id="Trazado_912302" data-name="Trazado 912302" d="M95.724,90.057l.024-.138a.118.118,0,0,0-.079-.14,1.459,1.459,0,0,0-.856-.184,2.024,2.024,0,0,0-.858.522,1.846,1.846,0,0,0-.521.756,3.671,3.671,0,0,0-.048.692.119.119,0,0,0,.052.2c.415.113.547-.481.674-.738a2.822,2.822,0,0,1,.515-.643,1.674,1.674,0,0,1,.319-.291c.048-.03.561-.246.623-.034.02.071.14.082.154,0" transform="translate(-43.201 -41.455)" fill="#ed8170"/>
    <path id="Trazado_912303" data-name="Trazado 912303" d="M93.086,94.381l-.023.068a.113.113,0,1,0,.218,0l-.023-.068a.091.091,0,0,0-.086-.066.093.093,0,0,0-.086.066" transform="translate(-43.066 -43.647)" fill="#ed8170"/>
    <path id="Trazado_912304" data-name="Trazado 912304" d="M102.112,58.877a4.568,4.568,0,0,0-2.4-.022,2.7,2.7,0,0,0-1.377,1.034c-.5.742-1.4,2.989-.085,3.386a.285.285,0,0,0,.348-.2,5.69,5.69,0,0,0-.034-1.094,4.692,4.692,0,0,1,.413-1.634c.564-1.214,1.981-1.265,3.138-1.285a.094.094,0,0,0,0-.189" transform="translate(-45.151 -27.161)" fill="#ed8170"/>
    <path id="Trazado_912305" data-name="Trazado 912305" d="M99.787,67.706a.175.175,0,0,1-.034.14.094.094,0,0,0-.014.109.088.088,0,0,0,.032.032.091.091,0,0,0,.109-.014.376.376,0,0,0,.111-.294.1.1,0,1,0-.2.027" transform="translate(-46.151 -31.272)" fill="#ed8170"/>
    <path id="Trazado_912306" data-name="Trazado 912306" d="M101.371,69.117a.005.005,0,0,0,0-.01.005.005,0,0,0,0,.01" transform="translate(-46.91 -31.981)" fill="#ed8170"/>
  </g>
</svg>
