<svg id="Grupo_1130728" data-name="Grupo 1130728" xmlns="http://www.w3.org/2000/svg" xmlns:xlink="http://www.w3.org/1999/xlink" width="44.231" height="70.453" viewBox="0 0 44.231 70.453">
  <defs>
    <clipPath id="clip-path">
      <rect id="Rect치ngulo_411495" data-name="Rect치ngulo 411495" width="44.232" height="70.453" fill="none"/>
    </clipPath>
    <clipPath id="clip-path-3">
      <rect id="Rect치ngulo_411493" data-name="Rect치ngulo 411493" width="37.652" height="63.889" fill="none"/>
    </clipPath>
  </defs>
  <g id="Grupo_1130699" data-name="Grupo 1130699" clip-path="url(#clip-path)">
    <g id="Grupo_1130698" data-name="Grupo 1130698">
      <g id="Grupo_1130697" data-name="Grupo 1130697" clip-path="url(#clip-path)">
        <path id="Trazado_911972" data-name="Trazado 911972" d="M51.62,166.477a5.715,5.715,0,0,0-2.645-.557,3.8,3.8,0,0,0-2.464,1.028,5.148,5.148,0,0,0,1.667-.035,1.8,1.8,0,0,1,1.546.458,5.5,5.5,0,0,0-1.854.316,1.863,1.863,0,0,0-1.181,1.367c.584-.1,1.129-.362,1.7-.5a2,2,0,0,1,1.7.224,4.276,4.276,0,0,0-1.382,2.578.781.781,0,0,0,.286.72,4.705,4.705,0,0,1,1.415-2.214c.287-.216.617-.374.891-.606A2.133,2.133,0,0,0,52,167.215" transform="translate(-30.725 -109.6)" fill="#c5ffdc"/>
        <path id="Trazado_911973" data-name="Trazado 911973" d="M83.878,119.729a3.871,3.871,0,0,1,2.608.978,1.12,1.12,0,0,1,.463.887,6.258,6.258,0,0,0-1.631-.637,8.31,8.31,0,0,1,1.375,1.521,3.335,3.335,0,0,1,.6,1.932c-.431-.049-.658-.515-.894-.878a3.022,3.022,0,0,0-2.456-1.351,5.521,5.521,0,0,1,.188,3.2c-.061.255-.237.564-.492.5a2.721,2.721,0,0,1-.2-1.32,5.372,5.372,0,0,0-.326-1.715,4.723,4.723,0,0,1-.334-1.052,1.013,1.013,0,0,1,.378-.98" transform="translate(-54.677 -79.092)" fill="#c5ffdc"/>
        <path id="Trazado_911974" data-name="Trazado 911974" d="M31.084,190.77a5.863,5.863,0,0,1,3.448.412,1.736,1.736,0,0,1,1.024.936.226.226,0,0,1,.013.129c-.038.134-.231.117-.363.071a4.71,4.71,0,0,0-2.193-.341c.493.44,1.095.74,1.61,1.154a2.2,2.2,0,0,1,.945,1.663.144.144,0,0,1-.018.079c-.05.074-.164.012-.227-.05A6.124,6.124,0,0,0,31.4,193.1a6.4,6.4,0,0,1,.86,3.313c-.709-.431-.836-1.387-1.238-2.113-.212-.384-.513-.716-.7-1.111a1.223,1.223,0,0,1,.016-1.25" transform="translate(-19.918 -125.957)" fill="#c5ffdc"/>
        <path id="Trazado_911975" data-name="Trazado 911975" d="M31.145,35.782s-2.494-2-2.743-13.55S21.835,3.529,18.676,1.7,11.444-.794,9.864,1.284,10.7,7.02,17.1,10.678s2.161,18.288,5.736,23.858S32.89,44.677,35.384,42.35s-4.239-6.567-4.239-6.567" transform="translate(-6.206 0)" fill="#62e598"/>
        <path id="Trazado_911976" data-name="Trazado 911976" d="M68.214,31.138a18.765,18.765,0,0,0,2.577,15.877c5.4,8.23,4.738,16.044,2,19.369s-5.653,4.9-9.809,4.9-5.32,3.076-3.99,5.486,9.643,2.328,15.3-.083S83.926,65.636,82.6,56.908s-6.151-14.714-3.408-21.115-.582-9.56-3.824-10.474-6.567,2.993-7.149,5.819" transform="translate(-38.621 -16.636)" fill="#62e598"/>
        <path id="Trazado_911977" data-name="Trazado 911977" d="M10.308,109.952s9.31,1.5,9.061,10.308S12.22,125.5,12.3,133.228s-3.076,7.482-5.653,3.99-.665-11.721,3.741-13.882,3.574-7.565-2.577-7.066S0,115.522,0,112.944s4.988-3.658,10.308-2.993" transform="translate(0 -72.506)" fill="#62e598"/>
        <path id="Trazado_911978" data-name="Trazado 911978" d="M15.641,2.3c-1.864.351-2.389,2.205-1.453,3.75.593.978,1.661,2.893,3.075,2.587a.317.317,0,0,0,.139-.527,11.951,11.951,0,0,1-2.048-1.723c-.86-1.193-1.669-3.234.356-3.838a.129.129,0,0,0-.069-.248" transform="translate(-9.073 -1.518)" fill="#c5ffdc"/>
        <path id="Trazado_911979" data-name="Trazado 911979" d="M26.249,22.631c.132.034.262.064.391.106a.091.091,0,0,0,.111-.112c-.052-.169-.257-.207-.389-.265a.148.148,0,1,0-.114.271" transform="translate(-17.269 -14.76)" fill="#c5ffdc"/>
        <path id="Trazado_911980" data-name="Trazado 911980" d="M30.253,25.333a.491.491,0,0,0,.327.14.1.1,0,0,0,0-.21.27.27,0,0,1-.178-.079.108.108,0,0,0-.149,0,.106.106,0,0,0,0,.149" transform="translate(-19.964 -16.617)" fill="#c5ffdc"/>
        <path id="Trazado_911981" data-name="Trazado 911981" d="M34.462,29.09A23.327,23.327,0,0,1,37.043,32.7a17.613,17.613,0,0,1,1.164,4.2.225.225,0,0,0,.441-.059c.23-3.343-1.759-5.756-4-7.937-.126-.123-.294.058-.189.189" transform="translate(-22.743 -19.065)" fill="#c5ffdc"/>
        <path id="Trazado_911982" data-name="Trazado 911982" d="M18.72,4.136l.008-.026a.125.125,0,0,0-.119-.156c-.612-.053-.944.832-.981,1.321-.056.734.163,1.49.967,1.6.056.008.133-.037.106-.106a3.7,3.7,0,0,1-.377-1.345,2.094,2.094,0,0,1,.391-1.287l-.193.025.022.018a.107.107,0,0,0,.175-.046" transform="translate(-11.64 -2.61)" fill="#c5ffdc"/>
        <path id="Trazado_911983" data-name="Trazado 911983" d="M22.564,14.284a1.548,1.548,0,0,1,.124.182.359.359,0,0,0,.166.145c.057.026.145-.033.1-.1-.02-.029-.035-.059-.053-.089a.872.872,0,0,0-.073-.089,1.417,1.417,0,0,0-.147-.165.081.081,0,0,0-.115.115" transform="translate(-14.891 -9.345)" fill="#c5ffdc"/>
        <path id="Trazado_911984" data-name="Trazado 911984" d="M25.437,17.449a1.413,1.413,0,0,0,.289.341c.094.079.259.21.388.156a.106.106,0,0,0,.047-.175c-.087-.078-.228-.082-.331-.144a1.158,1.158,0,0,1-.287-.259c-.049-.059-.144.017-.1.081" transform="translate(-16.797 -11.459)" fill="#c5ffdc"/>
        <path id="Trazado_911985" data-name="Trazado 911985" d="M24.273,6.877a1.642,1.642,0,0,0-.131.565.072.072,0,0,0,.133.036,1.3,1.3,0,0,0,.1-.261c.034-.095.069-.189.1-.284.042-.128-.168-.187-.2-.056" transform="translate(-15.945 -4.494)" fill="#c5ffdc"/>
        <path id="Trazado_911986" data-name="Trazado 911986" d="M49.515,52.993a9.991,9.991,0,0,0-.346,1.764c-.043.319-.075.64-.145.954a2.136,2.136,0,0,0-.131.633c.008.11.182.152.206.028.22-1.1.249-2.256.563-3.338a.076.076,0,0,0-.147-.041" transform="translate(-32.297 -34.971)" fill="#c5ffdc"/>
        <path id="Trazado_911987" data-name="Trazado 911987" d="M43.855,33.157a26.587,26.587,0,0,1,1.74,4.679c.034.1.21.126.23,0,.289-1.774-.765-3.44-1.7-4.838a.158.158,0,0,0-.272.159" transform="translate(-28.955 -21.75)" fill="#c5ffdc"/>
        <path id="Trazado_911988" data-name="Trazado 911988" d="M51.991,63.044a4.593,4.593,0,0,0,.064.985.067.067,0,0,0,.129,0,4.593,4.593,0,0,0,.064-.985.129.129,0,0,0-.258,0" transform="translate(-34.344 -41.564)" fill="#c5ffdc"/>
        <path id="Trazado_911989" data-name="Trazado 911989" d="M50.779,78.474a.005.005,0,0,0,0-.01.005.005,0,0,0,0,.01" transform="translate(-33.541 -51.832)" fill="#c5ffdc"/>
        <path id="Trazado_911990" data-name="Trazado 911990" d="M4.69,114.1a2.524,2.524,0,0,0-.524,2.942,2.632,2.632,0,0,0,2.794,1.047.154.154,0,0,0,0-.295,4.127,4.127,0,0,1-2.139-.768,2.178,2.178,0,0,1,.03-2.764c.1-.11-.055-.266-.162-.162" transform="translate(-2.573 -75.349)" fill="#c5ffdc"/>
        <path id="Trazado_911991" data-name="Trazado 911991" d="M15.636,125.18c.337.064.8.269,1.126.125a.13.13,0,0,0,0-.223,1.793,1.793,0,0,0-.5-.1c-.183-.032-.365-.071-.548-.1s-.276.258-.081.295" transform="translate(-10.256 -82.497)" fill="#c5ffdc"/>
        <path id="Trazado_911992" data-name="Trazado 911992" d="M8.881,112.569a8.834,8.834,0,0,1,4.308-.655c.208.022,3.635.627,3.591.5a.312.312,0,0,0,.609-.082c0-.014,0-.029,0-.043a.328.328,0,0,0-.234-.307,12.458,12.458,0,0,0-4.256-.542,7.4,7.4,0,0,0-4.079.988c-.077.038-.023.17.059.139" transform="translate(-5.803 -73.611)" fill="#c5ffdc"/>
        <path id="Trazado_911993" data-name="Trazado 911993" d="M37.6,116.606a1.97,1.97,0,0,1,.34.188c.106.076.186.208.328.2a.15.15,0,0,0,.148-.148c0-.162-.169-.257-.293-.334a2.172,2.172,0,0,0-.406-.189c-.161-.06-.276.208-.118.279" transform="translate(-24.785 -76.839)" fill="#c5ffdc"/>
        <path id="Trazado_911994" data-name="Trazado 911994" d="M9.274,116.7a.745.745,0,0,1-.005-.66,1.236,1.236,0,0,1,.533-.461,1.353,1.353,0,0,1,.608-.193,1.333,1.333,0,0,0,.5-.041.336.336,0,0,0,.228-.4c-.07-.287-.359-.22-.578-.207a2.064,2.064,0,0,0-1.062.316,1.938,1.938,0,0,0-.722.769,1.055,1.055,0,0,0,.052,1c.1.276.537.17.451-.124" transform="translate(-5.723 -75.78)" fill="#c5ffdc"/>
        <path id="Trazado_911995" data-name="Trazado 911995" d="M15.918,117.229a.449.449,0,0,1,.232-.208l-.176-.1c0,.036-.13.044-.162.053-.092.026-.175.1-.274.069l.1.125c-.007-.073.132-.137.185-.164a.765.765,0,0,1,.157-.057c.019,0,.1-.012.087-.016-.01-.076-.02-.151-.029-.227-.175.17-.395.171-.607.263l.186.319c.055-.038.122-.049.179-.088a.379.379,0,0,0,.148-.191.178.178,0,0,0-.217-.217.564.564,0,0,0-.362.244c-.081.147.1.372.253.253a3.2,3.2,0,0,1,.333-.154,1.359,1.359,0,0,0,.292-.224.146.146,0,0,0-.064-.241.658.658,0,0,0-.505.108c-.134.076-.317.217-.294.393a.134.134,0,0,0,.1.125c.184.042.313-.057.483-.1.143-.037.252-.11.255-.271a.118.118,0,0,0-.175-.1.639.639,0,0,0-.3.3c-.065.125.119.234.19.111" transform="translate(-10.133 -77.054)" fill="#c5ffdc"/>
        <path id="Trazado_911996" data-name="Trazado 911996" d="M18.729,114.868l.406-.094a1.025,1.025,0,0,0,.319-.1.135.135,0,0,0,.027-.21.352.352,0,0,0-.374-.032c-.152.049-.306.093-.459.14a.153.153,0,0,0,.081.295" transform="translate(-12.247 -75.568)" fill="#c5ffdc"/>
        <path id="Trazado_911997" data-name="Trazado 911997" d="M25.314,115.578a1.41,1.41,0,0,0,.4-.012.072.072,0,0,0,0-.138,1.41,1.41,0,0,0-.4-.012.081.081,0,0,0,0,.162" transform="translate(-16.671 -76.237)" fill="#c5ffdc"/>
        <path id="Trazado_911998" data-name="Trazado 911998" d="M45.542,121.523a5.9,5.9,0,0,1,1.481,1.93,1.827,1.827,0,0,1,.119,1.04,3.615,3.615,0,0,0-.2.753.086.086,0,0,0,.169.023,8.123,8.123,0,0,0,.38-.911,2.081,2.081,0,0,0-.208-1.071,6.338,6.338,0,0,0-1.561-1.945.129.129,0,0,0-.182.182" transform="translate(-30.06 -80.131)" fill="#c5ffdc"/>
        <path id="Trazado_911999" data-name="Trazado 911999" d="M97.606,30.523a4.268,4.268,0,0,0-3.9-.858c-2.22.55-3.02,2.581-3.835,4.525-.824,1.968-.643,4.156-.551,6.238a12.179,12.179,0,0,0,1.267,5.106.182.182,0,0,0,.332-.14,32.032,32.032,0,0,1-.433-3.456,18.5,18.5,0,0,1-.053-5.312c.2-1.894.913-4.326,2.351-5.638a3.883,3.883,0,0,1,4.753-.375c.052.04.115-.045.069-.09" transform="translate(-58.948 -19.504)" fill="#c5ffdc"/>
        <path id="Trazado_912000" data-name="Trazado 912000" d="M101.443,36.408a3.391,3.391,0,0,1,.325-.615.387.387,0,0,1,.3-.187c.147,0,.1.112.058.209a.916.916,0,0,1-.47.4.555.555,0,0,1-.1.035c-.041.009-.048-.007-.03.019-.014-.02,0-.055.016-.089a.9.9,0,0,1,.275-.326c.036-.03.256-.167.262-.142a.334.334,0,0,1-.084-.045c.019-.006-.045.134-.039.123a.954.954,0,0,1-.178.209c-.11.107-.3.342-.462.354l.232.3a.549.549,0,0,1,.225-.324,1.231,1.231,0,0,0,.356-.3c.148-.211-.133-.437-.332-.332a2.83,2.83,0,0,0-.234.164c-.124.082-.078.005.074.182,0,.017.005.013.016-.012q.056-.037-.049-.024l-.121-.211c0,.067-.025.192-.1.2l.279.114q-.073.218,0,.139l.053-.047a.488.488,0,0,0,.066-.112.194.194,0,0,0-.114-.28.383.383,0,0,0-.434.549.254.254,0,0,0,.279.113.665.665,0,0,0,.458-.646c0-.382-.467-.346-.666-.144s-.235.564.057.684c.267.11.465-.143.675-.255l-.332-.332c-.087.125-.29.186-.4.3a1.12,1.12,0,0,0-.229.439.243.243,0,0,0,.232.305,1.34,1.34,0,0,0,.766-.462.913.913,0,0,0,.379-.807c-.136-.6-.8-.229-1.068.043a1.043,1.043,0,0,0-.323.582.453.453,0,0,0,.435.516c.438,0,1.168-.685.923-1.149-.12-.229-.42-.184-.593-.049a1.921,1.921,0,0,0-.473.858c-.02.05.063.085.087.037" transform="translate(-66.76 -23.284)" fill="#c5ffdc"/>
        <path id="Trazado_912001" data-name="Trazado 912001" d="M94.214,80.716a.4.4,0,0,0,.126.165l.024.017.014.01.014.012.025.025a.114.114,0,0,0,.189-.05.693.693,0,0,0,.027-.16.27.27,0,0,0-.025-.133l-.018-.04c-.013-.029.017.043,0,0a.205.205,0,1,0-.375.158" transform="translate(-62.22 -53.116)" fill="#c5ffdc"/>
        <path id="Trazado_912002" data-name="Trazado 912002" d="M95.912,84.773A.313.313,0,0,0,96,85a1.247,1.247,0,0,0,.095.095c.006.007.007.007,0,0a.153.153,0,0,1,.014.024.392.392,0,0,0,.027.036c.028.022.034.026.017.013a.108.108,0,0,0,.148,0c.088-.081.041-.2-.016-.289a.551.551,0,0,0-.107-.109c-.03-.026-.074-.049-.1-.07a.1.1,0,0,0-.171.071" transform="translate(-63.357 -55.935)" fill="#c5ffdc"/>
        <path id="Trazado_912003" data-name="Trazado 912003" d="M97.363,40.479a.431.431,0,0,0-.2-.046.3.3,0,0,0-.035,0c-.061,0,.109.042.073.025l-.04-.02a.309.309,0,0,0-.314,0l-.017.012a.342.342,0,0,0-.159.331.329.329,0,0,0,.238.277.346.346,0,0,0,.323-.086.338.338,0,0,0,.052-.4l-.012-.02v.315c.014-.021.024-.044.037-.066l-.087.087c.021-.016.042-.032.064-.045a.22.22,0,0,0,.027-.016l-.028.011c.021-.006.013-.006-.023,0a.191.191,0,0,0,.1-.356" transform="translate(-63.86 -26.684)" fill="#c5ffdc"/>
        <path id="Trazado_912004" data-name="Trazado 912004" d="M106.694,33.269l-.05.014a.077.077,0,0,0-.056.074.078.078,0,0,0,.056.074l.05.014a.091.091,0,1,0,0-.175" transform="translate(-70.411 -21.975)" fill="#c5ffdc"/>
        <path id="Trazado_912005" data-name="Trazado 912005" d="M110.536,35.945a1.972,1.972,0,0,1,.909.141,1.834,1.834,0,0,1,.575.564,1.4,1.4,0,0,1,.291.385,2.843,2.843,0,0,0,.246.6c.033.047.119.064.148,0,.237-.522-.284-.966-.562-1.324a1.774,1.774,0,0,0-1.607-.616.124.124,0,0,0,0,.248" transform="translate(-72.939 -23.58)" fill="#c5ffdc"/>
        <path id="Trazado_912006" data-name="Trazado 912006" d="M116.457,35.9a.005.005,0,0,0,0-.01.005.005,0,0,0,0,.01" transform="translate(-76.927 -23.71)" fill="#c5ffdc"/>
        <path id="Trazado_912007" data-name="Trazado 912007" d="M110.127,33.053a.005.005,0,0,0,0-.01.005.005,0,0,0,0,.01" transform="translate(-72.745 -21.828)" fill="#c5ffdc"/>
        <path id="Trazado_912008" data-name="Trazado 912008" d="M105.385,38.831c-.155-.016-.31-.037-.465-.057a.7.7,0,0,0-.387.006.091.091,0,0,0,0,.156.9.9,0,0,0,.387.044c.155.005.31.012.465.013.106,0,.1-.152,0-.162" transform="translate(-69.024 -25.597)" fill="#c5ffdc"/>
        <path id="Trazado_912009" data-name="Trazado 912009" d="M112.155,33.433a1.016,1.016,0,0,1,.623.283.543.543,0,0,0,.387.19l-.073-.042.026.034c.031.04.11.047.122-.016l.007-.039a.088.088,0,0,0-.059-.1c-.173-.066-.307-.257-.47-.35a1.131,1.131,0,0,0-.563-.167.105.105,0,0,0,0,.21" transform="translate(-74.021 -21.947)" fill="#c5ffdc"/>
        <path id="Trazado_912010" data-name="Trazado 912010" d="M117.572,36.645l-.041.061a.072.072,0,0,0,.1.1l.061-.041a.087.087,0,0,0,.043-.074.086.086,0,0,0-.086-.086.089.089,0,0,0-.074.042" transform="translate(-77.633 -24.18)" fill="#c5ffdc"/>
        <path id="Trazado_912011" data-name="Trazado 912011" d="M97.519,42.685a2.565,2.565,0,0,0-1.389,1.548,4.966,4.966,0,0,0-.468,2.628.154.154,0,0,0,.295,0c.372-1.382.372-3.1,1.688-3.962a.124.124,0,0,0-.125-.214" transform="translate(-63.154 -28.188)" fill="#c5ffdc"/>
        <path id="Trazado_912012" data-name="Trazado 912012" d="M111.6,45.432a10.543,10.543,0,0,1-.433,5.228,5.477,5.477,0,0,0-.428,3.283.159.159,0,0,0,.3,0c.274-1.576.869-3.005,1.157-4.565a10.718,10.718,0,0,0-.085-4.089c-.061-.342-.564-.192-.516.142" transform="translate(-73.085 -29.79)" fill="#c5ffdc"/>
        <path id="Trazado_912013" data-name="Trazado 912013" d="M96.517,69.136a.005.005,0,0,0,0-.01.005.005,0,0,0,0,.01" transform="translate(-63.755 -45.664)" fill="#c5ffdc"/>
        <path id="Trazado_912014" data-name="Trazado 912014" d="M96.219,57.89c.275,1.352-.163,2.632.063,3.964.169,1,.572,2.037.838,3.008a25.324,25.324,0,0,0,2.315,5.963c.152.26.493.072.454-.191A16.545,16.545,0,0,0,98.753,67.6c-.344-.974-.684-1.945-1.035-2.913a20.867,20.867,0,0,1-1.017-2.95c-.245-1.329.074-2.58-.28-3.9a.105.105,0,0,0-.2.056" transform="translate(-63.558 -38.155)" fill="#c5ffdc"/>
        <path id="Trazado_912015" data-name="Trazado 912015" d="M108.72,102.229a2.469,2.469,0,0,1,.157.311,1.593,1.593,0,0,1,.053.291.048.048,0,0,0,.092,0,1.026,1.026,0,0,0,.044-.323,1.538,1.538,0,0,0-.146-.363.109.109,0,1,0-.2.085" transform="translate(-71.809 -67.426)" fill="#c5ffdc"/>
        <path id="Trazado_912016" data-name="Trazado 912016" d="M109.173,105.672c-.035.076-.118.228-.032.3a.064.064,0,0,0,.1-.013c.025-.032.016-.071.026-.108a.617.617,0,0,1,.04-.1.079.079,0,0,0-.027-.1.077.077,0,0,0-.1.027" transform="translate(-72.072 -69.781)" fill="#c5ffdc"/>
        <path id="Trazado_912017" data-name="Trazado 912017" d="M106.645,79.74a.005.005,0,0,0,0-.01.005.005,0,0,0,0,.01" transform="translate(-70.445 -52.669)" fill="#c5ffdc"/>
        <path id="Trazado_912018" data-name="Trazado 912018" d="M47.411,71.754c.214,2.1-.426,4.252.2,6.291.366,1.2,1.063,3.428,2.089,4.224a.134.134,0,0,0,.21-.162c-.316-.579-.43-1.314-.725-1.923a11.9,11.9,0,0,1-.945-2.885c-.361-1.825-.294-3.734-.583-5.578-.021-.137-.258-.106-.244.033" transform="translate(-31.263 -47.32)" fill="#c5ffdc"/>
        <path id="Trazado_912019" data-name="Trazado 912019" d="M56.537,106.683l.117.1a.086.086,0,1,0,.122-.122l-.1-.118a.1.1,0,1,0-.142.142" transform="translate(-37.328 -70.361)" fill="#c5ffdc"/>
        <path id="Trazado_912020" data-name="Trazado 912020" d="M59.087,109.373c.055.061.088.137.145.2a.251.251,0,0,0,.09.064.31.31,0,0,1,.072.042.058.058,0,0,0,.078-.02c.047-.088-.028-.142-.087-.192a1.93,1.93,0,0,1-.163-.226c-.079-.093-.218.043-.135.135" transform="translate(-39.015 -72.141)" fill="#c5ffdc"/>
        <path id="Trazado_912021" data-name="Trazado 912021" d="M96.335,122.174a13.623,13.623,0,0,1-2.589,8.549,24.238,24.238,0,0,1-2.476,2.808,20.769,20.769,0,0,0-2.284,1.97c-.109.149.07.333.226.295,5.6-1.394,7.71-8.58,7.275-13.622-.008-.1-.156-.1-.153,0" transform="translate(-58.762 -80.658)" fill="#c5ffdc"/>
        <path id="Trazado_912022" data-name="Trazado 912022" d="M84.889,163.688c-.06.007-.12.021-.18.028a.316.316,0,0,1-.16-.005c-.05-.027-.129.019-.105.081.073.189.279.159.445.173s.176-.3,0-.277" transform="translate(-55.78 -108.13)" fill="#c5ffdc"/>
        <path id="Trazado_912023" data-name="Trazado 912023" d="M78.616,165.347a3.368,3.368,0,0,0-1.3.041.1.1,0,0,0,0,.193,3.374,3.374,0,0,0,1.3.041.144.144,0,0,0,0-.276" transform="translate(-51.027 -109.197)" fill="#c5ffdc"/>
        <path id="Trazado_912024" data-name="Trazado 912024" d="M66.852,165.448c-.349.047-.7.1-1.043.153a2.08,2.08,0,0,0-.741.16,1.627,1.627,0,0,0-.662,1c-.007.1.153.148.2.053a1.653,1.653,0,0,1,.874-.914,10.448,10.448,0,0,1,1.42-.3c.1-.019.058-.17-.043-.156" transform="translate(-42.545 -109.293)" fill="#c5ffdc"/>
        <path id="Trazado_912025" data-name="Trazado 912025" d="M111.513,114.443a26.144,26.144,0,0,1,.417,3.216c.024.738-.114,1.456-.121,2.19,0,.1.167.134.187.025a7.714,7.714,0,0,0,.194-2.364c-.1-1.075-.341-2.042-.539-3.106-.017-.091-.152-.052-.138.038" transform="translate(-73.664 -75.54)" fill="#c5ffdc"/>
        <path id="Trazado_912026" data-name="Trazado 912026" d="M111.283,135.282l-.054.107c0,.006.006.011.009.005l.054-.108c0-.006-.006-.011-.009-.005" transform="translate(-73.477 -89.364)" fill="#c5ffdc"/>
        <path id="Trazado_912027" data-name="Trazado 912027" d="M22.548,154.4c-1.91,1.62-2.392,3.211-3.175,5.486a9.247,9.247,0,0,0-.321,3.421c.008.583-.248,1.352.323,1.694.09.054.2-.081.116-.15-1.01-.8.563-4.545.813-5.36.585-1.915.944-3.441,2.44-4.9.129-.126-.062-.31-.2-.2" transform="translate(-12.552 -101.973)" fill="#c5ffdc"/>
        <path id="Trazado_912028" data-name="Trazado 912028" d="M19.694,186.981a.458.458,0,0,0,.055.108c.008.013.017.025.025.038s.008.014.009.02a.1.1,0,0,0,.083.094.1.1,0,0,0,.106-.069.31.31,0,0,0,0-.141c0-.017-.008-.033-.012-.05s0-.015-.005-.023c0,.027,0-.009,0-.013a.133.133,0,1,0-.262.036" transform="translate(-13.005 -123.407)" fill="#c5ffdc"/>
        <path id="Trazado_912029" data-name="Trazado 912029" d="M21.926,175.464a7.285,7.285,0,0,0-.42,2.121c.012.409-.039,1.008.279,1.315a.062.062,0,0,0,.1-.06,4.379,4.379,0,0,1,.058-1.532,9.286,9.286,0,0,1,.43-1.72.234.234,0,0,0-.451-.124" transform="translate(-14.206 -115.801)" fill="#c5ffdc"/>
        <path id="Trazado_912030" data-name="Trazado 912030" d="M21.961,188.35a1.782,1.782,0,0,0,.123.328c.047.1.129.23.257.229a.123.123,0,0,0,.115-.088.635.635,0,0,0-.009-.3.808.808,0,0,0-.172-.3.172.172,0,0,0-.314.132" transform="translate(-14.503 -124.282)" fill="#c5ffdc"/>
        <path id="Trazado_912031" data-name="Trazado 912031" d="M23.316,192.3a2.4,2.4,0,0,1,.193.261c.049.086.09.154.195.168.07.009.107-.071.1-.127-.014-.072-.007-.145-.022-.219a1.425,1.425,0,0,0-.117-.285.2.2,0,0,0-.346.2" transform="translate(-15.383 -126.832)" fill="#c5ffdc"/>
        <path id="Trazado_912032" data-name="Trazado 912032" d="M103.31,105.774a24.219,24.219,0,0,1,1.053,7.91,25.585,25.585,0,0,1-1.817,7,9.93,9.93,0,0,1-1.163,2.756A28.889,28.889,0,0,1,99.2,126.03c-1.238,1.411-3.317,1.7-4.621,3.193a.254.254,0,0,0,.306.4c1.851-1.018,4.086-1.007,5.568-2.623a22.32,22.32,0,0,0,2.4-2.676,11.139,11.139,0,0,0,1.272-3.009,20.175,20.175,0,0,0,1.264-7.384,30.993,30.993,0,0,0-1.881-8.207.1.1,0,0,0-.193.053" transform="translate(-62.43 -69.791)" fill="#49c47b"/>
        <path id="Trazado_912033" data-name="Trazado 912033" d="M75.128,176.259a7.266,7.266,0,0,0-1.651.014,7.946,7.946,0,0,1-1.821.324c-.971-.037-2.713.122-3.328-.65-.154-.193-.476-.027-.473.2a1.626,1.626,0,0,0,.429,1.248.558.558,0,0,0,.547.145,18.294,18.294,0,0,1,3.263-.316c1.028-.138,1.948-.715,3.033-.76a.1.1,0,0,0,0-.2" transform="translate(-44.825 -116.172)" fill="#49c47b"/>
        <path id="Trazado_912034" data-name="Trazado 912034" d="M93.792,166.043c-.548.33-1.1.646-1.654.968a6.384,6.384,0,0,0-1.428.84c-.12.128,0,.374.181.311a12.27,12.27,0,0,0,3.059-1.846c.162-.116.018-.378-.159-.272" transform="translate(-59.89 -109.669)" fill="#49c47b"/>
        <path id="Trazado_912035" data-name="Trazado 912035" d="M113.864,84.924a18.581,18.581,0,0,0,.524,2.288c.208.609.484,1.194.663,1.814a.212.212,0,0,0,.4,0,2.537,2.537,0,0,0-.376-1.615,13.5,13.5,0,0,1-.746-2.617c-.072-.306-.532-.176-.469.129" transform="translate(-75.213 -55.899)" fill="#49c47b"/>
        <path id="Trazado_912036" data-name="Trazado 912036" d="M107.419,82.071l.225.356a.038.038,0,0,0,.066-.038l-.208-.366c-.031-.053-.115,0-.082.048" transform="translate(-70.955 -54.168)" fill="#49c47b"/>
        <path id="Trazado_912037" data-name="Trazado 912037" d="M118.595,42.613a.005.005,0,0,0,0-.01.005.005,0,0,0,0,.01" transform="translate(-78.339 -28.143)" fill="#49c47b"/>
        <path id="Trazado_912038" data-name="Trazado 912038" d="M107.718,57.214c-.041.656-.1,1.31-.147,1.965s0,1.334-.09,1.975a.1.1,0,0,0,.193.053,5.742,5.742,0,0,0,.166-1.725c.051-.757.125-1.511.174-2.268.012-.19-.284-.19-.3,0" transform="translate(-70.999 -37.701)" fill="#49c47b"/>
        <path id="Trazado_912039" data-name="Trazado 912039" d="M41.234,14.358a13.008,13.008,0,0,1,2.9,3.9c.462,1.112.886,2.19,1.288,3.328.873,2.472.844,5.3,1.482,7.854a.235.235,0,0,0,.459-.062c.17-2.883.176-5.514-1.142-8.185a24.114,24.114,0,0,0-4.74-7.081.172.172,0,0,0-.243.243" transform="translate(-27.206 -9.291)" fill="#49c47b"/>
        <path id="Trazado_912040" data-name="Trazado 912040" d="M60.076,67.714a5.162,5.162,0,0,0,.131,1.42c.091.42-.05.89.106,1.29a.159.159,0,0,0,.3,0,.614.614,0,0,0,0-.4,6.758,6.758,0,0,1-.165-.667,8.5,8.5,0,0,1-.172-1.644.1.1,0,0,0-.2,0" transform="translate(-39.681 -44.667)" fill="#49c47b"/>
        <path id="Trazado_912041" data-name="Trazado 912041" d="M61.076,85a23.022,23.022,0,0,0,2.8,7.21,10.334,10.334,0,0,0,2.327,2.094c.627.471,1.743.861,1.664,1.886a1.266,1.266,0,0,1-1.046,1.2.259.259,0,0,0,0,.5c.816.158,1.369.217,1.776-.676.5-1.1-.331-1.808-1.09-2.422-.66-.534-1.088-1.246-1.706-1.813a8.208,8.208,0,0,1-2.066-2.569,29.416,29.416,0,0,1-2.278-5.513.2.2,0,0,0-.387.106" transform="translate(-40.341 -55.987)" fill="#49c47b"/>
        <path id="Trazado_912042" data-name="Trazado 912042" d="M63.05,104.411a3.553,3.553,0,0,0,.832,1c.08.054.163-.049.124-.124-.189-.364-.424-.708-.643-1.055-.125-.2-.445-.008-.313.183" transform="translate(-41.629 -68.796)" fill="#49c47b"/>
        <path id="Trazado_912043" data-name="Trazado 912043" d="M72.963,113.485c.162.239.323.479.5.709a1.355,1.355,0,0,0,.574.509.178.178,0,0,0,.217-.217,2.055,2.055,0,0,0-.442-.614c-.179-.208-.348-.425-.517-.642-.146-.187-.463.058-.33.255" transform="translate(-48.177 -74.755)" fill="#49c47b"/>
        <path id="Trazado_912044" data-name="Trazado 912044" d="M38.986,141.433c.418,2.989-2.834,3.2-4.39,4.812-1.268,1.315-2.732,4.18-2.151,6.02a.173.173,0,0,0,.331,0,21.379,21.379,0,0,1,1.265-1.893c.309-.611.467-1.336.74-1.968a7.558,7.558,0,0,1,2.036-2.721c1.422-1.3,2.847-2.155,2.4-4.312-.032-.153-.251-.084-.23.063" transform="translate(-21.346 -93.33)" fill="#49c47b"/>
        <path id="Trazado_912045" data-name="Trazado 912045" d="M28.7,178.095c-.115.923.012,1.793-.042,2.713a2.082,2.082,0,0,1-.656,1.34c-.115.134-.312.52-.469.593l.327.042-.086-.07a.2.2,0,0,0-.335.089l-.029.1a.274.274,0,0,0,.188.332c.707.231,1.152-.864,1.371-1.344.509-1.116.2-2.634.047-3.794a.158.158,0,0,0-.315,0" transform="translate(-18.102 -117.547)" fill="#49c47b"/>
        <path id="Trazado_912046" data-name="Trazado 912046" d="M39.372,148.267c-.1.139-.21.277-.322.409-.1.112-.164.262-.3.33a.072.072,0,0,0,.017.131c.156.039.3-.1.41-.188a3.357,3.357,0,0,0,.442-.491.157.157,0,1,0-.247-.191" transform="translate(-25.576 -97.896)" fill="#49c47b"/>
        <path id="Trazado_912047" data-name="Trazado 912047" d="M47.668,140.18q-.029.253-.058.5c-.011.09.144.112.159.022q.043-.25.086-.5a.1.1,0,1,0-.187-.025" transform="translate(-31.45 -92.541)" fill="#49c47b"/>
        <path id="Trazado_912048" data-name="Trazado 912048" d="M39.256,119.175a9.313,9.313,0,0,1,1.039.756,3.438,3.438,0,0,1,.393.4.861.861,0,0,1,.2.606.1.1,0,0,0,.178.048c.224-.421.011-.674-.3-1a7.357,7.357,0,0,0-1.379-1.038c-.14-.09-.267.132-.13.223" transform="translate(-25.893 -78.564)" fill="#49c47b"/>
        <path id="Trazado_912049" data-name="Trazado 912049" d="M28.822,119.175q.291.1.588.175c.141.037.185-.159.058-.211q-.268-.113-.529-.242a.152.152,0,1,0-.118.279" transform="translate(-18.969 -78.529)" fill="#49c47b"/>
        <path id="Trazado_912050" data-name="Trazado 912050" d="M34.713,14.829c.281.209.554.427.835.636.255.189.534.341.785.532.076.058.182-.055.131-.131a3.2,3.2,0,0,0-.7-.585c-.288-.231-.567-.475-.854-.707a.161.161,0,1,0-.2.255" transform="translate(-22.881 -9.599)" fill="#49c47b"/>
        <g id="Grupo_1130696" data-name="Grupo 1130696" transform="translate(5.759 1.567)" opacity="0.5">
          <g id="Grupo_1130695" data-name="Grupo 1130695">
            <g id="Grupo_1130694" data-name="Grupo 1130694" clip-path="url(#clip-path-3)">
              <path id="Trazado_912051" data-name="Trazado 912051" d="M30.295,4.566c.55,1-.288,2.466-.777,3.3a19.292,19.292,0,0,0-1.445,2.2.052.052,0,0,0,.075.057,2.9,2.9,0,0,0,1.1-1.01A13.2,13.2,0,0,0,30.446,7a2.818,2.818,0,0,0-.037-2.519c-.054-.067-.154.018-.115.089" transform="translate(-24.302 -4.509)" fill="#e9fff2"/>
              <path id="Trazado_912052" data-name="Trazado 912052" d="M25.562,22.149c0,.151-.336.271-.448.335-.193.111-.322.295-.558.32a.048.048,0,0,0-.013.094c.256.073.49-.238.7-.345.136-.072.428-.2.355-.408a.016.016,0,0,0-.031,0" transform="translate(-21.95 -16.188)" fill="#e9fff2"/>
              <path id="Trazado_912053" data-name="Trazado 912053" d="M45.25,19.025a3.953,3.953,0,0,1-1.113,2.761c-.427.5-1.042.828-1.423,1.358a.067.067,0,0,0,.058.1c.71.005,1.413-.933,1.793-1.451a3.689,3.689,0,0,0,.839-2.768.076.076,0,0,0-.153,0" transform="translate(-33.968 -14.086)" fill="#e9fff2"/>
              <path id="Trazado_912054" data-name="Trazado 912054" d="M37.953,33.511c-.2.072-.4.177-.611.233a2.408,2.408,0,0,1-.653-.027.1.1,0,0,0-.05.184c.485.247.921-.1,1.353-.3.052-.024.015-.112-.039-.093" transform="translate(-29.93 -23.702)" fill="#e9fff2"/>
              <path id="Trazado_912055" data-name="Trazado 912055" d="M50.109,36.887c-.055.98-1.141,1.868-1.81,2.515a7.894,7.894,0,0,1-.877.707,7.845,7.845,0,0,1-1.725.7.1.1,0,0,0,.027.2A3.594,3.594,0,0,0,48.6,39.569c.669-.749,1.671-1.6,1.682-2.682a.086.086,0,0,0-.172,0" transform="translate(-35.899 -25.879)" fill="#e9fff2"/>
              <path id="Trazado_912056" data-name="Trazado 912056" d="M43.731,49.417a1.639,1.639,0,0,0-.4.018.064.064,0,0,0,0,.123,1.64,1.64,0,0,0,.4.018.08.08,0,0,0,0-.16" transform="translate(-34.353 -34.209)" fill="#e9fff2"/>
              <path id="Trazado_912057" data-name="Trazado 912057" d="M54.258,61.2a13.149,13.149,0,0,1-3.117,1.069,15.487,15.487,0,0,0-2.247.342.1.1,0,0,0,0,.2,5.815,5.815,0,0,0,2.472-.171,11.591,11.591,0,0,0,2.976-1.239c.11-.051.031-.242-.083-.2" transform="translate(-38.01 -41.988)" fill="#e9fff2"/>
              <path id="Trazado_912058" data-name="Trazado 912058" d="M45.592,64.8c-.121-.071-.248-.13-.369-.2s-.22-.17-.34-.237c-.041-.023-.11.017-.089.068.109.265.493.367.724.494a.073.073,0,0,0,.074-.126" transform="translate(-35.347 -44.078)" fill="#e9fff2"/>
              <path id="Trazado_912059" data-name="Trazado 912059" d="M55.163,81.811a4.968,4.968,0,0,1-2.681,1.148c-.786.048-1.585-.128-2.369-.068a.068.068,0,0,0-.047.114c.653.619,1.823.452,2.647.3a5.159,5.159,0,0,0,2.571-1.375c.083-.077-.037-.189-.122-.122" transform="translate(-38.819 -55.596)" fill="#e9fff2"/>
              <path id="Trazado_912060" data-name="Trazado 912060" d="M46.256,83.987c-.135-.113-.323-.112-.456-.22-.042-.035-.071-.086-.122-.11s-.135,0-.193-.048a.045.045,0,0,0-.063.063.226.226,0,0,0,.121.079.653.653,0,0,1,.18.116c.142.1.33.094.471.2.046.035.106-.043.062-.08" transform="translate(-35.756 -56.79)" fill="#e9fff2"/>
              <path id="Trazado_912061" data-name="Trazado 912061" d="M62.033,99.209a14.118,14.118,0,0,1-2.226,1.552,10.515,10.515,0,0,1-1.107.483,2.05,2.05,0,0,0-.658.259.045.045,0,0,0,.034.081c.276-.044.548.078.832,0a6.1,6.1,0,0,0,1.078-.515,4.886,4.886,0,0,0,1.09-.763c.348-.324.771-.574,1.092-.922.081-.088-.03-.255-.135-.175" transform="translate(-44.088 -67.09)" fill="#e9fff2"/>
              <path id="Trazado_912062" data-name="Trazado 912062" d="M54.817,106.972a3.736,3.736,0,0,0-.787.009.077.077,0,0,0,0,.147,3.76,3.76,0,0,0,.787.009.083.083,0,0,0,0-.166" transform="translate(-41.415 -72.219)" fill="#e9fff2"/>
              <path id="Trazado_912063" data-name="Trazado 912063" d="M75.281,109.183c-.014,1.274-1.258,2.123-1.906,3.093a.074.074,0,0,0,.063.11c.626-.008.912-.709,1.233-1.124a3.073,3.073,0,0,0,.757-2.08.073.073,0,0,0-.146,0" transform="translate(-54.222 -73.645)" fill="#e9fff2"/>
              <path id="Trazado_912064" data-name="Trazado 912064" d="M69.351,120.2a9.93,9.93,0,0,1-1.142.283.048.048,0,0,0,0,.092,2.268,2.268,0,0,0,1.183-.228c.091-.034.053-.181-.041-.147" transform="translate(-50.794 -80.965)" fill="#e9fff2"/>
              <path id="Trazado_912065" data-name="Trazado 912065" d="M17.02,109.73c.723.345.833,1.65.916,2.293.1.76-.069,1.506.078,2.256a.029.029,0,0,0,.055,0,6.823,6.823,0,0,0,.261-1.346,9.668,9.668,0,0,0-.188-1.6c-.086-.5-.474-1.6-1.073-1.717-.066-.013-.118.083-.049.116" transform="translate(-16.981 -73.976)" fill="#e9fff2"/>
              <path id="Trazado_912066" data-name="Trazado 912066" d="M19.721,124.468a.267.267,0,0,0-.1.1.164.164,0,0,0,.008.179.092.092,0,0,0,.165-.022c0-.011,0-.012,0,0a.233.233,0,0,0,.015-.034.162.162,0,0,0,.006-.058c0-.012,0-.013,0,0a.17.17,0,0,1,.005-.019c-.006.017.01-.016.007-.013a.088.088,0,0,0,.007-.113.087.087,0,0,0-.111-.022" transform="translate(-18.703 -83.781)" fill="#e9fff2"/>
              <path id="Trazado_912067" data-name="Trazado 912067" d="M18.533,127.467a.086.086,0,0,1-.025.033.1.1,0,0,1-.047.018c-.039.007-.04.074,0,.08a.2.2,0,0,0,.172-.053.064.064,0,1,0-.1-.077" transform="translate(-17.934 -85.75)" fill="#e9fff2"/>
              <path id="Trazado_912068" data-name="Trazado 912068" d="M30.606,110.675c.318.236.3,1,.288,1.327a1.739,1.739,0,0,0,.17,1.133c.043.06.162.048.154-.042a7.813,7.813,0,0,0-.038-1.824c-.08-.247-.207-.719-.491-.793a.109.109,0,0,0-.084.2" transform="translate(-25.945 -74.544)" fill="#e9fff2"/>
              <path id="Trazado_912069" data-name="Trazado 912069" d="M32.4,119.542v.058a.013.013,0,0,0,.025,0v-.058a.013.013,0,0,0-.025,0" transform="translate(-27.159 -80.527)" fill="#e9fff2"/>
              <path id="Trazado_912070" data-name="Trazado 912070" d="M29.456,121.35a1.119,1.119,0,0,1-.174.569,1.547,1.547,0,0,1-.383.608,1.075,1.075,0,0,0-.242.277,1.678,1.678,0,0,1-.6.547.109.109,0,0,0,.055.2.759.759,0,0,0,.614-.329,6.276,6.276,0,0,0,.415-.6c.126-.2.121-.452.238-.666a.947.947,0,0,0,.184-.61c0-.069-.111-.07-.108,0" transform="translate(-24.261 -81.695)" fill="#e9fff2"/>
              <path id="Trazado_912071" data-name="Trazado 912071" d="M44.4,117.421a3.713,3.713,0,0,1,0,1.257c-.054.224-.218.462-.138.69a.106.106,0,0,0,.192.025,2.2,2.2,0,0,0,.295-.8,4.437,4.437,0,0,0-.079-1.2c-.023-.151-.285-.117-.269.036" transform="translate(-34.984 -79.045)" fill="#e9fff2"/>
              <path id="Trazado_912072" data-name="Trazado 912072" d="M37.421,126.216a2.345,2.345,0,0,1-.4.78,1.831,1.831,0,0,1-.6.355,5.344,5.344,0,0,1-1.929.718.092.092,0,0,0,0,.185,3.6,3.6,0,0,0,1.134-.191,2.717,2.717,0,0,0,.991-.374,1.732,1.732,0,0,0,.538-.49c.123-.2.2-.458.317-.67a1.308,1.308,0,0,0,.136-.262c.04-.116-.157-.171-.184-.051" transform="translate(-28.483 -84.899)" fill="#e9fff2"/>
              <path id="Trazado_912073" data-name="Trazado 912073" d="M45.129,135.609c-1.322,1.614-3.711,1.894-5.619,1.505-.092-.019-.131.119-.039.141a6.1,6.1,0,0,0,3.577.225,4.826,4.826,0,0,0,2.221-1.763c.058-.081-.076-.186-.14-.108" transform="translate(-31.799 -91.131)" fill="#e9fff2"/>
              <path id="Trazado_912074" data-name="Trazado 912074" d="M33.613,148.273c1.894.584,3.505,1.437,4.292,3.356.021.053.1.015.069-.029-.254-.387-.215-.82-.4-1.218a3.406,3.406,0,0,0-1.024-1.05A7.625,7.625,0,0,0,33.66,148.1a.089.089,0,0,0-.048.172" transform="translate(-27.922 -99.398)" fill="#e9fff2"/>
              <path id="Trazado_912075" data-name="Trazado 912075" d="M23.211,156.209c.3.282.844.163,1.22.273s.971.543,1.376.395a.1.1,0,0,0,.024-.18,4.817,4.817,0,0,0-1.2-.663,2.112,2.112,0,0,0-.534-.12c-.173-.013-.51.088-.667.016-.173-.08-.372.131-.216.28" transform="translate(-21.054 -104.56)" fill="#e9fff2"/>
              <path id="Trazado_912076" data-name="Trazado 912076" d="M31.729,159.926c.1-.013.216.054.313,0a.045.045,0,0,0-.011-.081c-.045-.019-.089-.034-.133-.057a.5.5,0,0,0-.144-.054.1.1,0,0,0-.123.082.1.1,0,0,0,.1.112" transform="translate(-26.655 -107.083)" fill="#e9fff2"/>
              <path id="Trazado_912077" data-name="Trazado 912077" d="M33.7,161.508a.567.567,0,0,0,.118.106c.042.031.1.066.12.116.01.024.054.024.05-.006a.206.206,0,0,0-.082-.144.857.857,0,0,1-.151-.113c-.026-.03-.079.011-.055.042" transform="translate(-28.019 -108.223)" fill="#e9fff2"/>
              <path id="Trazado_912078" data-name="Trazado 912078" d="M34.8,163.257c.119.1.134.218.208.345a3.6,3.6,0,0,1,.227.365c.049.111.111.208.165.316a2.639,2.639,0,0,0,.191.414c.078.107.255.011.182-.106-.168-.266-.267-.581-.425-.855a1.419,1.419,0,0,0-.533-.5c-.012-.007-.026.011-.015.02" transform="translate(-28.744 -109.398)" fill="#e9fff2"/>
              <path id="Trazado_912079" data-name="Trazado 912079" d="M16.821,175.6c1.677-1.022,3.972-.168,5.516.743a.119.119,0,0,0,.173-.133c-.247-.833-1.531-1.037-2.263-1.111-1.371-.138-2.3-.512-3.56.271-.146.091-.013.321.135.23" transform="translate(-16.74 -117.093)" fill="#e9fff2"/>
              <path id="Trazado_912080" data-name="Trazado 912080" d="M21.591,191.63a11.2,11.2,0,0,0,1.792.379,7.909,7.909,0,0,0,1.917-.177.068.068,0,0,0,.016-.122c-.432-.251-.991-.025-1.477.012a8.16,8.16,0,0,1-2.2-.282c-.124-.025-.177.159-.053.19" transform="translate(-19.975 -128.029)" fill="#e9fff2"/>
              <path id="Trazado_912081" data-name="Trazado 912081" d="M34.655,190.864a0,0,0,0,0,0-.007,0,0,0,0,0,0,.007" transform="translate(-28.649 -127.645)" fill="#e9fff2"/>
              <path id="Trazado_912082" data-name="Trazado 912082" d="M87.764,42.366a9.086,9.086,0,0,1,3.279,0c.937.271,1.782.782,2.743.982a.106.106,0,0,0,.1-.175,1.672,1.672,0,0,0-.668-.324c-.694-.263-1.372-.607-2.089-.8a8.334,8.334,0,0,0-3.367.1c-.135.015-.142.225,0,.216" transform="translate(-63.666 -29.246)" fill="#e9fff2"/>
              <path id="Trazado_912083" data-name="Trazado 912083" d="M108,48.011c.234.21.509.361.751.563a6.82,6.82,0,0,1,.869.8c.308.358.877.566,1.129.971a.109.109,0,0,0,.2-.055c0-.428-.753-.7-1.051-.917-.241-.172-.43-.392-.672-.565a8.307,8.307,0,0,1-.626-.553c-.157-.137-.343-.2-.5-.342-.067-.06-.166.039-.1.1" transform="translate(-77.089 -33.205)" fill="#e9fff2"/>
              <path id="Trazado_912084" data-name="Trazado 912084" d="M88.513,69.248c.6.146,1.453-.345,2.01-.487a11.469,11.469,0,0,1,2.723-.321,15.884,15.884,0,0,1,4.651.778c.094.027.178-.1.1-.17-1.118-.967-3.062-.97-4.46-1.009a9.269,9.269,0,0,0-5.169,1.2c-.065.045-.027.16.056.134l.089-.027a.048.048,0,0,0,0-.092" transform="translate(-64.112 -46.51)" fill="#e9fff2"/>
              <path id="Trazado_912085" data-name="Trazado 912085" d="M99.433,92.766a7.8,7.8,0,0,1,3.246-1.34c.062-.008.131-.076.179-.082.23-.025.183.024.467.042a1.015,1.015,0,0,0,.75-.095.119.119,0,0,0-.059-.219c-.139,0-.4.091-.513.081-.193-.018-.324-.17-.491-.184a1.836,1.836,0,0,0-.683.11,10.183,10.183,0,0,0-3.037,1.445c-.146.1-.009.344.141.242" transform="translate(-71.309 -61.658)" fill="#e9fff2"/>
              <path id="Trazado_912086" data-name="Trazado 912086" d="M115.553,92.205a1.032,1.032,0,0,0,.335-.076c.136-.061.214-.163.366-.126.123.03.213.141.338.174a1.9,1.9,0,0,0,.59.033c.09-.007.152-.144.052-.19a1.256,1.256,0,0,0-.49-.1c-.077,0-.161.021-.237.016a.848.848,0,0,1-.292-.087c-.231-.075-.47.1-.686.171-.1.031-.087.2.025.187" transform="translate(-82.031 -62.228)" fill="#e9fff2"/>
              <path id="Trazado_912087" data-name="Trazado 912087" d="M116,113.029a10.311,10.311,0,0,0-1.394-.465,7,7,0,0,0-2.433.011,5.319,5.319,0,0,0-2.309,1.367.083.083,0,0,0,.08.138c.763-.245,1.449-.559,2.19-.851a5.82,5.82,0,0,1,2.472-.354c.483.041.9.3,1.366.354.115.014.136-.172.027-.2" transform="translate(-78.317 -75.857)" fill="#e9fff2"/>
              <path id="Trazado_912088" data-name="Trazado 912088" d="M108.913,117.628a1.051,1.051,0,0,0-.144.078.345.345,0,0,1-.148.076c-.042.007-.033.078.01.075a.4.4,0,0,0,.177-.067.458.458,0,0,0,.131-.136c.012-.017-.011-.034-.026-.026" transform="translate(-77.495 -79.27)" fill="#e9fff2"/>
              <path id="Trazado_912089" data-name="Trazado 912089" d="M107.868,118.129a1.564,1.564,0,0,1-.232.244,2.19,2.19,0,0,0-.238.206c-.03.034.009.093.05.065a1.7,1.7,0,0,0,.469-.487c.02-.032-.028-.057-.05-.029" transform="translate(-76.698 -79.594)" fill="#e9fff2"/>
              <path id="Trazado_912090" data-name="Trazado 912090" d="M104.583,139.946c.47.1.932-.015,1.414.077a10.244,10.244,0,0,1,1.173.412,5.254,5.254,0,0,1,1.625.669,5.357,5.357,0,0,0,.851.6.041.041,0,0,0,.042-.071c-.467-.3-.665-.809-1.038-1.153a2.394,2.394,0,0,0-1.245-.506c-.968-.221-1.859-.721-2.84-.181a.084.084,0,0,0,.02.151" transform="translate(-74.806 -93.754)" fill="#e9fff2"/>
              <path id="Trazado_912091" data-name="Trazado 912091" d="M121.57,147.941c.111.108.259.166.367.277a2.094,2.094,0,0,1,.329.461c.113.225.034.492.254.657.044.033.1-.038.058-.075-.139-.14-.108-.295-.167-.465a1.279,1.279,0,0,0-.211-.314c-.074-.1-.144-.205-.222-.3-.1-.124-.219-.206-.322-.322-.052-.058-.142.031-.086.086" transform="translate(-86.055 -99.226)" fill="#e9fff2"/>
              <path id="Trazado_912092" data-name="Trazado 912092" d="M91.639,155.6c.926.346,1.2,1.27,1.758,1.978a7.76,7.76,0,0,1,1.432,2.7.106.106,0,0,0,.2,0,2.924,2.924,0,0,0-1.176-2.637c-.456-.4-.59-.987-.981-1.433a2.6,2.6,0,0,0-1.169-.851c-.157-.053-.219.189-.068.245" transform="translate(-66.237 -104.188)" fill="#e9fff2"/>
              <path id="Trazado_912093" data-name="Trazado 912093" d="M101.433,172.835c.179.285.1.615.163.927a.035.035,0,0,0,.067,0,1.063,1.063,0,0,0-.19-.958c-.02-.02-.056.006-.04.031" transform="translate(-72.762 -115.715)" fill="#e9fff2"/>
              <path id="Trazado_912094" data-name="Trazado 912094" d="M101.072,179.185a.263.263,0,0,0-.127.183c0,.02.031.021.032,0a.24.24,0,0,1,.107-.168c.008-.006,0-.021-.012-.015" transform="translate(-72.442 -119.934)" fill="#e9fff2"/>
              <path id="Trazado_912095" data-name="Trazado 912095" d="M72.74,161.331a10.4,10.4,0,0,1-.563,6.663.183.183,0,0,0,.3.177,6.829,6.829,0,0,0,.95-3.045,9.5,9.5,0,0,0-.419-3.868.14.14,0,0,0-.27.074" transform="translate(-53.431 -108.026)" fill="#e9fff2"/>
            </g>
          </g>
        </g>
      </g>
    </g>
  </g>
</svg>
