<svg xmlns="http://www.w3.org/2000/svg" width="56" height="56" viewBox="0 0 56 56">
  <g id="Grupo_1131101" data-name="Grupo 1131101" transform="translate(-180 -4786)">
    <g id="Grupo_1131091" data-name="Grupo 1131091" transform="translate(0 139)">
      <g id="Elipse_12296" data-name="Elipse 12296" transform="translate(180 4647)" fill="#faf8f2" stroke="#d0b57a" stroke-width="2">
        <circle cx="28" cy="28" r="28" stroke="none"/>
        <circle cx="28" cy="28" r="27" fill="none"/>
      </g>
    </g>
    <g id="lista-de-verificacion" transform="translate(149.926 4794.959)">
      <path id="Trazado_912902" data-name="Trazado 912902" d="M70.531,7.783l6.757,26.164a1.977,1.977,0,0,1-1.416,2.406l-18.25,4.714a1.974,1.974,0,0,1-2.406-1.416L48.46,13.481a1.974,1.974,0,0,1,1.416-2.406l18.25-4.714a1.973,1.973,0,0,1,2.406,1.423Z" transform="translate(-4.952 -4.891)" fill="#e77c6a"/>
      <path id="Trazado_912903" data-name="Trazado 912903" d="M70.438,7.783l.126.488a4.138,4.138,0,0,1-.676,3.494L69.12,12.8a4.12,4.12,0,0,1-2.294,1.548l-12.12,3.131a4.121,4.121,0,0,1-2.755-.244L50.773,16.7a4.151,4.151,0,0,1-2.287-2.727l-.126-.488a1.974,1.974,0,0,1,1.416-2.406L68.032,6.361a1.973,1.973,0,0,1,2.406,1.423Z" transform="translate(-4.859 -4.891)" fill="#f1b2a3"/>
      <path id="Trazado_912904" data-name="Trazado 912904" d="M153.048,7.783l6.757,26.164a1.977,1.977,0,0,1-1.416,2.406l-18.25,4.714a1.974,1.974,0,0,1-2.406-1.416L137.1,37.2a22.8,22.8,0,0,0,14.379-27.162l-.934-3.654.1-.028a1.969,1.969,0,0,1,2.4,1.423Z" transform="translate(-87.469 -4.891)" opacity="0.1"/>
      <path id="Trazado_912905" data-name="Trazado 912905" d="M116.845,35.715V63.254a1.714,1.714,0,0,1-1.715,1.715H96.015A1.714,1.714,0,0,1,94.3,63.254V35.715A1.714,1.714,0,0,1,96.015,34H115.13A1.714,1.714,0,0,1,116.845,35.715Z" transform="translate(-47.654 -30.661)" fill="#e8f1f8"/>
      <path id="Trazado_912906" data-name="Trazado 912906" d="M116.945,35.622V63.161a1.714,1.714,0,0,1-1.715,1.715H96.115A1.714,1.714,0,0,1,94.4,63.161V62.115a20.829,20.829,0,0,0,18.773-20.725V33.9h2.057A1.725,1.725,0,0,1,116.945,35.622Z" transform="translate(-47.747 -30.568)" opacity="0.1"/>
      <path id="Trazado_912907" data-name="Trazado 912907" d="M140.816,90.608a3.208,3.208,0,1,1-3.208-3.208A3.208,3.208,0,0,1,140.816,90.608Z" transform="translate(-84.958 -80.337)" fill="#f14f4a"/>
      <path id="Trazado_912908" data-name="Trazado 912908" d="M140.816,213.208A3.208,3.208,0,1,1,137.608,210,3.208,3.208,0,0,1,140.816,213.208Z" transform="translate(-84.958 -194.388)" fill="#0e9c4a"/>
      <path id="Trazado_912909" data-name="Trazado 912909" d="M140.816,335.708a3.208,3.208,0,1,1-3.208-3.208A3.208,3.208,0,0,1,140.816,335.708Z" transform="translate(-84.958 -308.345)" fill="#f78721"/>
      <g id="Grupo_1130965" data-name="Grupo 1130965" transform="translate(43.074 1.04)">
        <path id="Trazado_912910" data-name="Trazado 912910" d="M72.7,28.959l-3.131-12.12V5.054a2.086,2.086,0,0,0-2.085-2.085h-1.5L65.941,2.8a2.349,2.349,0,0,0-2.859-1.688L55.9,2.969H48.368a2.088,2.088,0,0,0-2.092,2.085v.4l-1.444.377a2.361,2.361,0,0,0-1.688,2.859L46.276,20.8V32.593a2.086,2.086,0,0,0,2.085,2.085h1.5l.042.167a2.343,2.343,0,0,0,2.859,1.688l7.169-1.848h7.545A2.086,2.086,0,0,0,69.561,32.6v-.4L71,31.818A2.365,2.365,0,0,0,72.7,28.959ZM65.216,2.969H58.863l4.407-1.137A1.6,1.6,0,0,1,65.216,2.969ZM43.863,8.5a1.618,1.618,0,0,1,1.158-1.96l1.255-.321v5.342l-.2-.1A4.022,4.022,0,0,1,43.863,8.5Zm.746,2.873a4.322,4.322,0,0,0,1.158.76l.516.237v5.46Zm7.964,24.435a1.6,1.6,0,0,1-1.946-1.137h6.339Zm16.248-3.215a1.347,1.347,0,0,1-1.346,1.346H48.361a1.351,1.351,0,0,1-1.346-1.346V5.054a1.347,1.347,0,0,1,1.346-1.346c21.792.007,18.842.007,19.114,0a1.347,1.347,0,0,1,1.346,1.346Zm2-1.492-1.262.328V19.8l2.42,9.337A1.618,1.618,0,0,1,70.823,31.1Z" transform="translate(-43.074 -1.04)"/>
        <path id="Trazado_912911" data-name="Trazado 912911" d="M161.135,118.827a.366.366,0,0,0,0,.523l.537.537a.366.366,0,0,0,.523,0l1.43-1.43a.37.37,0,0,0-.523-.523l-1.172,1.172-.272-.272A.36.36,0,0,0,161.135,118.827Z" transform="translate(-152.8 -109.681)"/>
        <path id="Trazado_912912" data-name="Trazado 912912" d="M260.759,110.9H252.37a.37.37,0,1,0,0,.739h8.389a.372.372,0,0,0,.37-.37A.368.368,0,0,0,260.759,110.9Z" transform="translate(-237.431 -103.239)"/>
        <path id="Trazado_912913" data-name="Trazado 912913" d="M252.37,146.139h5.314a.37.37,0,0,0,0-.739H252.37a.37.37,0,1,0,0,.739Z" transform="translate(-237.431 -135.333)"/>
        <path id="Trazado_912914" data-name="Trazado 912914" d="M163.094,240.535,161.93,241.7l-.272-.272a.37.37,0,1,0-.523.523l.537.537a.366.366,0,0,0,.523,0l1.43-1.43a.366.366,0,0,0,0-.523A.375.375,0,0,0,163.094,240.535Z" transform="translate(-152.8 -223.732)"/>
        <path id="Trazado_912915" data-name="Trazado 912915" d="M260.759,233.4H252.37a.37.37,0,1,0,0,.739h8.389a.372.372,0,0,0,.37-.37A.368.368,0,0,0,260.759,233.4Z" transform="translate(-237.431 -217.196)"/>
        <path id="Trazado_912916" data-name="Trazado 912916" d="M252.37,268.739h5.314a.37.37,0,0,0,0-.739H252.37a.37.37,0,1,0,0,.739Z" transform="translate(-237.431 -249.384)"/>
        <path id="Trazado_912917" data-name="Trazado 912917" d="M163.094,363.135,161.93,364.3l-.272-.272a.37.37,0,1,0-.523.523l.537.537a.366.366,0,0,0,.523,0l1.43-1.43a.366.366,0,0,0,0-.523.375.375,0,0,0-.53,0Z" transform="translate(-152.8 -337.782)"/>
        <path id="Trazado_912918" data-name="Trazado 912918" d="M260.759,356H252.37a.37.37,0,1,0,0,.739h8.389a.372.372,0,0,0,.37-.37A.368.368,0,0,0,260.759,356Z" transform="translate(-237.431 -331.247)"/>
        <path id="Trazado_912919" data-name="Trazado 912919" d="M257.683,390.5H252.37a.37.37,0,0,0,0,.739h5.314a.37.37,0,0,0,0-.739Z" transform="translate(-237.431 -363.341)"/>
        <path id="Trazado_912920" data-name="Trazado 912920" d="M132.577,89.255A3.577,3.577,0,1,0,129,85.677h0A3.58,3.58,0,0,0,132.577,89.255Zm0-6.416a2.838,2.838,0,1,1-2.831,2.838A2.841,2.841,0,0,1,132.577,82.839Z" transform="translate(-123.008 -76.447)"/>
        <path id="Trazado_912921" data-name="Trazado 912921" d="M132.677,204.7a3.581,3.581,0,1,0,3.584,3.577A3.58,3.58,0,0,0,132.677,204.7Zm0,6.416a2.838,2.838,0,1,1,2.838-2.838A2.845,2.845,0,0,1,132.677,211.116Z" transform="translate(-123.101 -190.498)"/>
        <path id="Trazado_912922" data-name="Trazado 912922" d="M132.677,327.2a3.581,3.581,0,1,0,3.584,3.577A3.58,3.58,0,0,0,132.677,327.2Zm0,6.423a2.838,2.838,0,1,1,2.838-2.838A2.845,2.845,0,0,1,132.677,333.623Z" transform="translate(-123.101 -304.455)"/>
      </g>
    </g>
  </g>
</svg>
