<svg xmlns="http://www.w3.org/2000/svg" width="56" height="56" viewBox="0 0 56 56">
  <g id="Grupo_1130929" data-name="Grupo 1130929" transform="translate(-180 -3033)">
    <g id="Grupo_1106274" data-name="Grupo 1106274" transform="translate(0 6)">
      <g id="Elipse_12227" data-name="Elipse 12227" transform="translate(180 3027)" fill="#faf8f2" stroke="#d0b57a" stroke-width="2">
        <circle cx="28" cy="28" r="28" stroke="none"/>
        <circle cx="28" cy="28" r="27" fill="none"/>
      </g>
    </g>
    <g id="virus" transform="translate(171.149 3024.83)">
      <g id="Grupo_1130928" data-name="Grupo 1130928" transform="translate(20.85 20.17)">
        <g id="Grupo_1130870" data-name="Grupo 1130870" transform="translate(15.265 3.175)">
          <ellipse id="Elipse_12416" data-name="Elipse 12416" cx="4.193" cy="6.721" rx="4.193" ry="6.721" transform="translate(0 7.338) rotate(-61.051)" fill="#dc3a33"/>
          <g id="Grupo_1130869" data-name="Grupo 1130869" transform="translate(1.296 1.626)">
            <path id="Trazado_912745" data-name="Trazado 912745" d="M152.252,59.43a10.188,10.188,0,0,0-8.674-4.794,3.593,3.593,0,0,0-3.183,5.759,9.474,9.474,0,0,0,3.715,3.523A9.692,9.692,0,0,0,148.7,65.2q.187,0,.37-.01a3.593,3.593,0,0,0,3.183-5.759Zm-.381,3.549h0a3.254,3.254,0,0,1-2.842,1.446,9.43,9.43,0,0,1-7.964-4.4,2.843,2.843,0,0,1,2.554-4.621q.164-.009.332-.009a8.917,8.917,0,0,1,4.216,1.185,8.7,8.7,0,0,1,3.416,3.225A3.254,3.254,0,0,1,151.87,62.978Z" transform="translate(-139.714 -54.626)"/>
            <path id="Trazado_912746" data-name="Trazado 912746" d="M163.363,74.669a5.711,5.711,0,0,1-2.77-3.492l-.753.144a6.436,6.436,0,0,0,3.152,4.019,6.809,6.809,0,0,0,3.261.832,5.12,5.12,0,0,0,1.819-.3l-.279-.714A5.71,5.71,0,0,1,163.363,74.669Z" transform="translate(-157.036 -68.871)"/>
          </g>
        </g>
        <g id="Grupo_1130900" data-name="Grupo 1130900" transform="translate(0.091 0)">
          <g id="Grupo_1130876" data-name="Grupo 1130876" transform="translate(0.077 4.149)">
            <g id="Grupo_1130875" data-name="Grupo 1130875" transform="translate(0 0)">
              <g id="Grupo_1130874" data-name="Grupo 1130874">
                <g id="Grupo_1130873" data-name="Grupo 1130873">
                  <g id="Grupo_1130871" data-name="Grupo 1130871" transform="translate(13.454)">
                    <circle id="Elipse_12417" data-name="Elipse 12417" cx="1.017" cy="1.017" r="1.017" transform="translate(0 0.748) rotate(-21.589)" fill="#4fb6bd"/>
                  </g>
                  <g id="Grupo_1130872" data-name="Grupo 1130872" transform="translate(0 5.325)">
                    <circle id="Elipse_12418" data-name="Elipse 12418" cx="1.017" cy="1.017" r="1.017" transform="translate(0 0.748) rotate(-21.589)" fill="#4fb6bd"/>
                  </g>
                </g>
              </g>
            </g>
          </g>
          <g id="Grupo_1130881" data-name="Grupo 1130881" transform="translate(4.141 0.085)">
            <g id="Grupo_1130880" data-name="Grupo 1130880" transform="translate(0 0)">
              <g id="Grupo_1130879" data-name="Grupo 1130879">
                <g id="Grupo_1130877" data-name="Grupo 1130877">
                  <circle id="Elipse_12419" data-name="Elipse 12419" cx="1.017" cy="1.017" r="1.017" transform="translate(0 0.748) rotate(-21.589)" fill="#4fb6bd"/>
                </g>
                <g id="Grupo_1130878" data-name="Grupo 1130878" transform="translate(5.325 13.454)">
                  <circle id="Elipse_12420" data-name="Elipse 12420" cx="1.017" cy="1.017" r="1.017" transform="translate(0 0.748) rotate(-21.589)" fill="#4fb6bd"/>
                </g>
              </g>
            </g>
          </g>
          <g id="Grupo_1130887" data-name="Grupo 1130887" transform="translate(3.919 0.147)">
            <g id="Grupo_1130886" data-name="Grupo 1130886" transform="translate(0 0)">
              <g id="Grupo_1130885" data-name="Grupo 1130885">
                <g id="Grupo_1130884" data-name="Grupo 1130884">
                  <g id="Grupo_1130882" data-name="Grupo 1130882" transform="translate(5.74)">
                    <circle id="Elipse_12421" data-name="Elipse 12421" cx="1.017" cy="1.017" r="1.017" transform="translate(0 1.867) rotate(-66.613)" fill="#4fb6bd"/>
                  </g>
                  <g id="Grupo_1130883" data-name="Grupo 1130883" transform="translate(0 13.279)">
                    <circle id="Elipse_12422" data-name="Elipse 12422" cx="1.017" cy="1.017" r="1.017" transform="translate(0 1.867) rotate(-66.613)" fill="#4fb6bd"/>
                  </g>
                </g>
              </g>
            </g>
          </g>
          <g id="Grupo_1130891" data-name="Grupo 1130891" transform="translate(0.15 3.916)">
            <g id="Grupo_1130890" data-name="Grupo 1130890" transform="translate(0 0)">
              <g id="Grupo_1130888" data-name="Grupo 1130888" transform="translate(13.279 5.74)">
                <circle id="Elipse_12423" data-name="Elipse 12423" cx="1.017" cy="1.017" r="1.017" transform="translate(0 1.867) rotate(-66.613)" fill="#4fb6bd"/>
              </g>
              <g id="Grupo_1130889" data-name="Grupo 1130889">
                <circle id="Elipse_12424" data-name="Elipse 12424" cx="1.017" cy="1.017" r="1.017" transform="translate(0 1.867) rotate(-66.613)" fill="#4fb6bd"/>
              </g>
            </g>
          </g>
          <path id="Trazado_912747" data-name="Trazado 912747" d="M45.411,42.753a1.014,1.014,0,0,0-.332-.228,5,5,0,0,0,.792-1.831A1.017,1.017,0,1,0,45.9,38.82a4.983,4.983,0,0,0-.735-1.855,1.017,1.017,0,1,0-1.3-1.346,5,5,0,0,0-1.831-.792,1.017,1.017,0,1,0-1.873-.028,4.983,4.983,0,0,0-1.855.735,1.017,1.017,0,1,0-1.346,1.3,5,5,0,0,0-.792,1.831,1.017,1.017,0,1,0-.028,1.873A4.983,4.983,0,0,0,36.87,42.4a1.017,1.017,0,1,0,1.3,1.346A5,5,0,0,0,40,44.535a1.017,1.017,0,1,0,1.873.028,4.983,4.983,0,0,0,1.855-.735,1.017,1.017,0,1,0,1.678-1.075Z" transform="translate(-32.892 -31.557)" fill="#4fb6bd"/>
          <g id="Grupo_1130895" data-name="Grupo 1130895" transform="translate(5.872 4.663)">
            <g id="Grupo_1130894" data-name="Grupo 1130894" transform="translate(0 0)">
              <g id="Grupo_1130892" data-name="Grupo 1130892" transform="translate(1.835)">
                <circle id="Elipse_12425" data-name="Elipse 12425" cx="1.017" cy="1.017" r="1.017" transform="translate(0 1.867) rotate(-66.613)" fill="#4fb6bd"/>
              </g>
              <g id="Grupo_1130893" data-name="Grupo 1130893" transform="translate(0 4.246)">
                <circle id="Elipse_12426" data-name="Elipse 12426" cx="1.017" cy="1.017" r="1.017" transform="translate(0 1.867) rotate(-66.613)" fill="#4fb6bd"/>
              </g>
            </g>
          </g>
          <g id="Grupo_1130899" data-name="Grupo 1130899" transform="translate(4.667 5.869)">
            <g id="Grupo_1130898" data-name="Grupo 1130898" transform="translate(0 0)">
              <g id="Grupo_1130896" data-name="Grupo 1130896" transform="translate(4.246 1.835)">
                <circle id="Elipse_12427" data-name="Elipse 12427" cx="1.017" cy="1.017" r="1.017" transform="translate(0 1.867) rotate(-66.613)" fill="#4fb6bd"/>
              </g>
              <g id="Grupo_1130897" data-name="Grupo 1130897">
                <circle id="Elipse_12428" data-name="Elipse 12428" cx="1.017" cy="1.017" r="1.017" transform="translate(0 1.867) rotate(-66.613)" fill="#4fb6bd"/>
              </g>
            </g>
          </g>
          <path id="Trazado_912748" data-name="Trazado 912748" d="M22.39,29.656A1.4,1.4,0,1,0,24.3,30.818l.522-.207c.044.09.089.18.138.268q-.042.035-.082.073a1.4,1.4,0,1,0,1.949,2.01q.039-.038.075-.079c.086.051.175.1.264.146l-.222.514a1.4,1.4,0,1,0,.7.3l.222-.514c.1.033.191.064.287.092q-.005.054-.006.109a1.4,1.4,0,0,0,1.378,1.421h.022a1.4,1.4,0,0,0,1.4-1.378q0-.055,0-.11c.1-.025.194-.053.29-.083l.206.521a1.4,1.4,0,1,0,.712-.282l-.206-.521c.09-.044.18-.089.268-.138q.035.042.073.082a1.391,1.391,0,0,0,.983.425h.022a1.4,1.4,0,0,0,1-2.375q-.038-.039-.079-.075c.051-.086.1-.175.146-.264l.514.222a1.4,1.4,0,0,0,.832,1.468h0a1.4,1.4,0,1,0-.527-2.171l-.514-.222c.033-.1.064-.191.092-.287q.054.005.109.006a1.4,1.4,0,1,0,.043-2.8c-.037,0-.073,0-.11,0-.025-.1-.053-.194-.083-.29l.521-.207a1.4,1.4,0,0,0,1.626.45,1.4,1.4,0,1,0-1.908-1.162l-.521.206c-.044-.09-.089-.18-.138-.268q.042-.035.082-.073a1.4,1.4,0,1,0-1.949-2.01q-.039.038-.075.079c-.086-.051-.175-.1-.264-.146l.223-.515a1.386,1.386,0,0,0,1.467-.831h0a1.4,1.4,0,1,0-2.171.527l-.222.514c-.1-.033-.191-.064-.287-.092q.005-.054.006-.109a1.4,1.4,0,0,0-1.378-1.421h-.022a1.4,1.4,0,0,0-1.4,1.378q0,.055,0,.11c-.1.025-.194.053-.29.083l-.207-.522a1.4,1.4,0,1,0-.85.29c.046,0,.092,0,.138-.007l.206.521c-.09.044-.18.089-.268.138q-.035-.042-.073-.082a1.4,1.4,0,1,0-2.01,1.949q.038.039.079.075c-.051.086-.1.175-.146.264l-.514-.222a1.4,1.4,0,1,0-1.943,1.1h0a1.391,1.391,0,0,0,.554.115,1.406,1.406,0,0,0,1.085-.514l.514.222c-.033.1-.064.191-.092.287q-.054-.005-.109-.006a1.4,1.4,0,0,0-1.421,1.378,1.4,1.4,0,0,0,1.378,1.421c.037,0,.073,0,.11,0,.025.1.053.194.083.29l-.522.207a1.4,1.4,0,0,0-1.625-.45Zm.749,1.891a.634.634,0,1,1,.356-.823A.63.63,0,0,1,23.139,31.547Zm12.548-.634a.634.634,0,1,1,.33.833h0a.634.634,0,0,1-.33-.833Zm.086-5.535a.634.634,0,1,1-.007.485A.63.63,0,0,1,35.772,25.378Zm-12.2.3a.634.634,0,0,1-.833.33h0a.634.634,0,1,1,.833-.33Zm3.768,9.509a.634.634,0,1,1,.007-.485.63.63,0,0,1-.007.485Zm4.72-.755a.634.634,0,1,1-.348.338A.633.633,0,0,1,32.06,34.429ZM31.919,21.4a.634.634,0,1,1-.007.485.63.63,0,0,1,.007-.485Zm-4.72.755a.634.634,0,1,1,.356-.823A.635.635,0,0,1,27.2,22.159Zm-2.843,6.687a.634.634,0,0,1,.01-1.267h.01a.63.63,0,0,1,.245.053l.53-.272a4.624,4.624,0,0,1,.731-1.691l-.164-.572a.634.634,0,0,1-.193-1.038.645.645,0,0,1,.451-.179.635.635,0,0,1,.581.4l.567.183a4.572,4.572,0,0,1,1.712-.678l.288-.521a.634.634,0,0,1,.587-.872h.01a.634.634,0,0,1,.57.889l.272.529a4.617,4.617,0,0,1,1.691.731l.572-.165a.628.628,0,0,1,.142-.207.634.634,0,1,1,.67,1.046l-.183.567a4.571,4.571,0,0,1,.679,1.712l.521.288a.657.657,0,0,1,.248-.046.634.634,0,0,1-.01,1.267h-.01a.63.63,0,0,1-.245-.053l-.53.272a4.625,4.625,0,0,1-.731,1.691l.164.572a.634.634,0,0,1,.193,1.038.637.637,0,0,1-.451.179.635.635,0,0,1-.581-.4l-.567-.183a4.572,4.572,0,0,1-1.712.678l-.288.521a.634.634,0,0,1-.587.872h-.01a.634.634,0,0,1-.57-.889l-.272-.529a4.618,4.618,0,0,1-1.69-.731l-.572.165a.627.627,0,0,1-.142.207.634.634,0,1,1-.67-1.046L25.8,30.8a4.571,4.571,0,0,1-.679-1.712L24.6,28.8a.658.658,0,0,1-.248.046Z" transform="translate(-21.505 -20.17)"/>
          <path id="Trazado_912749" data-name="Trazado 912749" d="M77.2,55.883a1.4,1.4,0,1,0-.746-.769A1.4,1.4,0,0,0,77.2,55.883Zm-.026-1.536a.634.634,0,1,1,1.163.5h0a.634.634,0,1,1-1.163-.5Z" transform="translate(-68.709 -48.596)"/>
          <path id="Trazado_912750" data-name="Trazado 912750" d="M63.294,84.51a1.4,1.4,0,1,0,1.841-.729A1.4,1.4,0,0,0,63.294,84.51Zm1.874.322a.633.633,0,1,1-.338-.348A.63.63,0,0,1,65.169,84.832Z" transform="translate(-57.373 -74.819)"/>
          <path id="Trazado_912751" data-name="Trazado 912751" d="M85.117,75.865a1.4,1.4,0,1,0,1.841-.729A1.4,1.4,0,0,0,85.117,75.865Zm1.874.322a.633.633,0,1,1-.338-.348A.63.63,0,0,1,86.991,76.187Z" transform="translate(-76.155 -67.379)"/>
          <path id="Trazado_912752" data-name="Trazado 912752" d="M55.378,64.528h0a1.4,1.4,0,1,0-.729-1.841A1.393,1.393,0,0,0,55.378,64.528Zm-.026-1.537a.634.634,0,1,1,.33.833A.63.63,0,0,1,55.352,62.991Z" transform="translate(-49.932 -56.037)"/>
        </g>
        <g id="Grupo_1130927" data-name="Grupo 1130927" transform="translate(0 13.323)">
          <ellipse id="Elipse_12429" data-name="Elipse 12429" cx="4.063" cy="6.511" rx="4.063" ry="6.511" transform="translate(0 11.14) rotate(-73.449)" fill="#dc3a33"/>
          <g id="Grupo_1130905" data-name="Grupo 1130905" transform="translate(14.023 2.081)">
            <g id="Grupo_1130904" data-name="Grupo 1130904" transform="translate(0 0)">
              <g id="Grupo_1130903" data-name="Grupo 1130903">
                <g id="Grupo_1130901" data-name="Grupo 1130901" transform="translate(10.229)">
                  <circle id="Elipse_12430" data-name="Elipse 12430" cx="1.017" cy="1.017" r="1.017" transform="translate(0 1.438) rotate(-45)" fill="#4fb6bd"/>
                </g>
                <g id="Grupo_1130902" data-name="Grupo 1130902" transform="translate(0 10.226)">
                  <circle id="Elipse_12431" data-name="Elipse 12431" cx="1.017" cy="1.017" r="1.017" transform="translate(0 1.438) rotate(-45)" fill="#4fb6bd"/>
                </g>
              </g>
            </g>
          </g>
          <g id="Grupo_1130909" data-name="Grupo 1130909" transform="translate(14.024 2.08)">
            <g id="Grupo_1130908" data-name="Grupo 1130908" transform="translate(0 0)">
              <g id="Grupo_1130907" data-name="Grupo 1130907">
                <g id="Grupo_1130906" data-name="Grupo 1130906">
                  <circle id="Elipse_12432" data-name="Elipse 12432" cx="1.017" cy="1.017" r="1.017" transform="translate(0 1.438) rotate(-45)" fill="#4fb6bd"/>
                  <circle id="Elipse_12433" data-name="Elipse 12433" cx="1.017" cy="1.017" r="1.017" transform="translate(10.226 11.666) rotate(-45)" fill="#4fb6bd"/>
                </g>
              </g>
            </g>
          </g>
          <g id="Grupo_1130915" data-name="Grupo 1130915" transform="translate(19.563 0.383)">
            <g id="Grupo_1130914" data-name="Grupo 1130914">
              <g id="Grupo_1130913" data-name="Grupo 1130913">
                <g id="Grupo_1130912" data-name="Grupo 1130912">
                  <g id="Grupo_1130910" data-name="Grupo 1130910">
                    <circle id="Elipse_12434" data-name="Elipse 12434" cx="1.017" cy="1.017" r="1.017" fill="#4fb6bd"/>
                  </g>
                  <g id="Grupo_1130911" data-name="Grupo 1130911" transform="translate(0 14.465)">
                    <circle id="Elipse_12435" data-name="Elipse 12435" cx="1.017" cy="1.017" r="1.017" fill="#4fb6bd"/>
                  </g>
                </g>
              </g>
            </g>
          </g>
          <g id="Grupo_1130918" data-name="Grupo 1130918" transform="translate(12.331 7.616)">
            <g id="Grupo_1130917" data-name="Grupo 1130917">
              <g id="Grupo_1130916" data-name="Grupo 1130916" transform="translate(14.465)">
                <circle id="Elipse_12436" data-name="Elipse 12436" cx="1.017" cy="1.017" r="1.017" fill="#4fb6bd"/>
              </g>
              <circle id="Elipse_12437" data-name="Elipse 12437" cx="1.017" cy="1.017" r="1.017" fill="#4fb6bd"/>
            </g>
          </g>
          <path id="Trazado_912753" data-name="Trazado 912753" d="M137.487,142.5a1.013,1.013,0,0,0-.4-.078,5,5,0,0,0,0-2,1.017,1.017,0,1,0-.718-1.731,4.983,4.983,0,0,0-1.411-1.411,1.017,1.017,0,1,0-1.731-.718,5,5,0,0,0-2,0,1.017,1.017,0,1,0-1.731.718A4.982,4.982,0,0,0,128.1,138.7a1.017,1.017,0,1,0-.718,1.731,5,5,0,0,0,0,2,1.017,1.017,0,1,0,.718,1.731,4.983,4.983,0,0,0,1.411,1.411,1.017,1.017,0,1,0,1.731.718,5,5,0,0,0,2,0,1.017,1.017,0,1,0,1.731-.718,4.983,4.983,0,0,0,1.411-1.411,1.017,1.017,0,1,0,1.114-1.653Z" transform="translate(-111.654 -132.793)" fill="#4fb6bd"/>
          <g id="Grupo_1130922" data-name="Grupo 1130922" transform="translate(19.563 5.303)">
            <g id="Grupo_1130921" data-name="Grupo 1130921">
              <g id="Grupo_1130919" data-name="Grupo 1130919">
                <circle id="Elipse_12438" data-name="Elipse 12438" cx="1.017" cy="1.017" r="1.017" fill="#4fb6bd"/>
              </g>
              <g id="Grupo_1130920" data-name="Grupo 1130920" transform="translate(0 4.625)">
                <circle id="Elipse_12439" data-name="Elipse 12439" cx="1.017" cy="1.017" r="1.017" fill="#4fb6bd"/>
              </g>
            </g>
          </g>
          <g id="Grupo_1130926" data-name="Grupo 1130926" transform="translate(17.251 7.616)">
            <g id="Grupo_1130925" data-name="Grupo 1130925">
              <g id="Grupo_1130923" data-name="Grupo 1130923" transform="translate(4.625)">
                <circle id="Elipse_12440" data-name="Elipse 12440" cx="1.017" cy="1.017" r="1.017" fill="#4fb6bd"/>
              </g>
              <g id="Grupo_1130924" data-name="Grupo 1130924">
                <circle id="Elipse_12441" data-name="Elipse 12441" cx="1.017" cy="1.017" r="1.017" fill="#4fb6bd"/>
              </g>
            </g>
          </g>
          <ellipse id="Elipse_12442" data-name="Elipse 12442" cx="6.941" cy="4.331" rx="6.941" ry="4.331" transform="translate(5.536 10.786) rotate(-22.95)" fill="#dc3a33"/>
          <path id="Trazado_912754" data-name="Trazado 912754" d="M52.728,123.027a1.4,1.4,0,0,0-1.345,1.017h-.56c-.007-.1-.017-.2-.029-.3.034-.011.068-.024.1-.038a1.4,1.4,0,1,0-1.072-2.587q-.051.021-.1.046c-.062-.08-.126-.157-.192-.233l.4-.4A1.4,1.4,0,0,0,51.6,120.3h0a1.4,1.4,0,1,0-2.213-.309l-.4.4c-.076-.066-.153-.13-.233-.192q.025-.049.046-.1a1.4,1.4,0,1,0-2.587-1.071c-.014.034-.027.068-.038.1-.1-.013-.2-.022-.3-.029v-.561a1.4,1.4,0,1,0-.766,0v.561c-.1.007-.2.017-.3.029q-.017-.052-.038-.1a1.4,1.4,0,0,0-2.587,1.071q.021.051.046.1c-.08.061-.157.126-.233.192l-.4-.4a1.4,1.4,0,1,0-.542.542l.4.4c-.066.076-.13.153-.192.233q-.049-.025-.1-.046a1.4,1.4,0,0,0-1.888,1.649,10.59,10.59,0,0,0-1.283.285,1.386,1.386,0,0,0-.25.074,9.255,9.255,0,0,0-4.172-2.482,9.191,9.191,0,0,0-4.963-.175,3.493,3.493,0,0,0-1.824,6.13,9.19,9.19,0,0,0,4.251,2.567c.166.049.332.093.5.134a3.245,3.245,0,0,0,.25,1.411,4.1,4.1,0,0,0,3.359,2.256,7.7,7.7,0,0,0,1.2.092,10.444,10.444,0,0,0,4.02-.864,10.917,10.917,0,0,0,2.653-1.585,1.4,1.4,0,0,0,1.752-.785q.021-.051.038-.1c.1.013.2.022.3.029v.561a1.4,1.4,0,1,0,.766,0v-.561c.1-.007.2-.017.3-.029q.017.052.038.1a1.4,1.4,0,0,0,2.587-1.072q-.021-.051-.046-.1c.08-.061.157-.126.233-.192l.4.4a1.4,1.4,0,1,0,.542-.542l-.4-.4c.066-.076.13-.153.192-.233q.049.025.1.046a1.4,1.4,0,0,0,1.071-2.587q-.051-.021-.1-.038c.013-.1.022-.2.029-.3h.56a1.4,1.4,0,1,0,1.345-1.783Zm-2.566-4.162a.634.634,0,0,1,.9.9h0a.634.634,0,1,1-.9-.9Zm-9.332.9a.633.633,0,1,1,0-.9A.634.634,0,0,1,40.829,119.761Zm9.332,9.332a.634.634,0,1,1,0,.9A.632.632,0,0,1,50.161,129.093Zm-5.3-11.9a.634.634,0,1,1,.634.634A.634.634,0,0,1,44.862,117.194ZM31.646,128.539c-.13-.033-.26-.068-.39-.107a8.42,8.42,0,0,1-3.9-2.34,2.743,2.743,0,0,1,1.453-4.884,7.01,7.01,0,0,1,1.855-.236,9.485,9.485,0,0,1,2.687.407,8.691,8.691,0,0,1,3.6,2.03c-.088.035-.175.07-.263.106a10.539,10.539,0,0,0-3.271,2.141,5.616,5.616,0,0,1-1.273-.22,5.52,5.52,0,0,1-3.338-2.724l-.7.3a6.326,6.326,0,0,0,4.677,3.346c-.1.122-.192.244-.28.369A5.431,5.431,0,0,0,31.646,128.539Zm12.284,0a9.751,9.751,0,0,1-8.665,3.67,2.948,2.948,0,0,1-2.135-5.041,9,9,0,0,1,3.861-2.95,9.665,9.665,0,0,1,3.718-.8,6.95,6.95,0,0,1,1.087.083,2.949,2.949,0,0,1,2.135,5.041Zm2.2,3.118a.634.634,0,1,1-.634-.634A.634.634,0,0,1,46.129,131.66Zm3.941-7.233a4.613,4.613,0,0,1-.093.921l.378.46a.657.657,0,0,1,.246.048.634.634,0,1,1-.694,1.03l-.593.058a4.572,4.572,0,0,1-1.3,1.3l-.057.593a.634.634,0,1,1-1.079.448l-.46-.378a4.647,4.647,0,0,1-1.812.005,6.123,6.123,0,0,0,.484-.836,1.4,1.4,0,1,0,.407-2.739c-.033,0-.065,0-.1,0a3.171,3.171,0,0,0-.123-.345,3.238,3.238,0,0,0-.81-1.133,1.4,1.4,0,0,0-1.282-.839c-.044,0-.087,0-.13.007a6.074,6.074,0,0,0-1.137-.29,8.077,8.077,0,0,0-1.859-.066.633.633,0,0,1,1.026-.71l.593-.057a4.572,4.572,0,0,1,1.3-1.3l.058-.593a.634.634,0,1,1,1.079-.448l.46.378a4.648,4.648,0,0,1,1.842,0l.46-.378a.634.634,0,1,1,1.079.448l.058.593a4.57,4.57,0,0,1,1.3,1.3l.593.058A.634.634,0,1,1,50.6,123a.656.656,0,0,1-.246.048l-.378.46A4.612,4.612,0,0,1,50.07,124.427Zm-4.546,1.68a.633.633,0,1,1-.16,1.252A3.818,3.818,0,0,0,45.524,126.107Zm7.2-1.047a.634.634,0,1,1,.634-.634A.634.634,0,0,1,52.728,125.061Z" transform="translate(-24.915 -115.795)"/>
          <path id="Trazado_912755" data-name="Trazado 912755" d="M161.316,152.509a1.4,1.4,0,1,0-1.4,1.4A1.4,1.4,0,0,0,161.316,152.509Zm-1.4.634a.634.634,0,1,1,.634-.634A.634.634,0,0,1,159.916,153.142Z" transform="translate(-139.335 -146.189)"/>
          <path id="Trazado_912756" data-name="Trazado 912756" d="M176.513,167.706a1.4,1.4,0,1,0,1.4,1.4A1.4,1.4,0,0,0,176.513,167.706Zm0,2.034a.634.634,0,1,1,.634-.634A.634.634,0,0,1,176.513,169.74Z" transform="translate(-153.62 -160.473)"/>
          <path id="Trazado_912757" data-name="Trazado 912757" d="M89.625,186.071a5.911,5.911,0,0,1-4.614.024l-.352.681a5.758,5.758,0,0,0,2.556.541,6.97,6.97,0,0,0,2.708-.541A6.633,6.633,0,0,0,93.586,183l-.734-.221A5.911,5.911,0,0,1,89.625,186.071Z" transform="translate(-75.769 -173.442)"/>
        </g>
      </g>
    </g>
  </g>
</svg>
