<svg xmlns="http://www.w3.org/2000/svg" width="56" height="56" viewBox="0 0 56 56">
  <g id="Grupo_1131090" data-name="Grupo 1131090" transform="translate(-180 -3500)">
    <g id="Grupo_1130946" data-name="Grupo 1130946" transform="translate(0 -139)">
      <g id="Grupo_1106391" data-name="Grupo 1106391" transform="translate(0 -330)">
        <g id="Elipse_12294" data-name="Elipse 12294" transform="translate(180 3969)" fill="#faf8f2" stroke="#d0b57a" stroke-width="2">
          <circle cx="28" cy="28" r="28" stroke="none"/>
          <circle cx="28" cy="28" r="27" fill="none"/>
        </g>
      </g>
    </g>
    <g id="alimentos-organicos" transform="translate(183.016 3503.006)">
      <g id="Grupo_1131089" data-name="Grupo 1131089" transform="translate(9.444 9.453)">
        <g id="Grupo_1131085" data-name="Grupo 1131085" transform="translate(0)">
          <g id="Grupo_1131084" data-name="Grupo 1131084">
            <path id="Trazado_913221" data-name="Trazado 913221" d="M120.076,16.024c-.646-.173-1.587,1.242-2.1,3.162s-.407,3.616.239,3.789,1.587-1.242,2.1-3.162.407-3.616-.239-3.789Z" transform="translate(-111.004 -16.01)" fill="#afe269" fill-rule="evenodd"/>
            <path id="Trazado_913222" data-name="Trazado 913222" d="M16.027,88.144c.173-.646,1.87-.753,3.789-.239s3.335,1.455,3.162,2.1-1.87.753-3.789.239S15.854,88.79,16.027,88.144Z" transform="translate(-16.013 -82.9)" fill="#afe269" fill-rule="evenodd"/>
            <ellipse id="Elipse_12458" data-name="Elipse 12458" cx="1.239" cy="3.678" rx="1.239" ry="3.678" transform="matrix(0.866, -0.5, 0.5, 0.866, 2.545, 1.354)" fill="#c6ea94"/>
          </g>
          <path id="Trazado_913223" data-name="Trazado 913223" d="M100.755,133.179l-11.63-12.823a4.805,4.805,0,1,1,8.216-4.744l5.29,16.484a1.1,1.1,0,0,1-1.877,1.083Z" transform="translate(-83.264 -106.178)" fill="#fc9314" fill-rule="evenodd"/>
        </g>
        <g id="Grupo_1131086" data-name="Grupo 1131086" transform="translate(0 13.242)">
          <path id="Trazado_913224" data-name="Trazado 913224" d="M18.566,270.948c-1.958.525-3.015,2.93-2.36,5.372a5.134,5.134,0,0,0,5.224,3.52,5.134,5.134,0,0,0,5.224-3.52c.654-2.442-.4-4.847-2.36-5.372C24.189,270.919,18.671,270.919,18.566,270.948Z" transform="translate(-16.012 -267.502)" fill="#f76c82" fill-rule="evenodd"/>
          <path id="Trazado_913225" data-name="Trazado 913225" d="M39.334,220.815a4.057,4.057,0,0,0-2.866,1.522.065.065,0,0,0,.067.105,6.984,6.984,0,0,1,2.092-.294,6.438,6.438,0,0,0-.838,1.594.065.065,0,0,0,.108.063,3.206,3.206,0,0,1,1.521-.679,4.073,4.073,0,0,0,1.07,2.126.065.065,0,0,0,.092,0,4.074,4.074,0,0,0,1.07-2.126,3.206,3.206,0,0,1,1.521.679.065.065,0,0,0,.108-.063,6.434,6.434,0,0,0-.838-1.594,6.985,6.985,0,0,1,2.092.294.065.065,0,0,0,.067-.105,4.057,4.057,0,0,0-2.866-1.522,2.914,2.914,0,0,0,.043-2.126.194.194,0,0,0-.188-.141H39.566a.2.2,0,0,0-.192.234C39.528,219.565,39.817,219.9,39.334,220.815Z" transform="translate(-35.117 -218.548)" fill="#c6ea94" fill-rule="evenodd"/>
        </g>
        <g id="Grupo_1131087" data-name="Grupo 1131087" transform="translate(17.16 15.279)">
          <path id="Trazado_913226" data-name="Trazado 913226" d="M283.29,249.7a4.1,4.1,0,0,1,2.293.715,4.1,4.1,0,0,1,2.293-.715c2.661,0,4.819,2.662,4.819,5.946s-2.157,5.946-4.819,5.946a4.1,4.1,0,0,1-2.293-.715,4.1,4.1,0,0,1-2.293.715c-2.661,0-4.819-2.662-4.819-5.946S280.628,249.7,283.29,249.7Z" transform="translate(-278.471 -249.7)" fill="#f76c82" fill-rule="evenodd"/>
        </g>
        <g id="Grupo_1131088" data-name="Grupo 1131088" transform="translate(0.009 25.307)">
          <path id="Trazado_913227" data-name="Trazado 913227" d="M117.026,442.963h17.563a.328.328,0,0,1,.327.327V446.1a.328.328,0,0,1-.327.327H117.026a.328.328,0,0,1-.327-.327V443.29A.327.327,0,0,1,117.026,442.963Z" transform="translate(-110.125 -440.355)" fill="#f5b945" fill-rule="evenodd"/>
          <path id="Trazado_913228" data-name="Trazado 913228" d="M16.475,403.079H47.186a.327.327,0,0,1,.326.345c-.141,2.5-1.869,3.788-6.23,3.769h-18.9c-4.36.019-6.089-1.267-6.23-3.769a.327.327,0,0,1,.326-.345Z" transform="translate(-16.148 -403.079)" fill="#fdcd56" fill-rule="evenodd"/>
        </g>
      </g>
      <path id="Trazado_913229" data-name="Trazado 913229" d="M34.934,12.17a.458.458,0,0,1,.458-.458H36.82a.458.458,0,0,1,0,.915H35.392A.459.459,0,0,1,34.934,12.17Zm2.717,2.717V13.46a.458.458,0,0,1,.917,0v1.427a.458.458,0,0,1-.917,0Zm0-4.007V9.453a.458.458,0,0,1,.917,0v1.426a.458.458,0,0,1-.917,0Zm1.292,1.291a.456.456,0,0,1,.455-.458h1.428a.458.458,0,1,1,0,.915H39.4a.456.456,0,0,1-.455-.457ZM26.464,17.282a.458.458,0,0,1,.458-.457H28.35a.458.458,0,0,1,0,.915H26.923A.459.459,0,0,1,26.464,17.282ZM29.181,20V18.572a.458.458,0,0,1,.917,0V20a.458.458,0,0,1-.917,0Zm0-4.007V14.566a.458.458,0,0,1,.917,0v1.426a.458.458,0,0,1-.917,0Zm1.292,1.291a.456.456,0,0,1,.455-.457h1.428a.458.458,0,1,1,0,.915H30.928A.456.456,0,0,1,30.473,17.282ZM28.15,34.3a6.32,6.32,0,0,1-1.089-3.624c0-3.027,1.957-5.488,4.359-5.488a3.625,3.625,0,0,1,2.04.637.455.455,0,0,0,.508,0,3.624,3.624,0,0,1,2.04-.637c2.4,0,4.359,2.461,4.359,5.488A6.321,6.321,0,0,1,39.278,34.3Zm11.386,2.852c-.852.85-2.443,1.263-4.858,1.263H15.589c-2.415,0-4-.414-4.855-1.263a2.962,2.962,0,0,1-.815-1.936H40.349A2.96,2.96,0,0,1,39.536,37.153ZM16.484,40.377V39.331h17.3v1.046Zm-6.405-8.984a4.083,4.083,0,0,1,1.258-4.452q.411-.1.757-.144a3.243,3.243,0,0,0-.468,1.291.458.458,0,0,0,.809.3,2.13,2.13,0,0,1,.972-.568,4.327,4.327,0,0,0,1.135,1.95.456.456,0,0,0,.317.128.446.446,0,0,0,.317-.128,4.336,4.336,0,0,0,1.138-1.95,2.129,2.129,0,0,1,.972.568.455.455,0,0,0,.511.135.461.461,0,0,0,.3-.439,3.207,3.207,0,0,0-.471-1.29c.234.032.486.08.76.144a4.1,4.1,0,0,1,1.258,4.452A4.252,4.252,0,0,1,16.675,34.3H13.048a4.242,4.242,0,0,1-2.969-2.908Zm3.615-5.976a3.47,3.47,0,0,0-1.464.442,5.1,5.1,0,0,1,.744-.022.457.457,0,0,1,.354.72c-.092.133-.188.276-.274.42a4.172,4.172,0,0,1,.618-.156.5.5,0,0,1,.074-.006.459.459,0,0,1,.449.372,3.8,3.8,0,0,0,.665,1.569,3.812,3.812,0,0,0,.668-1.569.458.458,0,0,1,.523-.366,4.156,4.156,0,0,1,.618.156c-.089-.145-.181-.288-.274-.42a.457.457,0,0,1,.354-.72,5.1,5.1,0,0,1,.744.022,3.47,3.47,0,0,0-1.467-.442.459.459,0,0,1-.385-.64,2.388,2.388,0,0,0,.077-1.625H14.223l.028.112a2.212,2.212,0,0,1-.185,1.91.461.461,0,0,1-.372.243Zm6.833,6.213a4.858,4.858,0,0,1-1.84,2.671h5.676L20.73,30.294A6.012,6.012,0,0,1,20.527,31.631ZM16.881,16.814a4.371,4.371,0,0,0-1.944,5.423h1.126a.458.458,0,0,1,.434.318,3.79,3.79,0,0,1,.169,2.028,4.606,4.606,0,0,1,2.75,1.776.45.45,0,0,1,.092.226L21.5,25.439a.458.458,0,0,1,.458.793L20,27.358a4.793,4.793,0,0,1,.581,1.41L25.6,34.3H27.07a7.377,7.377,0,0,1-.926-3.624,7.524,7.524,0,0,1,.065-.993l-1.458.842a.458.458,0,1,1-.458-.793l1.88-1.086-2.913-9.082-3.627,2.094a.458.458,0,1,1-.458-.792l3.784-2.184a3.973,3.973,0,0,0-2.27-2.173,4.405,4.405,0,0,0-3.806.3Zm-6.981-2c.142-.186,1.3-.432,3.227.084a9.8,9.8,0,0,1,1,.326,7.038,7.038,0,0,0,.954,1.052,3.84,3.84,0,0,0,.434.335,6.981,6.981,0,0,1-2.778-.256C10.811,15.84,9.928,15.046,9.9,14.816Zm3.384-4.231c.228-.032,1.224.614,2.221,2.341s1.061,2.912.917,3.1c-.231.031-1.224-.615-2.221-2.342s-1.061-2.912-.917-3.094Zm5.11-.673c.188.14.434,1.3-.083,3.227a7.914,7.914,0,0,1-.935,2.225c-.015-.117-.034-.242-.058-.377a7.636,7.636,0,0,0-.591-1.7c.037-.179.08-.359.129-.539C17.37,10.822,18.164,9.939,18.395,9.911ZM36.008,24.274a4.492,4.492,0,0,0-1.8.382,6.446,6.446,0,0,1,1.234-2.376.457.457,0,1,0-.726-.557,7.176,7.176,0,0,0-1.449,2.953,4.5,4.5,0,0,0-1.846-.4A5.23,5.23,0,0,0,26.8,27.6l-2.84-8.85a4.928,4.928,0,0,0-2.941-3.089,5.3,5.3,0,0,0-2.569-.317,9.879,9.879,0,0,0,.751-1.966,8.8,8.8,0,0,0,.329-2.7c-.074-1.188-.526-1.555-.892-1.653s-.941-.006-1.6.985a8.191,8.191,0,0,0-.948,2.1,8.334,8.334,0,0,0-1.461-1.787c-.892-.787-1.474-.726-1.8-.537s-.671.66-.437,1.827a8.685,8.685,0,0,0,.944,2.39,8.719,8.719,0,0,0-2.667-.322c-1.187.075-1.554.527-1.652.893s-.006.941.984,1.6a8.779,8.779,0,0,0,2.5,1.062,9.538,9.538,0,0,0,2.2.339,5.468,5.468,0,0,0-.763,1.514,4.973,4.973,0,0,0,.018,3.145H13.66a.457.457,0,0,0-.452.521,5.592,5.592,0,0,0,.16.743,1.307,1.307,0,0,1-.009,1.032,4.565,4.565,0,0,0-3.052,1.827.445.445,0,0,0-.092.346A5.254,5.254,0,0,0,9.2,31.631,4.869,4.869,0,0,0,11.033,34.3H9.442a.459.459,0,0,0-.458.458,4.066,4.066,0,0,0,1.1,3.043c1.043,1.041,2.787,1.528,5.479,1.53v1.5a.458.458,0,0,0,.458.458H34.242a.458.458,0,0,0,.458-.458v-1.5c2.695,0,4.436-.488,5.482-1.529a4.065,4.065,0,0,0,1.1-3.043.459.459,0,0,0-.458-.458h-.468a7.377,7.377,0,0,0,.926-3.624c0-3.531-2.369-6.4-5.276-6.4Z" transform="translate(0 0)" fill-rule="evenodd"/>
    </g>
  </g>
</svg>
