<svg xmlns="http://www.w3.org/2000/svg" width="56" height="56" viewBox="0 0 56 56">
  <g id="Grupo_1130950" data-name="Grupo 1130950" transform="translate(-180 -2405)">
    <g id="Elipse_12443" data-name="Elipse 12443" transform="translate(180 2405)" fill="#faf8f2" stroke="#d0b57a" stroke-width="2">
      <circle cx="28" cy="28" r="28" stroke="none"/>
      <circle cx="28" cy="28" r="27" fill="none"/>
    </g>
    <g id="diagnostico" transform="translate(192.025 2406.169)">
      <g id="Grupo_1130949" data-name="Grupo 1130949" transform="translate(0.471 12.326)">
        <g id="Grupo_1130947" data-name="Grupo 1130947" transform="translate(0 0)">
          <path id="Trazado_912867" data-name="Trazado 912867" d="M23.577,21.752l8.409,14.565a3.84,3.84,0,0,1-3.326,5.76H11.842a3.84,3.84,0,0,1-3.326-5.76l8.409-14.565a3.84,3.84,0,0,1,6.651,0Z" transform="translate(-7.998 -19.832)" fill="#fe646f" fill-rule="evenodd"/>
          <path id="Trazado_912868" data-name="Trazado 912868" d="M201.694,21.752,210.1,36.317a3.84,3.84,0,0,1-3.326,5.76h-1a3.84,3.84,0,0,0,3.326-5.76L200.7,21.752a3.81,3.81,0,0,0-2.826-1.888,3.925,3.925,0,0,1,.5-.032A3.814,3.814,0,0,1,201.694,21.752Z" transform="translate(-186.115 -19.832)" fill="#fd4755" fill-rule="evenodd"/>
          <path id="Trazado_912869" data-name="Trazado 912869" d="M52.179,53.089l8.409,14.565A1.838,1.838,0,0,1,59,70.411H42.178a1.838,1.838,0,0,1-1.592-2.757L49,53.089a1.838,1.838,0,0,1,3.184,0Z" transform="translate(-38.334 -50.168)" fill="#ffe177" fill-rule="evenodd"/>
          <path id="Trazado_912870" data-name="Trazado 912870" d="M43.177,70.411h-1a1.838,1.838,0,0,1-1.592-2.757L49,53.089a1.812,1.812,0,0,1,1.592-.919,1.88,1.88,0,0,1,.5.067,1.81,1.81,0,0,0-1.092.852L41.585,67.654a1.838,1.838,0,0,0,1.592,2.757Z" transform="translate(-38.334 -50.168)" fill="#ffd064" fill-rule="evenodd"/>
          <path id="Trazado_912871" data-name="Trazado 912871" d="M190,134.873a1.051,1.051,0,1,1-1.051,1.051A1.051,1.051,0,0,1,190,134.873Zm0-1.1a.821.821,0,0,1-.82-.791l-.207-5.746a.821.821,0,0,1,.82-.85h.415a.821.821,0,0,1,.82.85l-.208,5.746A.821.821,0,0,1,190,133.773Z" transform="translate(-177.75 -119.79)" fill="#fe646f" fill-rule="evenodd"/>
          <path id="Trazado_912872" data-name="Trazado 912872" d="M202.153,134.872a1.051,1.051,0,1,1-.25,2.073,1.052,1.052,0,0,0,0-2.043A1.061,1.061,0,0,1,202.153,134.872Zm0-1.1a.819.819,0,0,1-.25-.039.821.821,0,0,0,.571-.752l.208-5.746a.821.821,0,0,0-.778-.849h.457a.821.821,0,0,1,.82.85l-.207,5.746A.821.821,0,0,1,202.153,133.772Z" transform="translate(-189.9 -119.789)" fill="#fd4755" fill-rule="evenodd"/>
        </g>
        <g id="Grupo_1130948" data-name="Grupo 1130948" transform="translate(10.379 9.492)">
          <path id="Trazado_912873" data-name="Trazado 912873" d="M377.338,366.042a6.261,6.261,0,0,1-1.057,1.163l2.874,2.817,1.094-1.127Z" transform="translate(-363.862 -354.102)" fill="#a79ba7" fill-rule="evenodd"/>
          <path id="Trazado_912874" data-name="Trazado 912874" d="M388.926,365.729a.722.722,0,0,1-.313.419l2.855,2.836.35-.383Z" transform="translate(-375.431 -353.808)" fill="#837683" fill-rule="evenodd"/>
          <path id="Trazado_912875" data-name="Trazado 912875" d="M414.936,405.292l1.235-1.272a.568.568,0,0,0-.012-.8l-3.42-3.318a.568.568,0,0,0-.8.012l-1.235,1.272a.568.568,0,0,0,.012.8l3.42,3.318A.568.568,0,0,0,414.936,405.292Z" transform="translate(-396.005 -385.716)" fill="#f1ba84" fill-rule="evenodd"/>
          <path id="Trazado_912876" data-name="Trazado 912876" d="M435.678,399.9l3.42,3.318a.568.568,0,0,1,.012.8l-1.235,1.272a.559.559,0,0,1-.153.112.568.568,0,0,0,.659-.112l1.235-1.272a.568.568,0,0,0-.012-.8l-3.42-3.318a.568.568,0,0,0-.647-.1A.561.561,0,0,1,435.678,399.9Z" transform="translate(-419.45 -385.716)" fill="#e3a76f" fill-rule="evenodd"/>
          <circle id="Elipse_12448" data-name="Elipse 12448" cx="6.227" cy="6.227" r="6.227" transform="translate(0 8.805) rotate(-45)" fill="#8ac9fe"/>
          <path id="Trazado_912877" data-name="Trazado 912877" d="M313.39,214.808a6.227,6.227,0,0,1,0,12.454q-.152,0-.3-.007a6.227,6.227,0,0,0,0-12.439C313.188,214.811,313.289,214.808,313.39,214.808Z" transform="translate(-304.581 -212.23)" fill="#60b7ff" fill-rule="evenodd"/>
          <circle id="Elipse_12449" data-name="Elipse 12449" cx="4.471" cy="4.471" r="4.471" transform="matrix(0.305, -0.952, 0.952, 0.305, 3.179, 11.7)" fill="#eceff1"/>
          <path id="Trazado_912878" data-name="Trazado 912878" d="M250.21,243.17c.1,0,.2,0,.3.01a4.471,4.471,0,0,0,0,8.922c-.1.007-.2.01-.3.01a4.471,4.471,0,1,1,0-8.943Z" transform="translate(-241.401 -238.836)" fill="#d1d1d6" fill-rule="evenodd"/>
        </g>
      </g>
      <path id="Trazado_912879" data-name="Trazado 912879" d="M19.661,34.549a3.926,3.926,0,1,1,3.926-3.926A3.93,3.93,0,0,1,19.661,34.549Zm0-8.842a4.916,4.916,0,1,0,4.916,4.916,4.922,4.922,0,0,0-4.916-4.916Zm11,14.071L29.428,41.05a.073.073,0,0,1-.1,0l-3.42-3.319a.068.068,0,0,1-.02-.05.067.067,0,0,1,.019-.051l1.234-1.272a.074.074,0,0,1,.05-.021h0a.069.069,0,0,1,.049.019l3.42,3.319A.073.073,0,0,1,30.663,39.777ZM13.929,30.623a5.732,5.732,0,1,0,5.732-5.732A5.738,5.738,0,0,0,13.929,30.623Zm-.135-3.28a6.738,6.738,0,0,1,4.982-3.384L13.889,15.5a1.343,1.343,0,0,0-2.326,0L3.154,30.06a1.343,1.343,0,0,0,1.163,2.014H13.1a6.71,6.71,0,0,1-.158-1.451c0-.214.011-.426.03-.635a1.588,1.588,0,0,1-.243.019,1.547,1.547,0,1,1,1.069-2.664Zm-1.069,1.673a.556.556,0,1,1,.557-.556A.557.557,0,0,1,12.726,29.017Zm-8.409,5.06H13.9a6.74,6.74,0,0,1-.5-1.011H4.317a2.333,2.333,0,0,1-2.021-3.5L10.7,15a2.333,2.333,0,0,1,4.042,0l5.142,8.905a6.673,6.673,0,0,1,1.262.162l-5.527-9.573a3.344,3.344,0,0,0-5.793,0L1.42,29.059a3.345,3.345,0,0,0,2.9,5.017ZM26.06,36.052l-.4.416-1.187-1.152q.2-.208.388-.432Zm5.291,2.914-3.42-3.319a1.058,1.058,0,0,0-.755-.3,1.07,1.07,0,0,0-.351.066l-1.392-1.35a6.717,6.717,0,0,0-2.85-9.494L16.48,14a4.335,4.335,0,0,0-7.509,0L.563,28.564a4.335,4.335,0,0,0,3.754,6.5h10.3a6.711,6.711,0,0,0,9.1.908L25,37.216a1.067,1.067,0,0,0-.107.482,1.054,1.054,0,0,0,.321.745l3.42,3.319a1.063,1.063,0,0,0,1.5-.022h0l1.234-1.272a1.063,1.063,0,0,0-.022-1.5ZM13.052,25.5a.326.326,0,0,1-.651,0l-.207-5.746a.325.325,0,0,1,.326-.337h.415a.324.324,0,0,1,.326.337Zm-.118-7.073a1.317,1.317,0,0,1,1.316,1.363l-.208,5.746a1.316,1.316,0,0,1-2.63,0L11.2,19.791a1.317,1.317,0,0,1,1.315-1.363Z" fill-rule="evenodd"/>
    </g>
  </g>
</svg>
