<svg xmlns="http://www.w3.org/2000/svg" width="56" height="56" viewBox="0 0 56 56">
  <g id="Grupo_1130963" data-name="Grupo 1130963" transform="translate(-180 -1555)">
    <g id="Elipse_12293" data-name="Elipse 12293" transform="translate(180 1555)" fill="#faf8f2" stroke="#d0b57a" stroke-width="2">
      <circle cx="28" cy="28" r="28" stroke="none"/>
      <circle cx="28" cy="28" r="27" fill="none"/>
    </g>
    <g id="operando" transform="translate(193 1568)">
      <g id="Grupo_1130961" data-name="Grupo 1130961" transform="translate(1.462 1.462)">
        <g id="Grupo_1130951" data-name="Grupo 1130951" transform="translate(22.181 0)">
          <path id="Trazado_912880" data-name="Trazado 912880" d="M51.83,9.394l0,0a.225.225,0,0,0-.051-.065l-.328-.328a.954.954,0,0,0-1.109-.176.883.883,0,0,1-.337.1V2h5.545V9.394Z" transform="translate(-50 -2)" fill="#e6e9ed"/>
        </g>
        <g id="Grupo_1130952" data-name="Grupo 1130952" transform="translate(11.09 0)">
          <path id="Trazado_912881" data-name="Trazado 912881" d="M31.545,5.7V8.737a.935.935,0,0,0-.522.268l-.328.328a.225.225,0,0,0-.051.065l0,0H26V2h5.545Z" transform="translate(-26 -2)" fill="#e6e9ed"/>
        </g>
        <g id="Grupo_1130953" data-name="Grupo 1130953" transform="translate(0 0)">
          <path id="Trazado_912882" data-name="Trazado 912882" d="M7.545,5.7v3.7H2V2H7.545Z" transform="translate(-2 -2)" fill="#e6e9ed"/>
        </g>
        <g id="Grupo_1130954" data-name="Grupo 1130954" transform="translate(14.325 5.545)">
          <path id="Trazado_912883" data-name="Trazado 912883" d="M33.661,18.4a.945.945,0,0,0,.582-.545l.069-.166a.9.9,0,0,0,.074-.365.933.933,0,0,0-.1-.43.939.939,0,0,1,.125-1.044.225.225,0,0,1,.051-.065l.328-.328a.935.935,0,0,1,.522-.268.851.851,0,0,1,.153-.014.972.972,0,0,1,.434.106.939.939,0,0,0,.795.028l.166-.069a.945.945,0,0,0,.545-.582.963.963,0,0,1,.91-.661h.462a.963.963,0,0,1,.91.661.945.945,0,0,0,.545.582l.166.069a.9.9,0,0,0,.365.074.62.62,0,0,0,.092,0,.883.883,0,0,0,.337-.1.954.954,0,0,1,1.109.176l.328.328a.225.225,0,0,1,.051.065.913.913,0,0,1,.231.61.972.972,0,0,1-.106.434.939.939,0,0,0-.028.795l.069.166a.945.945,0,0,0,.582.545.963.963,0,0,1,.661.91v.462a.963.963,0,0,1-.661.91.945.945,0,0,0-.582.545l-.069.166a.9.9,0,0,0-.074.365.933.933,0,0,0,.1.43A.954.954,0,0,1,42.63,23.3l-.328.328a.956.956,0,0,1-.675.282.972.972,0,0,1-.434-.106.939.939,0,0,0-.795-.028l-.166.069a.945.945,0,0,0-.545.582.963.963,0,0,1-.91.661h-.462a.956.956,0,0,1-.693-.3V22.161a2.773,2.773,0,1,0-1.848-2.616H33v-.231a.963.963,0,0,1,.661-.91Z" transform="translate(-33 -14)" fill="#ffc729"/>
        </g>
        <g id="Grupo_1130955" data-name="Grupo 1130955" transform="translate(17.098 8.318)">
          <path id="Trazado_912884" data-name="Trazado 912884" d="M40.848,24.621A1.848,1.848,0,0,0,39,22.773a2.768,2.768,0,1,1,1.848,2.616Zm0-1.848a.924.924,0,1,0,.924-.924A.927.927,0,0,0,40.848,22.773Z" transform="translate(-39 -20)" fill="#fcd770"/>
        </g>
        <g id="Grupo_1130956" data-name="Grupo 1130956" transform="translate(0 24.029)">
          <path id="Trazado_912885" data-name="Trazado 912885" d="M21.408,54H2.924A.931.931,0,0,0,2,54.924,2.775,2.775,0,0,0,4.773,57.7H19.56a2.777,2.777,0,0,0,2.773-2.773A.927.927,0,0,0,21.408,54Z" transform="translate(-2 -54)" fill="#969faa"/>
        </g>
        <g id="Grupo_1130957" data-name="Grupo 1130957" transform="translate(7.394 24.029)">
          <path id="Trazado_912886" data-name="Trazado 912886" d="M23.545,54v.924a.927.927,0,0,1-.924.924h-3.7A.927.927,0,0,1,18,54.924V54Z" transform="translate(-18 -54)" fill="#fcd770"/>
        </g>
        <g id="Grupo_1130958" data-name="Grupo 1130958" transform="translate(1.386 11.09)">
          <path id="Trazado_912887" data-name="Trazado 912887" d="M22.56,31.249v7.689H5V27.848A1.848,1.848,0,0,1,6.848,26H20.712a1.848,1.848,0,0,1,1.848,1.848v3.4Z" transform="translate(-5 -26)" fill="#ccd1d9"/>
        </g>
        <g id="Grupo_1130959" data-name="Grupo 1130959" transform="translate(3.235 12.939)">
          <path id="Trazado_912888" data-name="Trazado 912888" d="M22.863,30.462V38.78a.463.463,0,0,1-.462.462H9.462A.463.463,0,0,1,9,38.78V30.462A.463.463,0,0,1,9.462,30H22.4A.463.463,0,0,1,22.863,30.462Z" transform="translate(-9 -30)" fill="#69d6f4"/>
        </g>
        <g id="Grupo_1130960" data-name="Grupo 1130960" transform="translate(5.083 14.787)">
          <path id="Trazado_912889" data-name="Trazado 912889" d="M21.318,35.848a1.848,1.848,0,0,1,0,3.7H14.848a1.848,1.848,0,1,1,0-3.7,1.884,1.884,0,0,1,.587.1,2.773,2.773,0,0,1,5.3,0A1.884,1.884,0,0,1,21.318,35.848Z" transform="translate(-13 -34)" fill="#e6e9ed"/>
        </g>
      </g>
      <g id="Grupo_1130962" data-name="Grupo 1130962" transform="translate(1 1)">
        <path id="Trazado_912890" data-name="Trazado 912890" d="M21.863,29H8.924A.925.925,0,0,0,8,29.924v8.318a.925.925,0,0,0,.924.924H21.863a.925.925,0,0,0,.924-.924V29.924A.925.925,0,0,0,21.863,29ZM8.924,38.242V29.924H21.863v8.318Z" transform="translate(-4.765 -16.061)"/>
        <path id="Trazado_912891" data-name="Trazado 912891" d="M20.48,34.871a3.237,3.237,0,0,0-5.869,0,2.309,2.309,0,1,0-.3,4.6H20.78a2.309,2.309,0,1,0-.3-4.6Zm.3,3.675H14.311a1.386,1.386,0,1,1,0-2.773,1.369,1.369,0,0,1,.439.079L15.2,36l.14-.452a2.311,2.311,0,0,1,4.415,0l.14.453.449-.151a1.358,1.358,0,0,1,.439-.08,1.386,1.386,0,0,1,0,2.773Z" transform="translate(-6.917 -18.213)"/>
        <path id="Trazado_912892" data-name="Trazado 912892" d="M29.65,1H23.181V4.7H18.56V1H12.09V4.7H7.469V1H1V9.318H7.469v-3.7H12.09v3.7h4.427a1.417,1.417,0,0,0,.141.8.475.475,0,0,1,.018.4c-.026.06-.051.12-.074.18a.473.473,0,0,1-.3.275,1.418,1.418,0,0,0-.958,1.118H4.7A2.313,2.313,0,0,0,2.386,14.4V25.029A1.388,1.388,0,0,0,1,26.416,3.238,3.238,0,0,0,4.235,29.65H19.022a3.238,3.238,0,0,0,3.235-3.235,1.388,1.388,0,0,0-1.386-1.386V18.536a1.391,1.391,0,0,0,.232.024h.46a1.418,1.418,0,0,0,1.35-.978.474.474,0,0,1,.274-.3c.061-.024.122-.048.182-.074a.474.474,0,0,1,.4.018,1.418,1.418,0,0,0,1.646-.263l.326-.325a1.417,1.417,0,0,0,.263-1.646.475.475,0,0,1-.018-.4c.026-.06.051-.12.074-.18a.473.473,0,0,1,.3-.275,1.42,1.42,0,0,0,.977-1.35v-.46a1.418,1.418,0,0,0-.978-1.35.474.474,0,0,1-.3-.274c-.024-.061-.048-.122-.074-.182a.476.476,0,0,1,.018-.4,1.416,1.416,0,0,0,.141-.8h3.5ZM6.545,8.394H1.924V1.924H6.545ZM23.181,5.621v2.2a.474.474,0,0,1-.268-.295,1.419,1.419,0,0,0-1.35-.977H21.1a1.418,1.418,0,0,0-1.35.978.473.473,0,0,1-.275.3c-.061.024-.121.048-.181.074a.474.474,0,0,1-.4-.018,1.424,1.424,0,0,0-.333-.115V5.621Zm-10.166-3.7h4.621V7.868a1.409,1.409,0,0,0-.388.274L17,8.394H13.015Zm8.318,24.491a2.313,2.313,0,0,1-2.311,2.311H4.235a2.313,2.313,0,0,1-2.311-2.311.463.463,0,0,1,.462-.462H8.394v.462A1.388,1.388,0,0,0,9.78,27.8h3.7a1.388,1.388,0,0,0,1.386-1.386v-.462H20.87A.463.463,0,0,1,21.333,26.416ZM9.318,25.954h4.621v.462a.463.463,0,0,1-.462.462H9.78a.463.463,0,0,1-.462-.462Zm-6.007-.924V14.4A1.388,1.388,0,0,1,4.7,13.015H18.56A1.388,1.388,0,0,1,19.946,14.4V25.029Zm17.479-11.2a1.386,1.386,0,1,0-.843-1.275s0,.008,0,.013a2.3,2.3,0,0,0-.885-.416,2.327,2.327,0,1,1,1.808,2.663V14.4a2.278,2.278,0,0,0-.081-.573Zm.081-1.275a.462.462,0,1,1,.462.462A.463.463,0,0,1,20.87,12.553Zm5.2-.7a.5.5,0,0,1,.341.472v.46a.5.5,0,0,1-.342.472,1.394,1.394,0,0,0-.872.819c-.019.049-.04.1-.061.147a1.4,1.4,0,0,0,.04,1.189.5.5,0,0,1-.092.575l-.326.326a.5.5,0,0,1-.575.092A1.4,1.4,0,0,0,23,16.361l-.148.061a1.4,1.4,0,0,0-.818.872.5.5,0,0,1-.472.341H21.1a.489.489,0,0,1-.232-.066V15.748a3.275,3.275,0,0,0,.462.039,3.235,3.235,0,1,0-3.2-3.7H16.314a.492.492,0,0,1,.278-.24,1.394,1.394,0,0,0,.872-.819c.019-.049.04-.1.061-.147a1.4,1.4,0,0,0-.04-1.189.5.5,0,0,1,.092-.575L17.9,8.8a.494.494,0,0,1,.575-.092,1.394,1.394,0,0,0,1.188.04c.049-.021.1-.042.148-.061a1.4,1.4,0,0,0,.819-.872.5.5,0,0,1,.471-.342h.46a.5.5,0,0,1,.472.342,1.4,1.4,0,0,0,.818.872L23,8.743a1.4,1.4,0,0,0,1.189-.04.5.5,0,0,1,.575.092l.325.325a.5.5,0,0,1,.092.575,1.394,1.394,0,0,0-.04,1.188q.031.073.061.148a1.394,1.394,0,0,0,.872.818Zm2.652-3.457H25.669l-.251-.251a1.414,1.414,0,0,0-1.312-.378V1.924h4.621V8.394Z" transform="translate(-1 -1)"/>
        <path id="Trazado_912893" data-name="Trazado 912893" d="M5,5H7.773v.924H5Z" transform="translate(-3.152 -3.152)"/>
        <path id="Trazado_912894" data-name="Trazado 912894" d="M5,9H7.773v.924H5Z" transform="translate(-3.152 -5.303)"/>
        <path id="Trazado_912895" data-name="Trazado 912895" d="M5,13H7.773v.924H5Z" transform="translate(-3.152 -7.455)"/>
        <path id="Trazado_912896" data-name="Trazado 912896" d="M29,5h2.773v.924H29Z" transform="translate(-16.061 -3.152)"/>
        <path id="Trazado_912897" data-name="Trazado 912897" d="M29,9h2.773v.924H29Z" transform="translate(-16.061 -5.303)"/>
        <path id="Trazado_912898" data-name="Trazado 912898" d="M29,13h2.773v.924H29Z" transform="translate(-16.061 -7.455)"/>
        <path id="Trazado_912899" data-name="Trazado 912899" d="M53,5h2.773v.924H53Z" transform="translate(-28.971 -3.152)"/>
        <path id="Trazado_912900" data-name="Trazado 912900" d="M53,9h2.773v.924H53Z" transform="translate(-28.971 -5.303)"/>
        <path id="Trazado_912901" data-name="Trazado 912901" d="M53,13h2.773v.924H53Z" transform="translate(-28.971 -7.455)"/>
      </g>
    </g>
  </g>
</svg>
